<svg xmlns="http://www.w3.org/2000/svg" xmlns:xlink="http://www.w3.org/1999/xlink" width="85" height="98" viewBox="0 0 85 98">
  <defs>
    <clipPath id="clip-boy_press">
      <rect width="85" height="98"/>
    </clipPath>
  </defs>
  <g id="boy_press" data-name="boy press" clip-path="url(#clip-boy_press)">
    <g id="Grupo_9060" data-name="Grupo 9060" transform="translate(-783 -443)">
      <g id="Grupo_9040" data-name="Grupo 9040" transform="translate(783 445.69)">
        <g id="Grupo_2170" data-name="Grupo 2170" transform="translate(0 0)">
          <g id="Grupo_2166" data-name="Grupo 2166" transform="translate(6.791)">
            <path id="Trazado_1534" data-name="Trazado 1534" d="M584.511,1515.654a.96.96,0,0,0-1.358,0l-2.943,2.943a.96.96,0,0,0,1.359,1.357l2.942-2.942A.961.961,0,0,0,584.511,1515.654Z" transform="translate(-579.93 -1515.373)" fill="#cdfc00"/>
          </g>
          <g id="Grupo_2167" data-name="Grupo 2167" transform="translate(0 6.791)">
            <path id="Trazado_1535" data-name="Trazado 1535" d="M578.734,1521.432a.961.961,0,0,0-1.359,0l-2.943,2.941a.961.961,0,0,0,1.359,1.359l2.943-2.943A.96.96,0,0,0,578.734,1521.432Z" transform="translate(-574.152 -1521.151)" fill="#cdfc00"/>
          </g>
          <g id="Grupo_2168" data-name="Grupo 2168" transform="translate(6.791 6.791)">
            <path id="Trazado_1536" data-name="Trazado 1536" d="M584.511,1524.374l-2.942-2.941a.96.96,0,0,0-1.359,1.357l2.943,2.943a.96.96,0,1,0,1.358-1.359Z" transform="translate(-579.93 -1521.151)" fill="#cdfc00"/>
          </g>
          <g id="Grupo_2169" data-name="Grupo 2169">
            <path id="Trazado_1537" data-name="Trazado 1537" d="M578.734,1518.6l-2.943-2.943a.961.961,0,1,0-1.359,1.359l2.943,2.942a.96.96,0,0,0,1.359-1.357Z" transform="translate(-574.152 -1515.373)" fill="#cdfc00"/>
          </g>
        </g>
      </g>
      <g id="Grupo_9041" data-name="Grupo 9041" transform="translate(771.679 448.144)">
        <g id="Grupo_2177" data-name="Grupo 2177">
          <g id="Grupo_2165" data-name="Grupo 2165" transform="translate(83.744 22.502)">
            <g id="Grupo_2143" data-name="Grupo 2143" transform="translate(1.565 1.636)">
              <g id="Grupo_2141" data-name="Grupo 2141" transform="translate(0.594 0.594)">
                <path id="Trazado_1518" data-name="Trazado 1518" d="M658.194,1531.989l1.82,1.821Z" transform="translate(-658.194 -1531.989)" fill="#0074ff"/>
              </g>
              <g id="Grupo_2142" data-name="Grupo 2142">
                <path id="Trazado_1519" data-name="Trazado 1519" d="M660.025,1534.415a.592.592,0,0,1-.42-.174l-1.82-1.82a.594.594,0,0,1,.84-.841l1.821,1.821a.594.594,0,0,1-.421,1.014Z" transform="translate(-657.611 -1531.406)" fill="#0074ff"/>
              </g>
            </g>
            <g id="Grupo_2146" data-name="Grupo 2146" transform="translate(0 5.518)">
              <g id="Grupo_2144" data-name="Grupo 2144" transform="translate(0.594 0.594)">
                <path id="Trazado_1520" data-name="Trazado 1520" d="M656.658,1535.8h0Z" transform="translate(-656.658 -1535.798)" fill="#0074ff"/>
              </g>
              <g id="Grupo_2145" data-name="Grupo 2145">
                <path id="Trazado_1521" data-name="Trazado 1521" d="M659.243,1536.4h-2.574a.594.594,0,0,1,0-1.188h2.574a.594.594,0,0,1,0,1.188Z" transform="translate(-656.075 -1535.215)" fill="#0074ff"/>
              </g>
            </g>
            <g id="Grupo_2149" data-name="Grupo 2149" transform="translate(1.637 7.548)">
              <g id="Grupo_2147" data-name="Grupo 2147" transform="translate(0.594 0.594)">
                <path id="Trazado_1522" data-name="Trazado 1522" d="M658.265,1539.611l1.82-1.821Z" transform="translate(-658.265 -1537.79)" fill="#0074ff"/>
              </g>
              <g id="Grupo_2148" data-name="Grupo 2148">
                <path id="Trazado_1523" data-name="Trazado 1523" d="M658.276,1540.216a.595.595,0,0,1-.42-1.015l1.82-1.82a.594.594,0,0,1,.841.84l-1.821,1.821A.592.592,0,0,1,658.276,1540.216Z" transform="translate(-657.682 -1537.207)" fill="#0074ff"/>
              </g>
            </g>
            <g id="Grupo_2152" data-name="Grupo 2152" transform="translate(5.518 8.359)">
              <g id="Grupo_2150" data-name="Grupo 2150" transform="translate(0.594 0.594)">
                <path id="Trazado_1524" data-name="Trazado 1524" d="M662.073,1541.161v0Z" transform="translate(-662.073 -1538.586)" fill="#0074ff"/>
              </g>
              <g id="Grupo_2151" data-name="Grupo 2151">
                <path id="Trazado_1525" data-name="Trazado 1525" d="M662.084,1541.766a.594.594,0,0,1-.594-.594V1538.6a.594.594,0,1,1,1.188,0v2.575A.594.594,0,0,1,662.084,1541.766Z" transform="translate(-661.49 -1538.003)" fill="#0074ff"/>
              </g>
            </g>
            <g id="Grupo_2155" data-name="Grupo 2155" transform="translate(7.548 7.476)">
              <g id="Grupo_2153" data-name="Grupo 2153" transform="translate(0.594 0.593)">
                <path id="Trazado_1526" data-name="Trazado 1526" d="M665.886,1539.54l-1.82-1.821Z" transform="translate(-664.066 -1537.719)" fill="#0074ff"/>
              </g>
              <g id="Grupo_2154" data-name="Grupo 2154">
                <path id="Trazado_1527" data-name="Trazado 1527" d="M665.9,1540.145a.592.592,0,0,1-.42-.174l-1.821-1.82a.594.594,0,1,1,.841-.841l1.82,1.821a.594.594,0,0,1-.42,1.014Z" transform="translate(-663.483 -1537.137)" fill="#0074ff"/>
              </g>
            </g>
            <g id="Grupo_2158" data-name="Grupo 2158" transform="translate(8.36 5.416)">
              <g id="Grupo_2156" data-name="Grupo 2156" transform="translate(0.594 0.594)">
                <path id="Trazado_1528" data-name="Trazado 1528" d="M667.436,1535.7h0Z" transform="translate(-664.862 -1535.698)" fill="#0074ff"/>
              </g>
              <g id="Grupo_2157" data-name="Grupo 2157">
                <path id="Trazado_1529" data-name="Trazado 1529" d="M667.447,1536.3h-2.574a.594.594,0,0,1,0-1.188h2.574a.594.594,0,0,1,0,1.188Z" transform="translate(-664.279 -1535.115)" fill="#0074ff"/>
              </g>
            </g>
            <g id="Grupo_2161" data-name="Grupo 2161" transform="translate(7.476 1.565)">
              <g id="Grupo_2159" data-name="Grupo 2159" transform="translate(0.594 0.594)">
                <path id="Trazado_1530" data-name="Trazado 1530" d="M665.815,1531.919l-1.82,1.82Z" transform="translate(-663.995 -1531.919)" fill="#0074ff"/>
              </g>
              <g id="Grupo_2160" data-name="Grupo 2160">
                <path id="Trazado_1531" data-name="Trazado 1531" d="M664.006,1534.344a.594.594,0,0,1-.42-1.014l1.82-1.821a.594.594,0,0,1,.84.841l-1.82,1.82A.592.592,0,0,1,664.006,1534.344Z" transform="translate(-663.412 -1531.336)" fill="#0074ff"/>
              </g>
            </g>
            <g id="Grupo_2164" data-name="Grupo 2164" transform="translate(5.416)">
              <g id="Grupo_2162" data-name="Grupo 2162" transform="translate(0.594 0.594)">
                <path id="Trazado_1532" data-name="Trazado 1532" d="M661.973,1530.383v0Z" transform="translate(-661.973 -1530.383)" fill="#0074ff"/>
              </g>
              <g id="Grupo_2163" data-name="Grupo 2163">
                <path id="Trazado_1533" data-name="Trazado 1533" d="M661.984,1533.562a.594.594,0,0,1-.594-.594v-2.574a.594.594,0,0,1,1.188,0v2.574A.594.594,0,0,1,661.984,1533.562Z" transform="translate(-661.39 -1529.8)" fill="#0074ff"/>
              </g>
            </g>
          </g>
          <g id="Grupo_2173" data-name="Grupo 2173" transform="translate(78.518 3.697)">
            <path id="Trazado_1539" data-name="Trazado 1539" d="M581.249,1501.642a1.455,1.455,0,1,1-1.455-1.455A1.455,1.455,0,0,1,581.249,1501.642Z" transform="translate(-578.339 -1500.187)" fill="#0074ff"/>
          </g>
          <g id="Grupo_2174" data-name="Grupo 2174" transform="translate(11.321 20.71)">
            <path id="Trazado_1540" data-name="Trazado 1540" d="M643.134,1513.813h-3.68v-3.68a.6.6,0,0,0-1.193,0v3.68h-3.679a.6.6,0,1,0,0,1.193h3.679v3.68a.6.6,0,0,0,1.193,0v-3.68h3.68a.6.6,0,1,0,0-1.193Z" transform="translate(-633.985 -1509.537)" fill="#003891"/>
          </g>
        </g>
      </g>
    </g>
    <g id="Grupo_9061" data-name="Grupo 9061" transform="translate(866.333 1024.397)">
      <path id="Trazado_1645" data-name="Trazado 1645" d="M-772.545-1021.17h-.232c-.409,0-.82.009-1.23.016l-.242.005-.243,0c-.449.007-.9.015-1.343.041-.511.028-1.035.081-1.558.155-.308.045-.62.071-.931.1l-.412.037c-.385.039-.769.1-1.153.169l-.268.046-.213.034h0l-.132.02-.133.021-.068.018,0,.006a5.281,5.281,0,0,0-.557.067c-.242.036-.48.081-.717.127-.425.085-.87.192-1.357.328-.227.064-.453.131-.68.2l-.141.042c-.176.052-.353.1-.527.169s-.322.129-.481.2l-.188.083c-.19.08-.38.16-.567.245h0c-.513.23-1.008.476-1.469.728-.167.092-.331.191-.5.29l-.24.143-.207.123c-.179.106-.358.212-.536.321a7.668,7.668,0,0,0-.693.471c-.213.165-.416.341-.619.517l-.162.141a15.788,15.788,0,0,0-1.271,1.252c-.208.227-.4.466-.6.706l-.184.225a.285.285,0,0,0-.179.086c-.1.1-.2.2-.287.311a4.034,4.034,0,0,0-.287.38,2.778,2.778,0,0,0-.154.251l-.051.09-.21.349-.123.2c-.093.151-.187.3-.267.46l-.075.154c-.058.122-.117.243-.178.364l-.045.087c-.091.174-.181.349-.263.528a6.342,6.342,0,0,0-.27.71,6.07,6.07,0,0,0-.191.777c-.055.28-.1.561-.144.843-.009.078-.02.155-.032.232l-.018.124-.036.279-.01.072c-.025.177-.054.352-.083.525-.054.331-.109.661-.142.994-.026.277-.031.555-.036.832,0,.112-.01.225-.016.337-.009.141-.018.281-.019.422-.008.474-.008.948-.007,1.422v.517c0,.2,0,.389,0,.584,0,.083.006.166.01.249l.007.166.007.18c0,.091.006.182.012.273a14.845,14.845,0,0,0,.214,1.675c.036.222.079.441.127.662a.329.329,0,0,0-.108.232,2.255,2.255,0,0,0,.031.548c.024.187.055.37.1.555.084.383.2.763.315,1.131l.032.1c.115.372.237.748.373,1.113.083.231.187.454.29.676.051.109.1.218.149.327l.047.113c.027.066.041.1.053.132l.024.059.026.064.082.2.037.086.037.069-.006,0a.293.293,0,0,0,.273.155.311.311,0,0,0,.08-.01.3.3,0,0,0,.222-.276l.1-.044.317-.151a2.786,2.786,0,0,1,.639-.208,3.211,3.211,0,0,1,.344-.018,4.155,4.155,0,0,1,.536.037,2.368,2.368,0,0,1,.476.107,1.73,1.73,0,0,1,.254.161l.089.081.059.055a.424.424,0,0,0,.2.139.348.348,0,0,0,.09.012.341.341,0,0,0,.293-.17.747.747,0,0,0,.074-.313c.006-.079.008-.148.011-.217.007-.132.007-.266.007-.4,0-.177,0-.354,0-.532,0-.375,0-.75.017-1.125l.013-.321c.005-.171.012-.343.025-.514l.027-.342c.014-.174.028-.347.04-.521s.018-.326.025-.49l.019-.391c.012-.224.029-.445.046-.667l.016-.216.023-.306c.016-.2.031-.407.049-.611.113.02.232.032.352.042l.285.023c.19.015.38.03.567.049s.4.037.6.037c.053,0,.105,0,.158,0a6.89,6.89,0,0,0,.739-.094l.109-.018.078-.014.083-.013.073-.018v.006l.158-.022c.339-.046.675-.093,1.012-.161.389-.078.775-.2,1.148-.31l.059-.018c.2-.06.4-.122.6-.189.129-.043.256-.092.382-.139l.239-.088a8.717,8.717,0,0,0,.857-.379c.126-.061.251-.122.378-.18l.216-.1.235-.106a4.406,4.406,0,0,0,.467-.254c.249-.151.488-.317.727-.482l.1-.07c.091-.062.186-.121.282-.18l.1-.059c.153-.1.306-.2.454-.306.262-.185.506-.391.75-.6.122-.1.2-.159.282-.218s.16-.12.239-.182c.146-.113.284-.228.427-.347l.1-.078c.206-.166.413-.331.611-.507.167-.148.322-.307.479-.465l.157-.158c.079-.081.161-.158.242-.237.129-.123.256-.246.376-.378a4.491,4.491,0,0,0,.328-.387c.073-.093.141-.188.21-.284l.08-.111.148-.2c.081-.11.161-.22.244-.328l.039-.052c.061-.081.122-.163.187-.242.047-.055.09-.112.133-.169l.082-.108c.045.03.1.061.149.092a2.476,2.476,0,0,1,.062.271c.01.1.012.2.014.3,0,.075,0,.15.008.225s.014.155.023.232a3.324,3.324,0,0,1,.03.438c0,.1-.011.2-.02.3-.006.067-.012.134-.016.2l0,.09c-.007.145-.015.29-.031.435l.007-.079-.014.136-.015.139.019-.078a3.336,3.336,0,0,0-.05.413,2.6,2.6,0,0,0-.017.385,4.262,4.262,0,0,0,.036.461,5.56,5.56,0,0,0,.118.565,3.138,3.138,0,0,0,.141.445,2.034,2.034,0,0,0,.21.374,1.542,1.542,0,0,0,.137.167,1.157,1.157,0,0,0,.282.21,3.673,3.673,0,0,0,.506.234,2.093,2.093,0,0,0,.246.083,2.053,2.053,0,0,0,.236.045,4.472,4.472,0,0,0,.6.049l.286,0c.134,0,.27,0,.4-.008a2.877,2.877,0,0,0,.353-.04l.078-.012c.141-.024.28-.055.419-.088.268-.064.535-.136.8-.222a6.781,6.781,0,0,0,.778-.322c.294-.139.545-.263.791-.39a4.8,4.8,0,0,0,.451-.273l.135-.088.135-.086c.081-.051.162-.1.243-.156.11-.074.212-.153.316-.232.144-.114.283-.234.421-.353a5.109,5.109,0,0,0,.426-.4c.133-.143.265-.289.392-.437l.164-.2.232-.275c.117-.134.234-.27.342-.413.08-.108.15-.219.221-.331l.062-.1a.273.273,0,0,0,.037-.1c.044.04.09.076.13.116a3.326,3.326,0,0,1,.434.6c.109.19.215.381.317.574.073.143.12.234.16.327.052.117.1.239.143.361.069.189.13.38.191.57l.045.142c.074.226.138.451.2.68.069.276.127.558.181.84l.023.113c.045.234.09.469.126.705.043.282.067.563.083.848.01.177.025.355.04.533l.015.193c.021.256.033.512.046.768.013.273.026.547.049.82s.043.563.055.846l.006.206c0,.179.009.358.03.536.029.25.075.5.12.744l.042.231a2.926,2.926,0,0,0,.137.519,4.629,4.629,0,0,0,.25.552c.059.115.095.193.13.27s.07.155.11.232a3.307,3.307,0,0,0,.316.49c.059.076.119.152.179.227.083.1.166.207.244.313a.307.307,0,0,0,.1.192,1.506,1.506,0,0,1,.164.259.322.322,0,0,0,.168.168.318.318,0,0,0,.12.024.3.3,0,0,0,.119-.024.329.329,0,0,0,.194-.309,1.489,1.489,0,0,0,.2-.117c.136-.086.274-.169.418-.243a3.246,3.246,0,0,1,.624-.219,1.718,1.718,0,0,1,.273-.021l.1,0a2.179,2.179,0,0,1,.428.079c.081.031.161.066.24.1s.16.07.242.1l.078.033a.6.6,0,0,0,.245.07.6.6,0,0,0,.457-.259,2.542,2.542,0,0,0,.373-.773c.04-.118.076-.237.112-.355.041-.136.082-.273.13-.407.075-.22.139-.443.2-.666l.1-.334c.037-.132.076-.261.115-.39l.074-.248c.043-.153.083-.306.123-.461l.03-.115.068-.269c.071-.271.141-.542.19-.821.082-.479.137-.907.167-1.307v.006c.031-.4.051-.8.07-1.206l.014-.285c.011-.2.018-.4.024-.6l.007-.2c0-.11.01-.221.016-.331.009-.153.017-.308.02-.462,0-.109,0-.218,0-.328v-.516c0-.26-.017-.52-.031-.781-.029-.547-.062-1.092-.1-1.636a9.56,9.56,0,0,0-.136-1.13c-.023-.133-.054-.264-.086-.394l-.041-.177q-.054-.229-.1-.459l-.065-.362-.066-.355,0,.084a11.794,11.794,0,0,0-.325-1.426c-.067-.227-.138-.454-.219-.676a5.788,5.788,0,0,0-.309-.686c-.11-.213-.229-.418-.356-.624l-.037-.062c-.109-.18-.218-.359-.341-.533a4.16,4.16,0,0,0-.529-.6,2.192,2.192,0,0,0-.314-.244,2.71,2.71,0,0,0-.285-.155l-.162-.081-.32-.159c-.155-.079-.272-.139-.394-.191a4.458,4.458,0,0,0-.426-.143c-.1-.028-.205-.062-.307-.095l-.18-.058a2.6,2.6,0,0,0-.426-.1,2.4,2.4,0,0,0-.326-.02c-.091,0-.181,0-.272.01l-.24.018-.24.018c-.076-.084-.158-.171-.244-.254l-.035-.17a3.2,3.2,0,0,0,.01-.39l0-.107a3.584,3.584,0,0,0-.043-.5,2.711,2.711,0,0,0-.079-.309,2.966,2.966,0,0,0-.163-.417,3.677,3.677,0,0,0-.473-.648l-.042-.048a3.371,3.371,0,0,0-.5-.489c-.237-.186-.478-.363-.731-.53a3.9,3.9,0,0,0-.388-.211,3.6,3.6,0,0,0-.44-.179l-.362-.126c-.154-.053-.307-.107-.46-.163-.586-.213-1.122-.382-1.64-.515-.131-.035-.263-.065-.4-.1s-.265-.061-.4-.1c-.162-.042-.321-.092-.481-.144-.107-.034-.213-.068-.322-.1a9.138,9.138,0,0,0-1.067-.229c-.175-.031-.35-.061-.524-.1a11.815,11.815,0,0,0-1.7-.234c-.18-.011-.361-.02-.54-.029l-.27-.014c-.282-.019-.564-.029-.846-.031" transform="translate(-54.152 -2.294)" fill="#a7bf30"/>
      <path id="Trazado_1646" data-name="Trazado 1646" d="M-796.319-496.217a1.057,1.057,0,0,0-.089.143l-.045.076a1.446,1.446,0,0,1-.146.153c-.084.079-.131.124-.177.173l-.139.136a2.606,2.606,0,0,0-.38.418c-.064.091-.124.182-.184.275l-.133.2c-.174.241-.356.476-.552.7-.129.148-.267.284-.409.42-.093.093-.188.186-.282.284-.117.122-.231.246-.339.375l-.086.105c-.055.071-.112.141-.172.21s-.122.129-.187.191l-.109.108a2.137,2.137,0,0,0-.261.342,3.279,3.279,0,0,0-.191.322,2.12,2.12,0,0,0-.143.456,2.309,2.309,0,0,0-.069.564l0,.131.007.129v.067a.718.718,0,0,1,.05-.131.573.573,0,0,1,.463-.277c.174-.022.346-.043.521-.048.078,0,.155,0,.234,0l.263,0h.1l.3,0c.1,0,.2,0,.3,0l.262,0c.174,0,.349-.009.521-.017l.437-.016.425-.017c.184-.007.368-.009.554-.009l.136,0h.141c.1,0,.2,0,.292.009.112,0,.222.01.332.01.064,0,.131,0,.213-.007a.28.28,0,0,1,.2.089.333.333,0,0,1,.1.227.417.417,0,0,1-.084.229l.168.127c.2.153.4.3.6.468l.115.1c.067.057.134.112.2.174a.8.8,0,0,1,.184.239.451.451,0,0,1,.038.291q.395.3.781.614a5.634,5.634,0,0,1,.633.607c.093.1.179.2.267.3l.06.07c.055.064.11.127.165.186l.124.141.009.009a0,0,0,0,0,0,0v0a3.932,3.932,0,0,1,.247.325l.081.129a.428.428,0,0,0,.37.205.709.709,0,0,0,.418-.184,2.451,2.451,0,0,0,.31-.3c.194-.21.382-.418.569-.633l.134-.148.132-.15a3.981,3.981,0,0,1,.286-.287,4.937,4.937,0,0,0,.473-.5c.1-.122.208-.237.315-.353.072-.076.144-.155.213-.234s.131-.15.2-.227a4.565,4.565,0,0,1,.368-.408l.053-.058,0,.005c.151.112.3.227.446.346.024.021.048.043.075.065l-.065-.081a.874.874,0,0,1-.167-.308.365.365,0,0,1,.119-.377c.043-.031.084-.058.148-.1l.074-.05.223-.148.078-.055a1.246,1.246,0,0,1,.184-.117,2.609,2.609,0,0,1,.349-.143.235.235,0,0,1,.081-.016.575.575,0,0,1,.242.079.663.663,0,0,1,.071,0l.1.007.1,0c.163.009.323.016.485.024l.12.01c.076,0,.153.009.229.012l.131,0c.117,0,.236,0,.356-.012.236-.014.475-.026.712-.033.169,0,.336,0,.5,0l.253,0c.172,0,.342-.01.514-.019l.229-.015.1,0c.182-.009.358-.017.54-.033l.183-.031a.378.378,0,0,1,.074-.007.309.309,0,0,1,.306.229.32.32,0,0,1-.038.246l0,0,.071.052c.084.074.17.148.258.22l.115.09c.048.038.1.075.153.122a1.064,1.064,0,0,1,.215.236.58.58,0,0,1,.086.313.426.426,0,0,1-.06.218,1.262,1.262,0,0,1-.114.143c-.034.048-.067.093-.1.139.122-.11.241-.225.358-.342l.129-.131c.088.074.179.155.27.239.167.158.33.317.492.482s.306.325.454.492l.067.075c.079.083.158.167.237.248l.079.084c.079.081.153.164.227.251l.012.014,0,0,.15.179c.086.108.174.215.265.318l.112.124.11.124.057.064a.368.368,0,0,0,.176.094l.052,0a.431.431,0,0,0,.168-.028.7.7,0,0,0,.256-.2c.081-.088.153-.184.227-.277s.131-.169.2-.248c.086-.1.179-.193.272-.287l.129-.131c.107-.109.208-.227.306-.344l.1-.117.07-.081c.231-.273.47-.555.726-.812.105-.105.213-.205.325-.306l.205.062a1.091,1.091,0,0,1,.108.058,3.543,3.543,0,0,1,.3.251c.12.113.234.227.349.344l.1.1.318.317.2.2-.078-.083-.2-.213c-.064-.071-.129-.143-.191-.215l-.115-.129-.069-.076c-.064-.07-.127-.139-.184-.21a.893.893,0,0,1-.251-.5.506.506,0,0,1,.09-.3,2.8,2.8,0,0,1,.342-.4c.067-.069.134-.136.2-.21a.945.945,0,0,1,.4-.293,2.659,2.659,0,0,1,.311-.079,3.9,3.9,0,0,1,.9-.07c.136,0,.275,0,.411-.009l.234-.01c.206-.009.411-.021.616-.021h.888l.117,0h.117c.212,0,.427,0,.643-.024l.076,0a1.858,1.858,0,0,1,.2-.014.609.609,0,0,1,.158.016.443.443,0,0,1,.224.117.73.73,0,0,1,.071.091l.1.129c.045.057.09.114.136.174s.1.141.151.213c.064.088.127.178.193.262l.074.094c.076.1.153.191.222.286a.263.263,0,0,1,.043.177c.127.084.248.162.368.246a2.869,2.869,0,0,1,.482.425c.075.093.141.189.208.287s.117.167.179.248l.124.158c.081.105.165.208.242.315.191.254.349.461.516.66a1.459,1.459,0,0,0,.188.183.9.9,0,0,0,.382.225.442.442,0,0,0,.094.009.812.812,0,0,0,.3-.069,1.054,1.054,0,0,0,.37-.258,2.309,2.309,0,0,0,.292-.38l.04-.062.129-.169c.052-.069.105-.136.155-.208a2.678,2.678,0,0,0,.177-.287c.039-.064.074-.131.115-.193.067-.086.141-.167.212-.251a3.621,3.621,0,0,0,.273-.335c.069-.1.138-.189.215-.279.041-.048.084-.093.127-.136a.615.615,0,0,0,.05.251,2.662,2.662,0,0,0,.256.459,2.8,2.8,0,0,0,.335.382l.1.1.094.1.091.1c.081.084.169.162.258.238.155.136.3.275.446.421l.067.067a5.064,5.064,0,0,0,.37.351l.113.093c.072.06.146.119.213.184.05.048.1.1.143.15l.067.074a.283.283,0,0,0,.2.081.322.322,0,0,0,.239-.1.346.346,0,0,0,.055-.079.3.3,0,0,0,.05-.146,9.83,9.83,0,0,0-.021-.986v-.038c0-.158,0-.318-.007-.478,0-.136,0-.275,0-.413-.01-.292-.034-.6-.074-.92-.036-.3-.067-.569-.09-.843s-.048-.566-.086-.848c-.055-.427-.1-.855-.151-1.283l-.06-.552c-.019-.172-.045-.344-.071-.516l-.045-.3-.039-.272-.069-.485c-.019-.146-.039-.293-.055-.44l-.024-.21a.433.433,0,0,0,.119-.229.275.275,0,0,0-.048-.21c-.048-.067-.088-.139-.129-.21s-.067-.117-.105-.174a.809.809,0,0,0-.229-.227.319.319,0,0,0-.172-.048.376.376,0,0,0-.237.083c-.069.06-.136.122-.2.184l-.131.122a3.643,3.643,0,0,0-.27.268,2.611,2.611,0,0,0-.205.248l-.041.05-.177.22-.076.1-.093.119c-.069.09-.141.182-.217.268-.134.15-.242.272-.34.4a2.876,2.876,0,0,0-.177.262l-.084.127c-.057.079-.119.153-.183.229s-.117.139-.172.213c-.1.143-.2.292-.293.442l-.006.008c.253.295.459.555.648.811a1.62,1.62,0,0,0,.148.167,1.54,1.54,0,0,0,.164.141,1.728,1.728,0,0,0,.26.168.279.279,0,0,1,.141.179.314.314,0,0,1-.029.246.31.31,0,0,1-.27.153.328.328,0,0,1-.157-.04,2.2,2.2,0,0,1-.284-.189.3.3,0,0,1-.16.048c-.165,0-.327,0-.492.012-.256.009-.511.009-.767.009-.354,0-.707.015-1.063.029l-.533.022c-.263.007-.525.021-.788.035-.308.017-.619.034-.931.043-.115,0-.227,0-.339,0h-.143c-.072,0-.144,0-.225-.014a1.649,1.649,0,0,1-.284-.039.392.392,0,0,1-.311-.262.386.386,0,0,1,.048-.284,1.013,1.013,0,0,1,.122-.179,2.6,2.6,0,0,1,.206-.2l.079-.072c.05-.045.1-.093.143-.141l.045-.05.07-.071c.055-.057.112-.118.164-.179.07-.079.134-.163.2-.244l.155-.191c.06-.067.12-.136.181-.2.079-.089.16-.177.237-.273l.105-.143c.058-.081.117-.163.179-.239l.114-.138.113-.139c.072-.093.141-.191.205-.289l.09-.144c.05-.083.1-.164.182-.279a1.292,1.292,0,0,1,.33-.361.417.417,0,0,1,.227-.067.352.352,0,0,1,.265.113,2.794,2.794,0,0,1,.256.351c.045.069.091.138.138.2.076.1.16.188.244.279l.136.148c.109.123.218.245.334.36l-.047-.059c-.05-.067-.1-.136-.145-.2l-.062-.088c-.076-.108-.157-.21-.238-.31-.058-.072-.115-.143-.17-.215l-.1-.143a1.994,1.994,0,0,0-.253-.318.923.923,0,0,0-.151-.117.518.518,0,0,0-.158-.066.271.271,0,0,0-.09-.015.7.7,0,0,0-.134.019.483.483,0,0,0-.224.151l-.048.057-.05.06c-.05.062-.105.122-.158.182l-.072.079a3.073,3.073,0,0,0-.205.274l-.036.053a2.917,2.917,0,0,1-.224.263l-.1.112c-.069.079-.138.16-.205.242-.091.107-.179.215-.277.317a3.157,3.157,0,0,0-.243.282c-.067.091-.134.182-.205.268a6.783,6.783,0,0,1-.495.537c-.057-.062-.122-.129-.182-.194-.064-.081-.127-.165-.186-.248l-.094-.124-.227-.3-.229-.3c-.143-.193-.289-.386-.44-.575-.1-.131-.219-.258-.334-.385-.07-.076-.139-.15-.206-.227-.1-.124-.2-.251-.292-.387s-.186-.239-.284-.356c-.253-.293-.49-.547-.731-.8a.287.287,0,0,0-.2-.079.337.337,0,0,0-.239.1.3.3,0,0,0-.076.231l-.169.191c-.079.091-.163.177-.248.263s-.146.148-.218.227c-.155.174-.311.348-.456.528-.088.112-.169.229-.248.349l-.067.1a2.792,2.792,0,0,1-.2.243c-.045.05-.088.1-.132.153-.062.076-.122.155-.181.234-.091.122-.184.243-.284.358s-.182.215-.27.325c-.074.09-.146.182-.222.27a3.936,3.936,0,0,1-.275.289l-.05.048-.155.15a2.484,2.484,0,0,0-.174-.227l-.043-.045,0,0-.12-.16-.052-.06c-.131-.157-.265-.315-.4-.475l-.077-.089-.055-.064c-.083-.1-.136-.172-.186-.243l-.122-.163-.124-.153c-.057-.069-.114-.139-.169-.208l-.084-.105c-.093-.114-.184-.229-.284-.341l-.136-.153-.208-.232c-.069-.086-.108-.131-.145-.172-.02-.021-.041-.04-.062-.059a.432.432,0,0,0-.2-.1c-.026,0-.05,0-.074,0a.484.484,0,0,0-.11.014.355.355,0,0,0-.16.108.815.815,0,0,0-.09.107c-.029.04-.057.084-.084.124a1.77,1.77,0,0,1,.306-.251.263.263,0,0,1,.146-.045.338.338,0,0,1,.28.158.451.451,0,0,1,.045.267l.079.09c.072.086.145.168.219.249l.055.059a1.721,1.721,0,0,0,.21.2l.09.076c.079.074.15.15.255.266.141.153.28.311.409.475.113.144.218.289.322.437.089.122.177.244.268.363a6.453,6.453,0,0,0,.442.5,5.361,5.361,0,0,0,.413.4,1.6,1.6,0,0,0,.15.1.714.714,0,0,1,.139.1.318.318,0,0,1,.048.377.351.351,0,0,1-.351.163h-.076c-.081,0-.165-.01-.248-.017l-.227-.021-.237-.019-.337-.021-.337-.019c-.241-.017-.483-.031-.723-.031l-.11,0c-.265,0-.528.021-.793.043-.308.021-.619.034-.927.045-.191.007-.382.015-.573.026s-.392.015-.59.015h-.16l-.191,0-.193,0-.1,0-.062,0-.153,0a.728.728,0,0,1-.144-.022.4.4,0,0,1-.148-.088.314.314,0,0,1-.048-.377.766.766,0,0,1,.219-.222,2.047,2.047,0,0,0,.223-.21c.074-.1.146-.205.212-.313l.057-.1a2.912,2.912,0,0,1,.187-.3,3,3,0,0,1,.284-.334l.081-.089c.1-.112.2-.229.3-.348.038-.05.076-.1.117-.15-.067.069-.136.133-.206.2h0c-.164.139-.33.277-.485.425l-.162.158c-.076.079-.153.155-.232.227l-.055-.038-.05-.045a3.316,3.316,0,0,1-.311-.3c-.067-.079-.129-.164-.193-.248-.15-.2-.275-.339-.4-.48-.172-.2-.31-.356-.449-.509l-.289-.325-.186-.227c-.17-.2-.3-.375-.432-.549-.146-.186-.3-.366-.452-.542a2.446,2.446,0,0,1-.208-.327.3.3,0,0,0-.26-.139.294.294,0,0,0-.079.01.258.258,0,0,0-.062-.007.318.318,0,0,0-.279.17l-.167.219c-.11.141-.223.284-.326.432-.217.308-.465.6-.7.886l-.177.21-.067.079c-.144.172-.292.344-.43.523a4.682,4.682,0,0,1-.432.507c-.17.165-.339.33-.5.5-.114.122-.217.256-.322.389l-.144.179a3,3,0,0,1-.234.253,1.924,1.924,0,0,1-.358-.332l-.153-.186c-.11-.131-.218-.263-.335-.385l-.122-.124c-.07-.072-.141-.143-.208-.218-.1-.1-.186-.2-.274-.307-.122-.144-.215-.263-.3-.387l-.052-.084-.091-.134c-.06-.088-.127-.172-.193-.258l-.113-.138c-.045-.052-.088-.108-.131-.163q-.107-.147-.2-.3a3.9,3.9,0,0,0-.372-.485h0l-.041-.05a.451.451,0,0,0-.256-.172.364.364,0,0,0-.074-.007.431.431,0,0,0-.306.143c-.06.065-.114.136-.169.208l-.108.134c-.112.136-.232.27-.351.4-.064.071-.129.144-.191.218a2.215,2.215,0,0,0-.182.248s-.039.052-.039.052c-.066.091-.134.177-.208.263-.045.052-.093.1-.14.15-.067.072-.134.143-.2.219s-.1.129-.141.193-.1.141-.153.208a4.207,4.207,0,0,1-.406.428l-.1-.02-.081-.083c-.105-.105-.208-.21-.3-.32-.072-.088-.141-.179-.208-.27l-.091-.115c-.125-.16-.253-.311-.384-.464-.084-.1-.206-.233-.33-.372l-.208-.234c-.043-.053-.084-.108-.124-.159s-.084-.108-.127-.16c-.091-.115-.184-.229-.277-.342l-.222-.28c-.083-.107-.167-.213-.256-.317s-.153-.189-.222-.289a.749.749,0,0,0-.284-.282.391.391,0,0,0-.188-.045.35.35,0,0,0-.292.148" transform="translate(-49.999 -447.625)" fill="#7fcd31"/>
      <path id="Trazado_1647" data-name="Trazado 1647" d="M-585.742-446.731l-.2.215-.05.071a3.905,3.905,0,0,1-.263.322l-.117.124c-.05.057-.1.112-.153.167s-.067.114-.1.172a1.688,1.688,0,0,1-.136.227l-.044.06c.147-.148.28-.285.4-.429.069-.078.138-.153.21-.229.089-.1.177-.188.258-.289.124-.15.239-.308.349-.468.055-.072.111-.144.17-.212a.223.223,0,0,1-.084-.017c-.079.1-.164.191-.248.284" transform="translate(-231.261 -489.501)" fill="#81a07b"/>
      <path id="Trazado_1648" data-name="Trazado 1648" d="M-608.791-434.541c.045.067.089.136.136.2a5.949,5.949,0,0,0,.391.482c.151.172.316.332.48.492.057.055.112.114.165.174l.052.06a.3.3,0,0,0,.114.1.431.431,0,0,0,.165.04.455.455,0,0,0,.2-.06,1.928,1.928,0,0,0,.347-.293c.106-.106.2-.21.281-.31-.048.042-.1.085-.155.131-.1.079-.194.153-.3.222a1,1,0,0,1-.308.167.47.47,0,0,1-.124.019.352.352,0,0,1-.31-.172c-.052-.081-.1-.163-.165-.244l-.04-.048-.041-.045c-.069-.074-.14-.144-.215-.213s-.125-.119-.184-.179c-.072-.076-.139-.158-.206-.237a3.594,3.594,0,0,0-.27-.3l-.052-.052Z" transform="translate(-212.568 -500.036)" fill="#81a07b"/>
      <path id="Trazado_1649" data-name="Trazado 1649" d="M-802.325-451.438a.335.335,0,0,0-.079.248.256.256,0,0,0,.1.191c.1.077.2.158.3.24a.792.792,0,0,1-.089-.188,1.014,1.014,0,0,1-.047-.229,2.22,2.22,0,0,1-.015-.313l0-.044a.29.29,0,0,0-.176.094" transform="translate(-48.307 -485.668)" fill="#81a07b"/>
      <path id="Trazado_1650" data-name="Trazado 1650" d="M-778.791-424.4a.581.581,0,0,1-.322.124h0a.5.5,0,0,1-.261-.1.8.8,0,0,1-.114-.1l-.081-.1.024.04.05.086.055.081a.361.361,0,0,0,.3.16.862.862,0,0,0,.523-.31l.063-.069a2.378,2.378,0,0,1-.229.183" transform="translate(-67.681 -508.535)" fill="#81a07b"/>
      <path id="Trazado_1651" data-name="Trazado 1651" d="M-796.235-459.342c-.187,0-.37,0-.555.01l-.426.017-.436.016c-.173.007-.347.011-.52.015l-.263.006c-.1,0-.2,0-.3,0l-.3,0h-.1l-.263,0c-.078,0-.156,0-.234,0-.174.005-.345.026-.519.047a.575.575,0,0,0-.465.277,1.17,1.17,0,0,0-.1.472c-.009.125-.01.2-.011.284l0,.08a2.187,2.187,0,0,0,.015.314,1.046,1.046,0,0,0,.045.229.981.981,0,0,0,.269.4c.106.1.223.2.339.289.064.052.128.1.19.155a3.748,3.748,0,0,1,.361.377c.051.06.1.119.157.177s.107.116.162.173l.081.086.1.109.1.11c.054.06.111.118.168.177.09.093.18.187.262.287s.158.21.234.306a1.671,1.671,0,0,0,.147.156c.04.039.079.077.116.119l.087.117c.062.085.123.169.19.251l.132.157.133.158a.745.745,0,0,0,.114.1.5.5,0,0,0,.26.1h.007a.585.585,0,0,0,.322-.123,2.68,2.68,0,0,0,.257-.211,3.816,3.816,0,0,0,.549-.676l.149-.211-.057.052c.081-.083.152-.174.229-.26s.147-.15.224-.223a5.112,5.112,0,0,0,.4-.443l.079-.094a4.479,4.479,0,0,1,.345-.347l.089-.085a3.15,3.15,0,0,0,.294-.33,1.41,1.41,0,0,1,.164-.174l.076-.065c.032-.026.064-.052.093-.081a.934.934,0,0,0,.168-.219.382.382,0,0,0,.056-.126.452.452,0,0,0-.036-.3.83.83,0,0,0-.185-.238,2.282,2.282,0,0,0-.2-.174l-.114-.1c-.193-.164-.394-.316-.6-.468l-.168-.127a.4.4,0,0,0,.083-.229.327.327,0,0,0-.095-.228.278.278,0,0,0-.2-.088c-.082,0-.147.007-.212.007-.111,0-.221,0-.332-.009s-.2-.008-.292-.008h-.277Z" transform="translate(-49.735 -479.041)" fill="#003580"/>
      <path id="Trazado_1652" data-name="Trazado 1652" d="M-753.253-490.486a2.583,2.583,0,0,0-.413.323,2.939,2.939,0,0,0-.213.246c-.126.151-.241.311-.36.47-.143.183-.291.361-.435.541-.164.208-.322.421-.479.632a5.336,5.336,0,0,1-.546.588c-.192.177-.382.356-.566.537s-.325.353-.487.528c-.04.045-.084.088-.127.133a1.139,1.139,0,0,0-.093.12.372.372,0,0,0-.057.3.432.432,0,0,0,.086.153.386.386,0,0,0,.086.071.536.536,0,0,0,.248.072,2.838,2.838,0,0,0,.5,0c.289-.019.576-.033.862-.05a15.479,15.479,0,0,0,1.789-.2l.233-.044a4.414,4.414,0,0,1,.753-.03c.251.015.507.021.757.05s.506.067.762.081c.194.012.387.024.578.04a1.432,1.432,0,0,0,.394.012.315.315,0,0,0,.222-.224.382.382,0,0,0-.1-.347c-.094-.105-.194-.205-.289-.306-.165-.177-.313-.367-.477-.54a6.955,6.955,0,0,1-.484-.582l-.111-.152a.392.392,0,0,0,0-.142.48.48,0,0,0-.189-.275c-.057-.053-.112-.1-.172-.15-.082-.068-.164-.133-.249-.2l-.023-.028.014.019-.016-.022c-.006-.007-.012-.014-.017-.022l.011.014c-.1-.135-.2-.273-.3-.407a3.771,3.771,0,0,0-.322-.353c-.1-.1-.194-.2-.3-.292-.029-.026-.057-.053-.088-.076l-.014-.01a.3.3,0,0,0,.05-.369.319.319,0,0,0-.27-.152.269.269,0,0,0-.147.042m-1.9,2.213-.024.032.024-.032m-.1,1.009.013.018-.036,0,.023-.022m4.4.588.095.111-.176-.012a.3.3,0,0,0,.008-.036.325.325,0,0,0,.074-.064m-1-2.183,0,0-.008-.011.006.008" transform="translate(-86.801 -452.578)" fill="#003580"/>
      <path id="Trazado_1653" data-name="Trazado 1653" d="M-719.717-468.024c-.093.02-.184.041-.277.06a1.569,1.569,0,0,0-.213.05.324.324,0,0,0-.217.215.307.307,0,0,0,.079.3c.026.021.053.043.081.062a.434.434,0,0,0,.155.048c.061.013.124.02.186.027a.3.3,0,0,0,.074.121.308.308,0,0,0,.432,0,.453.453,0,0,0,.129-.275.355.355,0,0,0-.057-.24.309.309,0,0,0,0-.149.3.3,0,0,0-.3-.224.35.35,0,0,0-.071.007m-.308.134h0" transform="translate(-117.864 -471.668)" fill="#003580"/>
      <path id="Trazado_1654" data-name="Trazado 1654" d="M-704.8-458.917a.363.363,0,0,0-.073.007l-.186.031c-.18.016-.358.024-.538.031l-.1,0-.23.014c-.171.01-.341.02-.513.02h-.253c-.167,0-.336,0-.5.006-.237.007-.476.02-.712.034-.119.007-.238.012-.356.012l-.13,0c-.077,0-.153-.009-.23-.014l-.119-.008c-.162-.007-.322-.015-.485-.024l-.1-.006-.1-.006a.693.693,0,0,0-.073,0,.556.556,0,0,0-.241-.079.233.233,0,0,0-.081.015,2.51,2.51,0,0,0-.35.143,1.23,1.23,0,0,0-.184.117l-.079.055-.221.148-.076.051c-.064.042-.105.069-.146.1a.369.369,0,0,0-.122.377.9.9,0,0,0,.169.308l.079.1.08.1.022.023,0,0,0,.01.015.017-.005,0,.087.12.087.119c.054.067.112.129.17.191l.058.062c.146.158.294.315.441.471.092.094.149.153.2.215l.07.086.1.119a2.923,2.923,0,0,0,.237.251c.045.042.092.082.138.121l.113.1a5.679,5.679,0,0,1,.465.475c.062.068.125.135.188.2s.147.156.218.236c.144.16.279.328.411.494.041.057.078.115.116.173l.079.12a.744.744,0,0,0,.217.236.43.43,0,0,0,.21.061h0a.508.508,0,0,0,.321-.139l.109-.095c.075-.064.148-.128.225-.19.122-.1.242-.2.357-.3a2.391,2.391,0,0,0,.406-.565c.065-.113.13-.226.206-.331.172-.207.359-.4.548-.591l.187-.192a2.129,2.129,0,0,0,.3-.415l.034-.057c.047-.083.093-.163.147-.24s.122-.146.188-.215a2.217,2.217,0,0,0,.183-.232,1.687,1.687,0,0,0,.114-.144.418.418,0,0,0,.059-.218.58.58,0,0,0-.085-.314,1.055,1.055,0,0,0-.217-.234c-.055-.048-.1-.085-.152-.122l-.116-.092c-.088-.072-.174-.146-.257-.22l-.071-.053,0,0a.323.323,0,0,0,.039-.246.311.311,0,0,0-.307-.229" transform="translate(-125.862 -479.402)" fill="#003580"/>
      <path id="Trazado_1655" data-name="Trazado 1655" d="M-663.5-488.094a.266.266,0,0,0-.147.044,1.642,1.642,0,0,0-.352.3,2.859,2.859,0,0,0-.18.237c-.09.131-.181.262-.274.391-.088.111-.184.212-.281.313l-.1.11c-.143.153-.273.318-.4.482-.1.119-.2.236-.3.348l-.082.089a3.514,3.514,0,0,0-.284.332c-.069.1-.128.2-.187.3l-.057.1c-.067.108-.138.21-.212.312a1.88,1.88,0,0,1-.221.212.8.8,0,0,0-.221.221.315.315,0,0,0,.049.378.386.386,0,0,0,.148.09.907.907,0,0,0,.143.019h.153l.062,0h.48l.161,0c.2,0,.392-.006.589-.016s.381-.017.572-.024c.31-.012.619-.024.929-.047.265-.021.527-.039.792-.043h.109c.242,0,.484.014.724.029l.338.021.336.02.237.021.226.02c.083.008.167.015.248.017h.076a.352.352,0,0,0,.353-.163.314.314,0,0,0-.049-.377.654.654,0,0,0-.138-.1,1.413,1.413,0,0,1-.15-.1,5.019,5.019,0,0,1-.414-.4,6.031,6.031,0,0,1-.442-.5c-.092-.12-.179-.242-.267-.364-.106-.147-.211-.293-.323-.436-.129-.165-.268-.323-.409-.476-.1-.114-.177-.193-.256-.265l-.091-.077a1.687,1.687,0,0,1-.21-.2l-.054-.059c-.075-.082-.15-.164-.221-.248l-.079-.091a.461.461,0,0,0-.045-.269.342.342,0,0,0-.28-.156" transform="translate(-163.342 -454.643)" fill="#003580"/>
      <path id="Trazado_1656" data-name="Trazado 1656" d="M-615.606-459.137a1.934,1.934,0,0,0-.2.013l-.076.006c-.213.02-.428.022-.643.022h-1.122c-.206,0-.411.01-.617.021l-.234.011c-.136.007-.273.007-.41.008a4.042,4.042,0,0,0-.9.069c-.143.033-.228.051-.311.079a.942.942,0,0,0-.4.3c-.063.072-.129.141-.2.208a2.849,2.849,0,0,0-.342.4.505.505,0,0,0-.089.3.874.874,0,0,0,.25.5c.058.073.12.142.184.21l.07.076.115.13c.062.072.125.144.191.214l.2.214c.124.133.249.267.365.409a7.081,7.081,0,0,0,.547.586,3.855,3.855,0,0,1,.27.3c.067.08.134.16.205.237.059.061.122.12.184.178s.147.139.215.213l.041.046.04.047c.059.083.112.165.164.245a.357.357,0,0,0,.311.171.436.436,0,0,0,.124-.018,1.038,1.038,0,0,0,.31-.168c.1-.07.2-.144.294-.223a2.528,2.528,0,0,0,.28-.254,2.863,2.863,0,0,0,.261-.328l.087-.125q.053-.079.109-.155c.057-.072.118-.141.179-.208a3.586,3.586,0,0,0,.253-.308,1.787,1.787,0,0,0,.136-.227c.031-.059.062-.117.1-.172s.1-.111.153-.167l.116-.126a3.519,3.519,0,0,0,.262-.322l.051-.07.2-.216c.085-.094.17-.187.249-.286a.236.236,0,0,0,.092.018.3.3,0,0,0,.155-.043.307.307,0,0,0,.144-.185.292.292,0,0,0-.032-.242c-.07-.1-.146-.193-.223-.288l-.074-.092c-.067-.085-.13-.175-.193-.265-.049-.071-.1-.141-.15-.211s-.09-.118-.136-.176l-.1-.128a.886.886,0,0,0-.072-.091.442.442,0,0,0-.226-.119.675.675,0,0,0-.156-.015" transform="translate(-202.12 -479.215)" fill="#003580"/>
      <path id="Trazado_1657" data-name="Trazado 1657" d="M-581.279-487.48a.419.419,0,0,0-.228.066,1.309,1.309,0,0,0-.329.361c-.08.115-.131.2-.182.279l-.091.143c-.064.1-.133.2-.2.29l-.114.139-.114.138c-.062.076-.12.157-.179.238l-.105.144c-.076.094-.157.183-.238.272-.061.067-.122.135-.18.2l-.156.191c-.066.081-.132.163-.2.244-.053.061-.11.12-.166.179l-.068.071-.047.049c-.046.049-.092.1-.142.142l-.081.073a2.393,2.393,0,0,0-.2.2,1.063,1.063,0,0,0-.122.178.4.4,0,0,0-.049.284.406.406,0,0,0,.313.265,1.73,1.73,0,0,0,.284.037c.08.008.152.01.224.013l.143,0c.113,0,.226,0,.339-.007.313-.008.624-.024.934-.042.262-.014.525-.028.787-.037l.533-.02c.354-.014.708-.028,1.062-.03.256,0,.512,0,.767-.01.164-.007.327-.009.492-.012a.311.311,0,0,0,.161-.046,2.094,2.094,0,0,0,.283.189.336.336,0,0,0,.158.04.311.311,0,0,0,.271-.152.321.321,0,0,0,.028-.246.292.292,0,0,0-.141-.18A1.89,1.89,0,0,1-578.1-484a1.628,1.628,0,0,1-.164-.141,1.624,1.624,0,0,1-.148-.167c-.207-.282-.437-.568-.726-.9l-.161-.186-.161-.187c-.108-.124-.227-.237-.347-.349-.152-.143-.293-.3-.432-.455l-.135-.15c-.084-.091-.167-.182-.245-.278-.048-.067-.093-.135-.137-.2a2.838,2.838,0,0,0-.257-.351.352.352,0,0,0-.265-.112" transform="translate(-233.225 -455.164)" fill="#003580"/>
      <path id="Trazado_1658" data-name="Trazado 1658" d="M-537.849-459.075c-.026,0-.053,0-.081.007s-.076.01-.115.014a.516.516,0,0,0-.124.05.627.627,0,0,0-.134.1.63.63,0,0,0-.059.057c-.048.05-.1.1-.141.158-.174.21-.37.4-.554.6-.107.113-.207.233-.3.356l0,0a.062.062,0,0,0-.008.01l-.04.051.006-.007a1.322,1.322,0,0,0-.1.141.67.67,0,0,0-.071.177.6.6,0,0,0,.06.411,2.418,2.418,0,0,0,.289.463,4.065,4.065,0,0,0,.4.411,3.884,3.884,0,0,1,.372.4,4.544,4.544,0,0,0,.377.389c.127.12.249.244.371.371.086.09.172.179.25.275s.138.2.216.3a.328.328,0,0,0,.482.031.759.759,0,0,0,.146-.464,4.007,4.007,0,0,0-.036-.865c-.031-.251-.035-.506-.059-.757s-.048-.511-.074-.764a6.157,6.157,0,0,0-.141-.786c-.031-.134-.06-.27-.1-.4l0-.009a.227.227,0,0,0,.029-.015.307.307,0,0,0,.141-.181.317.317,0,0,0-.031-.237.34.34,0,0,0-.184-.141,1.712,1.712,0,0,0-.471-.133c-.089-.009-.178-.015-.268-.015h-.04m1.07,4.337.021.029-.021-.029" transform="translate(-271.326 -479.267)" fill="#003580"/>
      <path id="Trazado_1659" data-name="Trazado 1659" d="M-722.638-663.858a.391.391,0,0,0-.127.02.537.537,0,0,0-.217.159.767.767,0,0,0-.144.22.3.3,0,0,0-.095-.014.322.322,0,0,0-.233.1.324.324,0,0,0,.014.45l.048.043a2.664,2.664,0,0,1,.224.221c.141.179.275.365.408.552l.074.1q.247.348.5.688a11.5,11.5,0,0,0,1.1,1.25A19.611,19.611,0,0,0-718.6-658a13.352,13.352,0,0,0,1.355.844,8.713,8.713,0,0,0,.8.394,6.228,6.228,0,0,0,.808.284c.241.069.487.114.734.16l.076.014c.275.053.552.1.829.134l.078.01a6.209,6.209,0,0,0,.811.072,6.524,6.524,0,0,0,.846-.052l.246-.034.121-.016c.138-.018.278-.037.414-.061a7.491,7.491,0,0,0,.844-.189c.279-.079.559-.16.837-.253a5.851,5.851,0,0,0,.855-.393,9.856,9.856,0,0,0,1.427-.879c.428-.332.855-.666,1.278-1.005.243-.191.44-.347.624-.516.1-.094.2-.192.295-.291l.073-.073.074-.071c.17-.167.33-.344.486-.524.072-.086.141-.177.208-.268s.135-.183.2-.265c.084-.1.17-.2.258-.293l.124-.139.122-.145c.084-.1.143-.17.207-.234l.048-.048.1-.1a.715.715,0,0,0,.161-.2.351.351,0,0,0,.014-.287.471.471,0,0,0-.2-.229,1.107,1.107,0,0,0-.185-.089c-.1-.041-.2-.082-.291-.124-.046-.021-.086-.038-.135-.055a.261.261,0,0,0-.088-.015.7.7,0,0,0-.11.012.511.511,0,0,0-.257.174,3.851,3.851,0,0,0-.268.349l-.074.1c-.143.2-.3.387-.458.573-.184.213-.371.427-.559.638a2.587,2.587,0,0,0-.615.359l-.089.065c-.248.177-.5.344-.76.509-.2.122-.394.236-.594.348l-.2.117q-.405.237-.817.461l-.253.136-.318.174c-.177.1-.358.181-.539.267-.021.009-.043.019-.065.031a14.669,14.669,0,0,1-2.16.706c-.164-.015-.305-.023-.441-.032l-.135-.009-.358-.026.077.034c-.426-.06-.85-.1-1.276-.136l-.1-.01-.2-.081c-.127-.06-.205-.093-.282-.124l-.148-.065c-.244-.1-.487-.207-.731-.306-.468-.191-.929-.4-1.39-.6-.445-.2-.882-.408-1.321-.623l-.174-.088a.264.264,0,0,0-.072-.119c-.086-.084-.174-.167-.263-.249l-.32-.315-.213-.213-.4-.394-.4-.4-.426-.415-.425-.418c-.227-.222-.435-.469-.636-.708l-.243-.3a1.2,1.2,0,0,0-.233-.243.492.492,0,0,0-.183-.092.2.2,0,0,0-.066-.007" transform="translate(-115.231 -305.496)" fill="#a7bf30"/>
      <path id="Trazado_1660" data-name="Trazado 1660" d="M-834.88-715.259c0-.026.007-.054.012-.081a10.075,10.075,0,0,1-.685,2.527l.029-.072a9.264,9.264,0,0,1-1.115,1.937,7.705,7.705,0,0,1-1.247,1.259,6.292,6.292,0,0,1-1.288.757c-.315.129-.638.232-.957.339-.406.136-.812.265-1.218.393-.769.242-1.541.473-2.31.712a36.484,36.484,0,0,0-4.4,1.624,16.544,16.544,0,0,0-3.993,2.579,16.35,16.35,0,0,0-3.117,3.8,21.652,21.652,0,0,0-1.992,4.431,30.88,30.88,0,0,0-1.129,4.779c-.279,1.746-.43,3.511-.573,5.271q-.237,2.934-.356,5.873c-.15,3.723-.153,7.456.019,11.18h.611c-.16-3.49-.164-6.984-.045-10.471q.1-2.77.3-5.532.1-1.4.234-2.79c.076-.828.158-1.658.268-2.483,0,.029-.007.055-.01.081a29.865,29.865,0,0,1,1.932-7.529,19.07,19.07,0,0,1,2.343-4.084,15.358,15.358,0,0,1,2.692-2.706,15.716,15.716,0,0,1,1.792-1.182,18.853,18.853,0,0,1,2.008-.984c1.436-.6,2.919-1.063,4.4-1.52.778-.236,1.554-.475,2.326-.726a11.594,11.594,0,0,0,2-.779,6.789,6.789,0,0,0,1.5-1.139,8.355,8.355,0,0,0,1.2-1.516,9.852,9.852,0,0,0,.857-1.78,9.963,9.963,0,0,0,.49-1.927,9.292,9.292,0,0,0,.068-2.274c-.144-.02-.287-.038-.431-.05-.062,0-.125-.009-.187-.011a9.212,9.212,0,0,1-.03,2.1m-4.24,6.306-.04.016.04-.016" transform="translate(0 -260.1)" fill="#007aa4" stroke="#007aa4" stroke-width="0.5"/>
      <path id="Trazado_1661" data-name="Trazado 1661" d="M-803.177-539.329a.3.3,0,0,0-.141.182,137.45,137.45,0,0,0-1.908,22.222h.611a136.114,136.114,0,0,1,1.23-17.7c0,.026-.007.055-.012.081q.3-2.224.668-4.438a.317.317,0,0,0-.031-.234.3.3,0,0,0-.182-.141.354.354,0,0,0-.084-.012.289.289,0,0,0-.153.043" transform="translate(-45.913 -411.13)" fill="#007aa4" stroke="#007aa4" stroke-width="0.5"/>
      <path id="Trazado_1662" data-name="Trazado 1662" d="M-624.49-717.139h0Z" transform="translate(-199.279 -260.284)" fill="#007aa4"/>
      <path id="Trazado_1663" data-name="Trazado 1663" d="M-628.907-717.049a9.236,9.236,0,0,0,.055,2.4,9.951,9.951,0,0,0,.49,1.927,9.872,9.872,0,0,0,.857,1.779,8.363,8.363,0,0,0,1.2,1.517,6.785,6.785,0,0,0,1.5,1.139,11.624,11.624,0,0,0,2,.779c.772.251,1.548.49,2.327.726,1.483.456,2.967.919,4.4,1.519a18.83,18.83,0,0,1,2.009.984,15.426,15.426,0,0,1,1.791,1.182,15.374,15.374,0,0,1,2.692,2.706,19.07,19.07,0,0,1,2.343,4.084,29.912,29.912,0,0,1,1.932,7.528c0-.026-.007-.052-.01-.081.11.827.191,1.655.268,2.484q.128,1.393.234,2.789.2,2.762.3,5.532c.117,3.425.114,6.855-.039,10.28h.611c.165-3.661.158-7.328.012-10.989q-.118-2.938-.356-5.873c-.144-1.76-.294-3.526-.573-5.271a30.957,30.957,0,0,0-1.13-4.779,21.664,21.664,0,0,0-1.991-4.431,16.327,16.327,0,0,0-3.117-3.8,16.546,16.546,0,0,0-3.993-2.579,36.557,36.557,0,0,0-4.4-1.624c-.768-.239-1.54-.47-2.309-.712-.406-.129-.812-.258-1.218-.394-.32-.107-.643-.21-.957-.339a6.248,6.248,0,0,1-1.288-.758,7.67,7.67,0,0,1-1.247-1.258,9.258,9.258,0,0,1-1.115-1.937l.029.072a10.061,10.061,0,0,1-.686-2.527c0,.027.007.055.012.081a9.077,9.077,0,0,1-.012-2.253q-.31.057-.623.09" transform="translate(-195.485 -260.284)" fill="#007aa4" stroke="#007aa4" stroke-width="0.5"/>
      <path id="Trazado_1664" data-name="Trazado 1664" d="M-533.392-538.108a.3.3,0,0,0-.182.141.323.323,0,0,0-.031.234q.37,2.214.669,4.438c0-.026-.007-.055-.011-.081a136.185,136.185,0,0,1,1.229,17.515h.611a137.34,137.34,0,0,0-1.908-22.033.3.3,0,0,0-.141-.182.293.293,0,0,0-.153-.043.325.325,0,0,0-.084.012" transform="translate(-276.394 -412.193)" fill="#007aa4" stroke="#007aa4" stroke-width="0.5"/>
      <path id="Trazado_1665" data-name="Trazado 1665" d="M-759.645-887c.067,2.008-.031,4.017-.146,6.021-.057,1.005-.12,2.011-.165,3.016q-.032.724-.05,1.447c-.014.492-.014.984-.019,1.479-.014,1.607-.146,3.215-.022,4.82a10.67,10.67,0,0,0,.425,2.327,7.492,7.492,0,0,0,.411,1.027,6.621,6.621,0,0,0,.6.986,10.526,10.526,0,0,0,2.885,2.694,14.857,14.857,0,0,0,3.709,1.677,21.7,21.7,0,0,0,4.094.814,26.418,26.418,0,0,0,4.029.117,26.719,26.719,0,0,0,3.941-.492,24.266,24.266,0,0,0,4.3-1.257,13.756,13.756,0,0,0,3.69-2.1,7.863,7.863,0,0,0,.688-.643,4.921,4.921,0,0,0,.693-.941,6.456,6.456,0,0,0,.449-.986,8.543,8.543,0,0,0,.325-1.161,15.58,15.58,0,0,0,.241-1.552c.067-.566.115-1.134.158-1.7.108-1.4.148-2.809.163-4.211.014-1.579,0-3.163-.016-4.743a.151.151,0,0,1-.022-.022c-.071-.088-.138-.179-.21-.27s-.155-.2-.227-.3c-.056-.081-.109-.163-.16-.247.01,1.618.028,3.243.028,4.859,0,1.244-.028,2.491-.091,3.733q-.05.96-.136,1.921c-.043.483-.091.962-.156,1.442.005-.029.008-.055.012-.081a9.847,9.847,0,0,1-.625,2.489,5.511,5.511,0,0,1-.581,1.018.027.027,0,0,1-.007.009s-.005.007-.01.01,0,0,0,.007h0a0,0,0,0,0,0,0c-.005,0-.008,0-.008.007v0a7.065,7.065,0,0,1-1.173,1.116,13.5,13.5,0,0,1-2.906,1.645,25,25,0,0,1-6.237,1.648h0a25.913,25.913,0,0,1-6.816,0l.081.012a19.656,19.656,0,0,1-4.906-1.283l.074.029a13.3,13.3,0,0,1-2.806-1.586l-.007-.007a.046.046,0,0,0-.017-.015h0l-.021-.016h0l0,0a.017.017,0,0,0-.009-.005,10.408,10.408,0,0,1-1.729-1.719c-.153-.2-.3-.408-.435-.619a6.093,6.093,0,0,1-.449-.853s0,0,0,0-.011-.026-.019-.041l.015.029a8.882,8.882,0,0,1-.557-2.161c0,.029.008.055.01.081a23.539,23.539,0,0,1-.1-3.79c.019-.6.04-1.2.045-1.794.01-.783.019-1.567.05-2.35.122-3.174.437-6.341.329-9.52a.311.311,0,0,0-.306-.306.306.306,0,0,0-.306.306m3.492,22.774,0,0s0,0,0,0" transform="translate(-84.206 -115.888)" fill="#007aa4" stroke="#007aa4" stroke-linecap="round" stroke-linejoin="round" stroke-width="0.5"/>
      <path id="Trazado_1666" data-name="Trazado 1666" d="M-733.943-734.833s0,0,0,0,0,0,0,0" transform="translate(-106.399 -245.265)" fill="#007aa4"/>
      <path id="Trazado_1667" data-name="Trazado 1667" d="M-570.87-745.292v0s0,0,0,0" transform="translate(-244.779 -236.392)" fill="#007aa4"/>
      <path id="Trazado_1668" data-name="Trazado 1668" d="M-751.619-756.278s0-.01,0-.012,0,.007,0,.012" transform="translate(-91.398 -227.062)" fill="#007aa4"/>
      <path id="Trazado_1669" data-name="Trazado 1669" d="M-570.92-745.276h0l.005-.009a.03.03,0,0,0-.007.01" transform="translate(-244.737 -236.399)" fill="#007aa4"/>
      <path id="Trazado_1670" data-name="Trazado 1670" d="M-557.624-854.368a.021.021,0,0,1,0-.007l0,0a.045.045,0,0,0,.006.01" transform="translate(-256.014 -143.827)" fill="#007aa4"/>
      <path id="Trazado_1671" data-name="Trazado 1671" d="M-570.782-745.455l.006-.006Z" transform="translate(-244.854 -236.251)" fill="#007aa4"/>
      <path id="Trazado_1672" data-name="Trazado 1672" d="M-570.867-745.389l0-.005a.055.055,0,0,0,.006-.01l-.01.016" transform="translate(-244.782 -236.298)" fill="#007aa4"/>
      <path id="Trazado_1673" data-name="Trazado 1673" d="M-734.28-735.09h0l-.005,0,0,0" transform="translate(-106.111 -245.048)" fill="#007aa4"/>
      <path id="Trazado_1674" data-name="Trazado 1674" d="M-734.079-734.939h0" transform="translate(-106.284 -245.178)" fill="#007aa4"/>
      <path id="Trazado_1675" data-name="Trazado 1675" d="M-734.062-734.929l-.005,0,.005,0" transform="translate(-106.295 -245.184)" fill="#007aa4"/>
      <path id="Trazado_1676" data-name="Trazado 1676" d="M-639.154-716.1l.017,0a.06.06,0,0,0-.017,0" transform="translate(-186.836 -261.165)" fill="#007aa4"/>
      <path id="Trazado_1677" data-name="Trazado 1677" d="M-794.312-843.791a3.739,3.739,0,0,0-2.353,1.208,5.688,5.688,0,0,0-.886,1.19,6.009,6.009,0,0,0-.583,1.419,4.8,4.8,0,0,0,.127,3.024,4.557,4.557,0,0,0,.282.573,4.824,4.824,0,0,0,.382.537,4.846,4.846,0,0,0,1.318,1.094,5.149,5.149,0,0,0,1.772.618,5.773,5.773,0,0,0,1.887-.031.305.305,0,0,0,.212-.378.3.3,0,0,0-.138-.181.324.324,0,0,0-.237-.031c-.07.012-.139.023-.21.034a5.717,5.717,0,0,1-1.273.007,5.3,5.3,0,0,1-1.264-.341l.071.028a5.126,5.126,0,0,1-1.032-.6,4.816,4.816,0,0,1-.723-.714l.014.019-.022-.03-.026-.032.017.02a4.153,4.153,0,0,1-.443-.762,4.119,4.119,0,0,1-.261-.991,4.756,4.756,0,0,1,.016-1.129h0a5.693,5.693,0,0,1,.361-1.285,5.918,5.918,0,0,1,.708-1.217,5.066,5.066,0,0,1,.862-.859c-.019.017-.041.033-.06.048a3.924,3.924,0,0,1,.727-.437,2.993,2.993,0,0,1,.676-.187,2.453,2.453,0,0,1,.523,0,2.519,2.519,0,0,1,.509.144,2.914,2.914,0,0,1,.492.291c-.01-.008-.02-.015-.028-.023l.031.026.031.022-.029-.02a3.981,3.981,0,0,1,.549.546.306.306,0,0,0,.432,0,.3.3,0,0,0,.089-.215.327.327,0,0,0-.089-.217,3.422,3.422,0,0,0-1.163-.934,2.6,2.6,0,0,0-1.1-.247c-.056,0-.112,0-.168.006m-.115.622-.03,0,.03,0m1.03.125.026.012-.026-.012m-1.626.038-.041.018.041-.018m-.05.022-.021.009Zm-1.491,1.206c-.009.013-.019.026-.029.038l.029-.038m-1.106,2.591c0,.01,0,.02,0,.031,0-.01,0-.021,0-.031m0,1.127,0,.029,0-.029m.264.961c.005.014.012.027.017.042l-.017-.042m3.335,2.383.023,0-.023,0m1.337,0-.079.012c.028,0,.054-.009.079-.012m-4.228-1.628.009.011-.017-.023a.113.113,0,0,0,.009.012m4.106-6.387,0,0,0,0,.005,0" transform="translate(-51.775 -152.806)" fill="#007aa4" stroke="#007aa4" stroke-linecap="round" stroke-linejoin="round" stroke-width="0.5"/>
      <path id="Trazado_1678" data-name="Trazado 1678" d="M-782.82-830.934a2.612,2.612,0,0,0-1.183.487.334.334,0,0,0-.141.182.314.314,0,0,0,.031.237.3.3,0,0,0,.418.109,2.871,2.871,0,0,1,.5-.289,2.468,2.468,0,0,1,.463-.124,2.441,2.441,0,0,1,.521,0,2.776,2.776,0,0,1,.542.153,3.155,3.155,0,0,1,.521.305,3.314,3.314,0,0,1,.482.479c.075.1.144.206.208.314a.308.308,0,0,0,.418.11.307.307,0,0,0,.109-.418,3.426,3.426,0,0,0-.767-.9,3.182,3.182,0,0,0-1-.547,2.438,2.438,0,0,0-.77-.121,2.556,2.556,0,0,0-.35.023m.162.59-.026,0,.026,0m.458.016.024,0-.024,0m1,.421.032.025-.032-.025" transform="translate(-63.794 -163.702)" fill="#007aa4" stroke="#007aa4" stroke-linecap="round" stroke-linejoin="round" stroke-width="0.5"/>
      <path id="Trazado_1679" data-name="Trazado 1679" d="M-558.524-843.143a3.321,3.321,0,0,0-1.049.8c0,.086,0,.172,0,.26a.138.138,0,0,1,.045.108c0,.092-.008.183-.013.274a.278.278,0,0,0,.287-.079,4.292,4.292,0,0,1,.534-.534l.017-.013h0c.01-.009.019-.018.028-.024l-.026.024a2.9,2.9,0,0,1,.492-.292,2.339,2.339,0,0,1,.509-.143,2.318,2.318,0,0,1,.523,0,2.827,2.827,0,0,1,.667.182l-.034-.015a.189.189,0,0,1,.035.016l.008,0a4.008,4.008,0,0,1,.726.437c-.019-.014-.04-.031-.059-.048a4.975,4.975,0,0,1,.862.86,5.968,5.968,0,0,1,.707,1.216,5.658,5.658,0,0,1,.361,1.285,4.7,4.7,0,0,1,.017,1.13,4.136,4.136,0,0,1-.261.989,4.284,4.284,0,0,1-.444.764h0l0,.005h0l0,.006h0c-.007.012-.016.021-.024.031l.015-.02a4.851,4.851,0,0,1-.724.714,5.215,5.215,0,0,1-1.032.6l.072-.029a5.3,5.3,0,0,1-1.264.342,5.686,5.686,0,0,1-1.273-.007c.026,0,.053.007.079.011-.026,0-.053-.007-.079-.011-.069-.01-.138-.022-.21-.034a.329.329,0,0,0-.236.031.3.3,0,0,0-.139.182.3.3,0,0,0,.213.377,5.749,5.749,0,0,0,1.887.031,5.141,5.141,0,0,0,1.772-.619,4.829,4.829,0,0,0,1.318-1.094,4.652,4.652,0,0,0,.382-.538,4.5,4.5,0,0,0,.282-.573,4.8,4.8,0,0,0,.126-3.024,5.991,5.991,0,0,0-.583-1.418,5.68,5.68,0,0,0-.886-1.189,3.741,3.741,0,0,0-2.353-1.209c-.054-.005-.112-.005-.167-.005a2.6,2.6,0,0,0-1.1.247m1.388.38a.274.274,0,0,0,.029,0,.106.106,0,0,1-.029,0m.644.186.022.01-.022-.01m-2.21.252h0m3.7.954.031.038a.224.224,0,0,1-.031-.038" transform="translate(-254.365 -153.151)" fill="#007aa4" stroke="#007aa4" stroke-linecap="round" stroke-linejoin="round" stroke-width="0.5"/>
      <path id="Trazado_1680" data-name="Trazado 1680" d="M-539.319-838.062l-.006,0h0l.007,0" transform="translate(-271.546 -157.669)" fill="#007aa4"/>
      <path id="Trazado_1681" data-name="Trazado 1681" d="M-526.688-794.238h0l0-.005,0,.006" transform="translate(-282.27 -194.855)" fill="#007aa4"/>
      <path id="Trazado_1682" data-name="Trazado 1682" d="M-526.77-794.163l.008-.011a.036.036,0,0,0-.008.011" transform="translate(-282.201 -194.914)" fill="#007aa4"/>
      <path id="Trazado_1683" data-name="Trazado 1683" d="M-558.28-830.431a3.154,3.154,0,0,0-1,.547,3.441,3.441,0,0,0-.767.9.284.284,0,0,0-.039.117c0,.026,0,.052,0,.078a.31.31,0,0,0,.149.222.307.307,0,0,0,.418-.11c.065-.107.134-.21.208-.313a3.431,3.431,0,0,1,.482-.481l.016-.01a.324.324,0,0,1,.029-.025.246.246,0,0,1-.027.023,3.2,3.2,0,0,1,.5-.291,2.964,2.964,0,0,1,.542-.155,2.51,2.51,0,0,1,.521,0,2.3,2.3,0,0,1,.463.124,3.012,3.012,0,0,1,.5.289.306.306,0,0,0,.418-.11.314.314,0,0,0,.031-.237.333.333,0,0,0-.141-.182,2.612,2.612,0,0,0-1.182-.487,2.88,2.88,0,0,0-.352-.021,2.476,2.476,0,0,0-.769.119m.958.492.026,0a.1.1,0,0,1-.026,0" transform="translate(-253.929 -164.047)" fill="#007aa4" stroke="#007aa4" stroke-linecap="round" stroke-linejoin="round" stroke-width="0.5"/>
      <path id="Trazado_1684" data-name="Trazado 1684" d="M-551.689-823.47h0l0,0Z" transform="translate(-261.055 -170.053)" fill="#007aa4"/>
      <path id="Trazado_1685" data-name="Trazado 1685" d="M-664.626-848.08c.143.449.32.886.5,1.323.2.48.4.96.588,1.447a9.214,9.214,0,0,1,.428,1.441,4.938,4.938,0,0,1,.086.673,3.057,3.057,0,0,1-.035.643,1.705,1.705,0,0,1-.468.931,1.912,1.912,0,0,1-.869.471,3.6,3.6,0,0,1-.533.09,4.336,4.336,0,0,1-.557.021,10.094,10.094,0,0,1-1.144-.088.359.359,0,0,1-.218-.091.318.318,0,0,1-.088-.215.32.32,0,0,1,.088-.218.289.289,0,0,1,.218-.088,7.377,7.377,0,0,0,1.834.05l-.081.01a2.663,2.663,0,0,0,.562-.143,1.884,1.884,0,0,0,.261-.149,1.573,1.573,0,0,0,.182-.177,1.77,1.77,0,0,0,.124-.211,1.868,1.868,0,0,0,.1-.368,3.435,3.435,0,0,0-.01-.729,9.949,9.949,0,0,0-.685-2.241c-.3-.738-.633-1.461-.874-2.221a.309.309,0,0,1,.215-.377.3.3,0,0,1,.08-.011.314.314,0,0,1,.295.226m.96,4.55c0,.013,0,.026,0,.039,0-.013,0-.026,0-.039m.029.74,0,.023,0-.023m-.628.948-.04.016.04-.016" transform="translate(-163.262 -148.98)" fill="#007aa4" stroke="#007aa4" stroke-width="0.5"/>
      <path id="Trazado_1686" data-name="Trazado 1686" d="M-718.287-835.863c.807,0,1.462-.911,1.462-2.034s-.655-2.033-1.462-2.033-1.463.911-1.463,2.033.655,2.034,1.463,2.034" transform="translate(-118.445 -156.087)" fill="#007aa4"/>
      <path id="Trazado_1687" data-name="Trazado 1687" d="M-615.867-837.892c-.807,0-1.463-.911-1.463-2.034s.655-2.033,1.463-2.033,1.463.911,1.463,2.033-.655,2.034-1.463,2.034" transform="translate(-205.356 -154.366)" fill="#007aa4"/>
      <path id="Trazado_1688" data-name="Trazado 1688" d="M-733.371-881.647a5.407,5.407,0,0,0-.678.045,5.9,5.9,0,0,0-.757.174,4.942,4.942,0,0,0-2.3,1.446.585.585,0,0,0-.114.446.624.624,0,0,0,.243.409.623.623,0,0,0,.446.112.648.648,0,0,0,.409-.244l.039-.043a4.337,4.337,0,0,1,.766-.589,5.155,5.155,0,0,1,1-.414,4.642,4.642,0,0,1,.882-.127,3.789,3.789,0,0,1,.748.081c.061.018.121.037.182.057a.621.621,0,0,0,.793-.347.614.614,0,0,0-.346-.792,4.036,4.036,0,0,0-1.3-.215Zm-.96,1.346-.069.018.069-.018m-1.677.923-.061.064c.02-.022.041-.043.061-.064" transform="translate(-103.618 -120.688)" fill="#007aa4"/>
      <path id="Trazado_1689" data-name="Trazado 1689" d="M-619.791-883.713a5.316,5.316,0,0,1,.678.045,5.8,5.8,0,0,1,.757.174,4.942,4.942,0,0,1,2.3,1.446.583.583,0,0,1,.114.446.624.624,0,0,1-.243.408.624.624,0,0,1-.446.113.649.649,0,0,1-.408-.244l-.039-.043a4.311,4.311,0,0,0-.766-.589,5.136,5.136,0,0,0-1-.414,4.615,4.615,0,0,0-.882-.127,3.738,3.738,0,0,0-.749.081q-.092.027-.182.057a.621.621,0,0,1-.793-.347.614.614,0,0,1,.346-.792,4.048,4.048,0,0,1,1.3-.215Zm.961,1.347.069.017-.069-.017m1.676.922.061.064c-.02-.022-.04-.043-.061-.064" transform="translate(-201.822 -118.935)" fill="#007aa4"/>
      <path id="Trazado_1690" data-name="Trazado 1690" d="M-757.018-941.212c-.289.43-.6.847-.919,1.253a21.239,21.239,0,0,1-3.943,3.733l.019-.013a18.71,18.71,0,0,1-4.2,2.3l.037-.012a14.167,14.167,0,0,1-3.432.834l.021,0a11.254,11.254,0,0,1-2.751-.066c-.2-.032-.392-.07-.587-.111a6.331,6.331,0,0,1-.81-.237c-.518-.184-1.018-.411-1.551-.554a.311.311,0,0,0-.38.21.308.308,0,0,0,.208.378,12.486,12.486,0,0,1,1.242.437c.205.081.411.155.621.223a6.662,6.662,0,0,0,.678.169,10.96,10.96,0,0,0,2.269.22,13.365,13.365,0,0,0,4.522-.871,18.382,18.382,0,0,0,4.194-2.229,21.424,21.424,0,0,0,3.53-3.11,19.437,19.437,0,0,0,1.753-2.23.309.309,0,0,0-.1-.421.3.3,0,0,0-.154-.043.327.327,0,0,0-.267.145m-9.078,7.285.037-.015-.037.015m4.2-2.286.017-.013-.017.013" transform="translate(-71.117 -70.02)" fill="#007aa4" stroke="#007aa4" stroke-linecap="round" stroke-linejoin="round" stroke-width="0.5"/>
      <path id="Trazado_1691" data-name="Trazado 1691" d="M-653.888-940.474c-.055,1.086-.242,2.164-.222,3.253a4.88,4.88,0,0,0,.232,1.488,2.433,2.433,0,0,0,.795,1.137,2.487,2.487,0,0,0,.638.353,3.712,3.712,0,0,0,.91.208,6.941,6.941,0,0,0,1.07.017,8.021,8.021,0,0,0,1.194-.145,8.415,8.415,0,0,0,4-2.021,8.665,8.665,0,0,0,1-1.07,15.449,15.449,0,0,0,.9-1.356.328.328,0,0,0,.06-.227.31.31,0,0,0-.122-.2.308.308,0,0,0-.428.062c-.222.356-.437.714-.681,1.058a8.166,8.166,0,0,1-.769.929l.018-.017a8.567,8.567,0,0,1-1.622,1.292,8.319,8.319,0,0,1-1.828.8l.007,0a8.339,8.339,0,0,1-2.1.306h.081a5.214,5.214,0,0,1-1.18-.105l.034.01-.042-.012-.034-.008.029.007a2.781,2.781,0,0,1-.562-.221,2.3,2.3,0,0,1-.34-.254,2.153,2.153,0,0,1-.269-.339,2.626,2.626,0,0,1-.229-.528,5.023,5.023,0,0,1-.156-1.244v.083c-.01-1.063.167-2.114.222-3.172a.314.314,0,0,0-.265-.342l-.034,0a.306.306,0,0,0-.308.267m.527,4.365.012.038-.012-.038m1.42,1.387.009,0-.014,0h.005" transform="translate(-174.143 -70.543)" fill="#007aa4" stroke="#007aa4" stroke-linecap="round" stroke-linejoin="round" stroke-width="0.5"/>
      <path id="Trazado_1692" data-name="Trazado 1692" d="M-586.291-930.152a.307.307,0,0,0-.05.43,6.928,6.928,0,0,1,.595.822,7.862,7.862,0,0,1,.74,1.772l-.022-.079a33.241,33.241,0,0,1,.712,5.529,13.9,13.9,0,0,0,.523,2.7,7.112,7.112,0,0,0,.5,1.189c.1.191.215.375.332.557.06.091.124.179.189.267a1,1,0,0,0,.241.27.31.31,0,0,0,.428-.062.32.32,0,0,0,.052-.257l-.045-.058c-.078-.1-.155-.2-.227-.3-.042-.06-.082-.122-.122-.185s-.092-.14-.136-.212a7.294,7.294,0,0,1-.7-1.625c-.991-3.523-.043-7.715-2.577-10.707a.325.325,0,0,0-.246-.115.294.294,0,0,0-.184.065m.509,1.189c.012.019.021.038.034.057a.452.452,0,0,1-.034-.057" transform="translate(-231.595 -79.473)" fill="#007aa4"/>
      <path id="Trazado_1693" data-name="Trazado 1693" d="M-565.972-984.594a.309.309,0,0,0-.306.306.311.311,0,0,0,.306.306,6.914,6.914,0,0,1,1.079.036,5.561,5.561,0,0,1,1.287.34,5.148,5.148,0,0,1,1.023.591l-.012-.01.026.02.037.028-.016-.011a6.116,6.116,0,0,1,.942.948l-.016-.022.029.04.018.023-.01-.012a8.4,8.4,0,0,1,.99,1.737l0-.006a15.314,15.314,0,0,1,.975,3.81c0-.012,0-.023-.006-.035a28.364,28.364,0,0,1,.212,4.243,33.839,33.839,0,0,1-.294,3.812c0-.029.007-.055.01-.081a18.432,18.432,0,0,1-1.168,4.629,13.552,13.552,0,0,1-.661,1.33.31.31,0,0,0,.11.418.308.308,0,0,0,.418-.11,13.972,13.972,0,0,0,1.081-2.424,17.949,17.949,0,0,0,.621-2.479c.146-.8.251-1.608.332-2.415a31.381,31.381,0,0,0,.045-6.086,19.736,19.736,0,0,0-.523-3.1,11.474,11.474,0,0,0-1.056-2.709,6.594,6.594,0,0,0-1.722-2.03,5.376,5.376,0,0,0-2.453-1.025,6.563,6.563,0,0,0-.977-.071c-.106,0-.212,0-.318.007m1.111.651.045.005-.045-.005m1.26.339.026.01-.026-.01m3.971,7.1c0-.015,0-.031-.006-.046,0,.015,0,.031.006.046m-1.956-5.507-.008-.01-.013-.018.021.028m-.963-.976-.021-.016-.014-.01.035.027" transform="translate(-248.676 -33.325)" fill="#007aa4" stroke="#007aa4" stroke-linecap="round" stroke-linejoin="round" stroke-width="0.5"/>
      <path id="Trazado_1694" data-name="Trazado 1694" d="M-777.98-1023.855c-.934.026-1.868.086-2.8.16-.843.065-1.689.134-2.527.242a22.14,22.14,0,0,0-4.046.915,19.185,19.185,0,0,0-6.953,4,15.991,15.991,0,0,0-2.562,3.011,14.921,14.921,0,0,0-1.732,3.638,14.727,14.727,0,0,0-.5,2.042,18.333,18.333,0,0,0-.234,2.221,30.339,30.339,0,0,0,.15,5.076,19.636,19.636,0,0,0,2.031,6.969.305.305,0,0,0,.418.108.311.311,0,0,0,.11-.417c-.208-.391-.4-.79-.572-1.2l0,.007a20.531,20.531,0,0,1-1.337-5.14c0,.029.007.055.009.084a29.983,29.983,0,0,1-.243-3.592c-.005-.6.01-1.2.038-1.8.024-.549.067-1.094.136-1.638,0,.026-.007.055-.01.081a15.331,15.331,0,0,1,1.017-3.8l0,.007.011-.025c.007-.016.013-.032.021-.05,0,.006,0,.011-.006.016a15.18,15.18,0,0,1,1.869-3.191l0,.005.013-.016.035-.046-.021.028a16.482,16.482,0,0,1,2.872-2.849,19.012,19.012,0,0,1,4.118-2.384,21.575,21.575,0,0,1,5.371-1.451l-.081.012c.793-.105,1.591-.17,2.389-.237.931-.076,1.863-.136,2.8-.169a32.229,32.229,0,0,1,5.467.224l-.081-.009a21.682,21.682,0,0,1,3.16.671,21.054,21.054,0,0,1,2.242.812l-.009,0a10.161,10.161,0,0,1,2.112,1.166l-.021-.018.029.024.008.006-.007,0a4.73,4.73,0,0,1,.731.709,3.137,3.137,0,0,1,.33.553,2.668,2.668,0,0,1,.136.482,2.593,2.593,0,0,1,0,.545q-.031.182-.08.361a.307.307,0,0,0,.212.375.309.309,0,0,0,.377-.213,3.149,3.149,0,0,0,.12-.843,2.456,2.456,0,0,0-.16-.828,3.44,3.44,0,0,0-.948-1.333,7.325,7.325,0,0,0-1.461-1,15.24,15.24,0,0,0-1.567-.714,21.18,21.18,0,0,0-2.1-.726,20.745,20.745,0,0,0-2.725-.578,29.292,29.292,0,0,0-4.31-.294c-.412,0-.823.007-1.234.018m13.375,4.149.03.04a.451.451,0,0,1-.03-.04m.5,1.046c0,.007,0,.015,0,.021s0-.014,0-.021m.008.06,0,.021,0-.021m.006.456,0,.024,0-.024m-33.482,5.24-.007.018c.008-.017.015-.034.021-.051l-.015.033m1.892-3.235-.008.011.023-.029-.014.018m30.383-4.229h0l-.009-.006.011.007" transform="translate(-50.877 0)" fill="#007aa4" stroke="#007aa4" stroke-linecap="round" stroke-linejoin="round" stroke-width="0.5"/>
      <path id="Trazado_1695" data-name="Trazado 1695" d="M-716.8-665.9a.306.306,0,0,0-.11.418l.278.377,0,.005.013.017.045.06.029.037a16.876,16.876,0,0,0,2.915,3.013,12.309,12.309,0,0,0,1.856,1.213,10.236,10.236,0,0,0,1.954.784,9.116,9.116,0,0,0,2.042.325,8.935,8.935,0,0,0,2.295-.206,10.322,10.322,0,0,0,3.712-1.689c.161-.114.32-.234.478-.355l.024-.018.076-.06,0,0,.027-.02.044-.035.049-.039.012-.011.188-.153.016-.015q.324-.274.63-.562l.018-.015.045-.043.015-.015c.11-.106.22-.213.327-.322l.014-.016c.223-.227.44-.46.651-.7l.017-.018.01-.012.01-.013c.029-.033.058-.067.086-.1l.053-.062c.027-.03.053-.062.079-.091a.334.334,0,0,0,.088-.218.309.309,0,0,0-.088-.215.305.305,0,0,0-.432,0l-.1.109-.009.01,0,0-.083.1-.007.008-.094.107-.009.011c-.226.256-.458.5-.7.745l-.01.01c-.075.075-.151.148-.226.222l0,0c-.256.244-.518.479-.791.707l-.185.151-.033.026-.094.073-.008.006.043-.034a11.457,11.457,0,0,1-2.45,1.461l.024-.009-.043.017-.032.014.012-.005a9.377,9.377,0,0,1-2.266.612l.081-.012a8.709,8.709,0,0,1-2.245,0l.011,0a9.283,9.283,0,0,1-2.255-.638,11.547,11.547,0,0,1-2.343-1.393,16.448,16.448,0,0,1-2.856-2.9l.017.023-.088-.114c-.011-.015-.022-.031-.034-.044l-.288-.39a.324.324,0,0,0-.181-.141.333.333,0,0,0-.081-.01.309.309,0,0,0-.155.042m8.294,5.574.039.005-.039-.005m4.388-.6.02-.009.019-.008-.039.017" transform="translate(-120.817 -303.732)" fill="#007aa4" stroke="#007aa4" stroke-width="0.5"/>
      <path id="Trazado_1696" data-name="Trazado 1696" d="M-726.481-662.029a.3.3,0,0,0-.109.417c.15.24.3.479.462.714l.01.018.065.094.007.01,0,0a19.835,19.835,0,0,0,3,3.494,14.173,14.173,0,0,0,2.011,1.531,11.454,11.454,0,0,0,2.286,1.1,9.613,9.613,0,0,0,2.491.5,9.363,9.363,0,0,0,2.453-.16,11.006,11.006,0,0,0,4.414-2.028,16.333,16.333,0,0,0,2.637-2.479l.017-.021.028-.032.008-.009c.052-.06.105-.122.155-.184.009-.01.018-.021.026-.032q.34-.412.658-.838l.026-.032.028-.037.01-.013,0,0,.036-.051c.008-.01.016-.02.024-.031l.072-.1,0,0v0l.044-.06.053-.074.01-.014.027-.038q.031-.041.061-.086h0c.041-.058.081-.115.122-.174a.305.305,0,0,0-.11-.418.308.308,0,0,0-.418.11c-.044.064-.088.127-.134.19l-.013.02-.049.068a.082.082,0,0,0-.009.014c-.016.023-.034.046-.05.07l-.027.037-.057.078-.04.056-.018.023-.043.059-.01.012,0,0-.2.272.01-.012-.027.034-.008.011,0-.006c-.158.2-.317.4-.484.6l-.011.013,0,.005-.011.012-.059.071-.122.142a.057.057,0,0,0-.007.01,16.636,16.636,0,0,1-2.292,2.19,12.171,12.171,0,0,1-2.572,1.523l.037-.016a9.9,9.9,0,0,1-2.354.662h0a9.369,9.369,0,0,1-2.45,0l.081.009a10,10,0,0,1-2.364-.649,12.269,12.269,0,0,1-2.646-1.569l.039.032a17.564,17.564,0,0,1-3-3.053l.018.024-.028-.037-.02-.025.007.008q-.414-.544-.8-1.111l-.006-.009q-.238-.357-.466-.72a.32.32,0,0,0-.268-.151.293.293,0,0,0-.15.042m12,7.218-.032,0,.032,0m-7.329-2.218-.02-.015.02.015m15.257-3,0,0,.017-.022c-.007.009-.013.017-.02.026m-18.227-.033.01.013-.023-.03.013.017" transform="translate(-112.603 -307.012)" fill="#007aa4" stroke="#007aa4" stroke-width="0.5"/>
      <path id="Trazado_1697" data-name="Trazado 1697" d="M-796.682-499.775q-2.092,2.451-4.187,4.906c0,.039,0,.076-.007.117h.707q1.852-2.171,3.7-4.338,1.7,1.986,3.394,3.974a3.862,3.862,0,0,1,.418-.446l0,0q-1.8-2.109-3.6-4.211a.282.282,0,0,0-.215-.091.284.284,0,0,0-.217.091" transform="translate(-49.604 -444.655)" fill="#007aa4"/>
      <path id="Trazado_1698" data-name="Trazado 1698" d="M-801.371-464.086c-.017.192-.037.383-.057.575h.038l.491-.575Z" transform="translate(-49.136 -475.015)" fill="#007aa4"/>
      <path id="Trazado_1699" data-name="Trazado 1699" d="M-709.167-498.549q-2.064,2.418-4.127,4.839h.8q1.769-2.078,3.541-4.154,1.723,2.015,3.446,4.035l.043-.065c.025-.083.048-.167.079-.248.017-.043.036-.086.055-.129a1.624,1.624,0,0,1,.091-.169l0,0q-1.751-2.053-3.5-4.1a.282.282,0,0,0-.215-.09.287.287,0,0,0-.217.09" transform="translate(-123.923 -445.695)" fill="#007aa4"/>
      <path id="Trazado_1700" data-name="Trazado 1700" d="M-625.109-497.726q-1.82,2.139-3.65,4.278c.115.122.227.248.334.377a.179.179,0,0,1,.036.058h.062l3.434-4.027q1.706,2,3.416,4l.014-.016.053-.06a.27.27,0,0,1,0-.076,4.327,4.327,0,0,1,.229-.434q-1.75-2.052-3.5-4.1a.282.282,0,0,0-.215-.091.287.287,0,0,0-.217.091" transform="translate(-195.657 -446.393)" fill="#007aa4"/>
      <path id="Trazado_1701" data-name="Trazado 1701" d="M-547.5-496.509q-1.5,1.763-3,3.519l.047.063c.105.144.206.292.306.44l.01.013q1.429-1.673,2.859-3.35c.308.361.614.719.92,1.08,0-.048-.007-.1-.012-.146-.019-.281-.029-.561-.031-.842l-.662-.777a.282.282,0,0,0-.215-.091.287.287,0,0,0-.217.091" transform="translate(-262.058 -447.425)" fill="#007aa4"/>
      <path id="Trazado_1702" data-name="Trazado 1702" d="M-756.995-492.7q-2.092,2.451-4.187,4.906c0,.039,0,.078-.008.117h.707q1.852-2.17,3.7-4.338,1.855,2.168,3.705,4.338h.8q-2.141-2.512-4.289-5.023a.282.282,0,0,0-.215-.09.284.284,0,0,0-.217.09" transform="translate(-83.28 -450.656)" fill="#007aa4"/>
      <path id="Trazado_1703" data-name="Trazado 1703" d="M-669.475-491.474l-4.127,4.839h.8l3.542-4.154q1.775,2.075,3.547,4.154h.8q-2.064-2.419-4.13-4.839a.282.282,0,0,0-.215-.091.287.287,0,0,0-.217.091" transform="translate(-157.604 -451.698)" fill="#007aa4"/>
      <path id="Trazado_1704" data-name="Trazado 1704" d="M-587.491-490.652q-2.007,2.357-4.02,4.712h.8l3.435-4.027q1.717,2.013,3.437,4.027h.8l-4.023-4.712a.282.282,0,0,0-.215-.091.288.288,0,0,0-.217.091" transform="translate(-227.264 -452.395)" fill="#007aa4"/>
      <path id="Trazado_1705" data-name="Trazado 1705" d="M-775.8-461.128h-25.191c-.012.2-.024.406-.036.611h42.258c-.011-.105-.02-.21-.028-.315s-.015-.2-.021-.3Z" transform="translate(-49.48 -477.526)" fill="#007aa4"/>
      <path id="Trazado_1706" data-name="Trazado 1706" d="M-802.427-450.926q1.859,2.064,3.719,4.126a.305.305,0,0,0,.229.091.309.309,0,0,0,.227-.091q1.9-2.1,3.8-4.211a0,0,0,0,1,0,0,3.85,3.85,0,0,1-.442-.446q-1.788,1.988-3.583,3.974-1.945-2.155-3.888-4.313-.026.437-.057.873" transform="translate(-48.288 -485.442)" fill="#007aa4"/>
      <path id="Trazado_1707" data-name="Trazado 1707" d="M-710.3-447.134q-2.178-2.418-4.357-4.839h.847q1.868,2.078,3.739,4.154,1.819-2.015,3.638-4.036l.046.066c.025.083.051.167.084.248.017.043.037.086.058.129a1.618,1.618,0,0,0,.1.169l0,0q-1.848,2.053-3.7,4.1a.306.306,0,0,1-.227.091.312.312,0,0,1-.229-.091" transform="translate(-122.769 -485.294)" fill="#007aa4"/>
      <path id="Trazado_1708" data-name="Trazado 1708" d="M-621.554-447.247q-1.922-2.139-3.853-4.278c.12-.122.239-.248.353-.377a.167.167,0,0,0,.038-.058h.065q1.811,2.013,3.626,4.027,1.8-2,3.607-4l.014.016.056.06a.259.259,0,0,0,.005.077,4.292,4.292,0,0,0,.242.434l-3.7,4.1a.307.307,0,0,1-.227.091.312.312,0,0,1-.229-.091" transform="translate(-198.501 -485.306)" fill="#007aa4"/>
      <path id="Trazado_1709" data-name="Trazado 1709" d="M-542.42-448.695c-.107.148-.213.3-.325.44-.015.022-.031.04-.048.062q1.586,1.755,3.169,3.521a.32.32,0,0,0,.229.091.3.3,0,0,0,.227-.091l.052-.056c-.006-.046-.011-.093-.016-.139q-.064-.322-.122-.646l-.141.156q-1.508-1.677-3.016-3.351a.045.045,0,0,0-.01.014" transform="translate(-268.605 -488.064)" fill="#007aa4"/>
      <path id="Trazado_1710" data-name="Trazado 1710" d="M-760.79-454.013q-2.208-2.451-4.42-4.906c0-.039-.006-.078-.009-.117h.747q1.954,2.17,3.909,4.338,1.958-2.168,3.912-4.338h.844q-2.26,2.512-4.527,5.023a.307.307,0,0,1-.228.091.309.309,0,0,1-.229-.091" transform="translate(-79.862 -479.301)" fill="#007aa4"/>
      <path id="Trazado_1711" data-name="Trazado 1711" d="M-668.393-454.207l-4.357-4.839h.847l3.74,4.154q1.874-2.077,3.744-4.154h.843q-2.179,2.42-4.36,4.839a.306.306,0,0,1-.227.091.311.311,0,0,1-.229-.091" transform="translate(-158.327 -479.292)" fill="#007aa4"/>
      <path id="Trazado_1712" data-name="Trazado 1712" d="M-581.841-454.321q-2.12-2.357-4.244-4.712h.847l3.626,4.027q1.812-2.013,3.628-4.027h.846l-4.247,4.712a.307.307,0,0,1-.227.091.312.312,0,0,1-.229-.091" transform="translate(-231.868 -479.303)" fill="#007aa4"/>
      <path id="Trazado_1713" data-name="Trazado 1713" d="M-760.343-460.981h-41.4c-.01.205-.019.408-.029.611h42.4c.007-.2.018-.408.033-.611Z" transform="translate(-48.847 -477.65)" fill="#007aa4"/>
      <path id="Trazado_1714" data-name="Trazado 1714" d="M-672.132-793.837v.166c0,.045,0,.09-.005.136,0,.007,0,.013,0,.02,0,.067-.012.136-.021.2,0-.026.007-.055.009-.081a3.042,3.042,0,0,1-.19.7,3.181,3.181,0,0,1-.325.554,3.331,3.331,0,0,1-.466.472,3.292,3.292,0,0,1-.6.357,3.206,3.206,0,0,1-.624.174,3.179,3.179,0,0,1-.758,0,3.15,3.15,0,0,1-.63-.173,3.176,3.176,0,0,1-.6-.348,3.257,3.257,0,0,1-.458-.452,3.285,3.285,0,0,1-.356-.605,3.273,3.273,0,0,1-.178-.641q-.016-.122-.022-.248a.311.311,0,0,0-.306-.306.308.308,0,0,0-.306.306,3.748,3.748,0,0,0,.112.731,3.2,3.2,0,0,0,.278.685,3.15,3.15,0,0,0,.828.982,3.236,3.236,0,0,0,2.36.683,3.24,3.24,0,0,0,2.188-1.218,3.265,3.265,0,0,0,.677-1.729c0-.01,0-.02,0-.029.007-.1.009-.2.007-.3v-.038a.313.313,0,0,0-.306-.306.308.308,0,0,0-.306.306m-4.7,1.691.017.019-.017-.019m4.163.011-.017.022.017-.022m-.443.451,0,0,0,0m-.624.37-.041.018.041-.018m-.585.168-.033,0,.033,0m-.042.006-.039.006.039-.006m-.718.007.029,0-.029,0" transform="translate(-153.894 -194.941)" fill="#007aa4" stroke="#007aa4" stroke-width="0.5"/>
    </g>
  </g>
</svg>
