
<svg xmlns="http://www.w3.org/2000/svg" xmlns:xlink="http://www.w3.org/1999/xlink" width="36" height="36" viewBox="0 0 36 36">
  <defs>
    <filter id="Image-2" x="-9" y="-6" width="53.979" height="53.979" filterUnits="userSpaceOnUse">
      <feOffset dy="3" input="SourceAlpha"/>
      <feGaussianBlur stdDeviation="3" result="blur"/>
      <feFlood flood-opacity="0.161"/>
      <feComposite operator="in" in2="blur"/>
      <feComposite in="SourceGraphic"/>
    </filter>
    <clipPath id="clip-favicon">
      <rect width="36" height="36"/>
    </clipPath>
  </defs>
  <g id="favicon" clip-path="url(#clip-favicon)">
    <g id="Grupo_9327" data-name="Grupo 9327" transform="translate(-59.549 -57.817)">
      <g id="Grupo_9262" data-name="Grupo 9262" transform="translate(59.549 57.817)">
        <g transform="matrix(1, 0, 0, 1, 0, 0)" filter="url(#Image-2)">
          <path id="Image-2-2" data-name="Image-2" d="M77.539,57.817h0a17.8,17.8,0,0,1,17.99,17.6v.775a17.8,17.8,0,0,1-17.99,17.6h0a17.8,17.8,0,0,1-17.99-17.6v-.775A17.8,17.8,0,0,1,77.539,57.817Z" transform="translate(-59.55 -57.82)" fill="#05284d"/>
        </g>
      </g>
      <path id="Trazado_5533" data-name="Trazado 5533" d="M146.981,131.178l-5.843-4.1-1.951,2.626-1.969,2.651,2.081-.25a6.984,6.984,0,0,1-13.939-.789v-.044a7.007,7.007,0,0,1,6.992-7.229,6.894,6.894,0,0,1,6.523,4.57l2.064-2.778,3.719,2.612a12.157,12.157,0,0,0-12.306-9.636,12.28,12.28,0,0,0-12.643,12.46v.044a12.642,12.642,0,0,0,25.282.1l1.991-.239Z" transform="translate(-54.749 -55.505)" fill="#98bf11"/>
    </g>
  </g>
</svg>
