<svg xmlns="http://www.w3.org/2000/svg" xmlns:xlink="http://www.w3.org/1999/xlink" width="99" height="98" viewBox="0 0 99 98">
  <defs>
    <clipPath id="clip-girl_neutro_">
      <rect width="99" height="98"/>
    </clipPath>
  </defs>
  <g id="girl_neutro_" data-name="girl neutro " clip-path="url(#clip-girl_neutro_)">
    <g id="Grupo_9057" data-name="Grupo 9057" transform="translate(-490 -443)">
      <g id="Grupo_9044" data-name="Grupo 9044" transform="translate(490 446.374)">
        <g id="Grupo_2170" data-name="Grupo 2170" transform="translate(0 0)">
          <g id="Grupo_2166" data-name="Grupo 2166" transform="translate(6.791)">
            <path id="Trazado_1534" data-name="Trazado 1534" d="M584.511,1515.654a.96.96,0,0,0-1.358,0l-2.943,2.943a.96.96,0,0,0,1.359,1.357l2.942-2.942A.961.961,0,0,0,584.511,1515.654Z" transform="translate(-579.93 -1515.373)" fill="#cdfc00"/>
          </g>
          <g id="Grupo_2167" data-name="Grupo 2167" transform="translate(0 6.791)">
            <path id="Trazado_1535" data-name="Trazado 1535" d="M578.734,1521.432a.961.961,0,0,0-1.359,0l-2.943,2.941a.961.961,0,0,0,1.359,1.359l2.943-2.943A.96.96,0,0,0,578.734,1521.432Z" transform="translate(-574.152 -1521.151)" fill="#cdfc00"/>
          </g>
          <g id="Grupo_2168" data-name="Grupo 2168" transform="translate(6.791 6.791)">
            <path id="Trazado_1536" data-name="Trazado 1536" d="M584.511,1524.374l-2.942-2.941a.96.96,0,0,0-1.359,1.357l2.943,2.943a.96.96,0,1,0,1.358-1.359Z" transform="translate(-579.93 -1521.151)" fill="#cdfc00"/>
          </g>
          <g id="Grupo_2169" data-name="Grupo 2169">
            <path id="Trazado_1537" data-name="Trazado 1537" d="M578.734,1518.6l-2.943-2.943a.961.961,0,1,0-1.359,1.359l2.943,2.942a.96.96,0,0,0,1.359-1.357Z" transform="translate(-574.152 -1515.373)" fill="#cdfc00"/>
          </g>
        </g>
      </g>
      <g id="Grupo_9045" data-name="Grupo 9045" transform="translate(478.679 448.827)">
        <g id="Grupo_2177" data-name="Grupo 2177" transform="translate(0 -3)">
          <g id="Grupo_2165" data-name="Grupo 2165" transform="translate(97.744 7.502)">
            <g id="Grupo_2143" data-name="Grupo 2143" transform="translate(1.565 1.636)">
              <g id="Grupo_2141" data-name="Grupo 2141" transform="translate(0.594 0.594)">
                <path id="Trazado_1518" data-name="Trazado 1518" d="M658.194,1531.989l1.82,1.821Z" transform="translate(-658.194 -1531.989)" fill="#0074ff"/>
              </g>
              <g id="Grupo_2142" data-name="Grupo 2142">
                <path id="Trazado_1519" data-name="Trazado 1519" d="M660.025,1534.415a.592.592,0,0,1-.42-.174l-1.82-1.82a.594.594,0,0,1,.84-.841l1.821,1.821a.594.594,0,0,1-.421,1.014Z" transform="translate(-657.611 -1531.406)" fill="#0074ff"/>
              </g>
            </g>
            <g id="Grupo_2146" data-name="Grupo 2146" transform="translate(0 5.518)">
              <g id="Grupo_2144" data-name="Grupo 2144" transform="translate(0.594 0.594)">
                <path id="Trazado_1520" data-name="Trazado 1520" d="M656.658,1535.8h0Z" transform="translate(-656.658 -1535.798)" fill="#0074ff"/>
              </g>
              <g id="Grupo_2145" data-name="Grupo 2145">
                <path id="Trazado_1521" data-name="Trazado 1521" d="M659.243,1536.4h-2.574a.594.594,0,0,1,0-1.188h2.574a.594.594,0,0,1,0,1.188Z" transform="translate(-656.075 -1535.215)" fill="#0074ff"/>
              </g>
            </g>
            <g id="Grupo_2149" data-name="Grupo 2149" transform="translate(1.637 7.548)">
              <g id="Grupo_2147" data-name="Grupo 2147" transform="translate(0.594 0.594)">
                <path id="Trazado_1522" data-name="Trazado 1522" d="M658.265,1539.611l1.82-1.821Z" transform="translate(-658.265 -1537.79)" fill="#0074ff"/>
              </g>
              <g id="Grupo_2148" data-name="Grupo 2148">
                <path id="Trazado_1523" data-name="Trazado 1523" d="M658.276,1540.216a.595.595,0,0,1-.42-1.015l1.82-1.82a.594.594,0,0,1,.841.84l-1.821,1.821A.592.592,0,0,1,658.276,1540.216Z" transform="translate(-657.682 -1537.207)" fill="#0074ff"/>
              </g>
            </g>
            <g id="Grupo_2152" data-name="Grupo 2152" transform="translate(5.518 8.359)">
              <g id="Grupo_2150" data-name="Grupo 2150" transform="translate(0.594 0.594)">
                <path id="Trazado_1524" data-name="Trazado 1524" d="M662.073,1541.161v0Z" transform="translate(-662.073 -1538.586)" fill="#0074ff"/>
              </g>
              <g id="Grupo_2151" data-name="Grupo 2151">
                <path id="Trazado_1525" data-name="Trazado 1525" d="M662.084,1541.766a.594.594,0,0,1-.594-.594V1538.6a.594.594,0,1,1,1.188,0v2.575A.594.594,0,0,1,662.084,1541.766Z" transform="translate(-661.49 -1538.003)" fill="#0074ff"/>
              </g>
            </g>
            <g id="Grupo_2155" data-name="Grupo 2155" transform="translate(7.548 7.476)">
              <g id="Grupo_2153" data-name="Grupo 2153" transform="translate(0.594 0.593)">
                <path id="Trazado_1526" data-name="Trazado 1526" d="M665.886,1539.54l-1.82-1.821Z" transform="translate(-664.066 -1537.719)" fill="#0074ff"/>
              </g>
              <g id="Grupo_2154" data-name="Grupo 2154">
                <path id="Trazado_1527" data-name="Trazado 1527" d="M665.9,1540.145a.592.592,0,0,1-.42-.174l-1.821-1.82a.594.594,0,1,1,.841-.841l1.82,1.821a.594.594,0,0,1-.42,1.014Z" transform="translate(-663.483 -1537.137)" fill="#0074ff"/>
              </g>
            </g>
            <g id="Grupo_2158" data-name="Grupo 2158" transform="translate(8.36 5.416)">
              <g id="Grupo_2156" data-name="Grupo 2156" transform="translate(0.594 0.594)">
                <path id="Trazado_1528" data-name="Trazado 1528" d="M667.436,1535.7h0Z" transform="translate(-664.862 -1535.698)" fill="#0074ff"/>
              </g>
              <g id="Grupo_2157" data-name="Grupo 2157">
                <path id="Trazado_1529" data-name="Trazado 1529" d="M667.447,1536.3h-2.574a.594.594,0,0,1,0-1.188h2.574a.594.594,0,0,1,0,1.188Z" transform="translate(-664.279 -1535.115)" fill="#0074ff"/>
              </g>
            </g>
            <g id="Grupo_2161" data-name="Grupo 2161" transform="translate(7.476 1.565)">
              <g id="Grupo_2159" data-name="Grupo 2159" transform="translate(0.594 0.594)">
                <path id="Trazado_1530" data-name="Trazado 1530" d="M665.815,1531.919l-1.82,1.82Z" transform="translate(-663.995 -1531.919)" fill="#0074ff"/>
              </g>
              <g id="Grupo_2160" data-name="Grupo 2160">
                <path id="Trazado_1531" data-name="Trazado 1531" d="M664.006,1534.344a.594.594,0,0,1-.42-1.014l1.82-1.821a.594.594,0,0,1,.84.841l-1.82,1.82A.592.592,0,0,1,664.006,1534.344Z" transform="translate(-663.412 -1531.336)" fill="#0074ff"/>
              </g>
            </g>
            <g id="Grupo_2164" data-name="Grupo 2164" transform="translate(5.416)">
              <g id="Grupo_2162" data-name="Grupo 2162" transform="translate(0.594 0.594)">
                <path id="Trazado_1532" data-name="Trazado 1532" d="M661.973,1530.383v0Z" transform="translate(-661.973 -1530.383)" fill="#0074ff"/>
              </g>
              <g id="Grupo_2163" data-name="Grupo 2163">
                <path id="Trazado_1533" data-name="Trazado 1533" d="M661.984,1533.562a.594.594,0,0,1-.594-.594v-2.574a.594.594,0,0,1,1.188,0v2.574A.594.594,0,0,1,661.984,1533.562Z" transform="translate(-661.39 -1529.8)" fill="#0074ff"/>
              </g>
            </g>
          </g>
          <g id="Grupo_2173" data-name="Grupo 2173" transform="translate(38.518 -0.303)">
            <path id="Trazado_1539" data-name="Trazado 1539" d="M581.249,1501.642a1.455,1.455,0,1,1-1.455-1.455A1.455,1.455,0,0,1,581.249,1501.642Z" transform="translate(-578.339 -1500.187)" fill="#0074ff"/>
          </g>
          <g id="Grupo_2174" data-name="Grupo 2174" transform="translate(11.321 20.71)">
            <path id="Trazado_1540" data-name="Trazado 1540" d="M643.134,1513.813h-3.68v-3.68a.6.6,0,0,0-1.193,0v3.68h-3.679a.6.6,0,1,0,0,1.193h3.679v3.68a.6.6,0,0,0,1.193,0v-3.68h3.68a.6.6,0,1,0,0-1.193Z" transform="translate(-633.985 -1509.537)" fill="#003891"/>
          </g>
        </g>
      </g>
    </g>
    <g id="Grupo_9058" data-name="Grupo 9058" transform="translate(-1747.486 940.444)">
      <path id="Trazado_1715" data-name="Trazado 1715" d="M1800.244-935.724c-.3.007-.6.022-.9.044s-.614.068-.92.114l-.209.032c-.266.039-.533.08-.793.136-.19.042-.38.093-.567.141-.158.041-.317.083-.477.119l-.136.034c-.119.027-.239.054-.355.085l-.07.017c-.149.037-.295.073-.438.12-.181.058-.312.1-.441.151l-.068,0c-.085,0-.156.014-.226.024a1.94,1.94,0,0,0-.368.1,4.625,4.625,0,0,0-.433.18c-.312.144-.614.3-.915.472l-.241.134c-.182.1-.363.2-.54.306-.219.134-.433.277-.645.421l-.158.107-.076.051c-.231.153-.462.306-.689.47a6.922,6.922,0,0,0-.549.452l-.1.093a11.443,11.443,0,0,0-1.263,1.265c-.188.226-.372.453-.543.691l-.231.336-.234.336c-.163.231-.326.462-.486.7-.1.146-.2.29-.307.43l-.176.239-.323.445c-.238.323-.475.647-.7.978-.153.224-.309.45-.469.672-.092.129-.19.251-.287.375l-.177.224a13.865,13.865,0,0,1-.988,1.149l-.28.3c-.273.285-.543.572-.83.839l-.056.059.005,0c-.139.1-.29.224-.44.345l-.163.132c-.226.185-.455.37-.686.547s-.489.353-.74.521l-.737.5c-.194.129-.4.25-.6.37l-.218.132c-.271.163-.54.326-.806.494-.163.1-.326.2-.492.3l-.34.207c-.27.168-.538.343-.8.521s-.55.36-.83.535-.572.37-.854.563c-.3.2-.6.421-.881.645-.219.173-.426.358-.63.545h-.008a.276.276,0,0,0-.214.09c-.116.131-.235.259-.358.383l-.155.163c-.129.12-.236.214-.336.312a2.012,2.012,0,0,0-.275.372c-.2.234-.378.433-.54.65-.109.146-.212.3-.314.448l-.153.224-.061.09c-.294.428-.6.873-.854,1.336-.117.214-.229.433-.336.655-.126.26-.236.531-.343.8s-.207.518-.3.779c-.088.244-.156.5-.227.747l-.044.168c-.054.2-.11.392-.151.589a8.375,8.375,0,0,0-.131.937c-.022.224-.03.448-.04.674l0,.1c-.009.258,0,.513.007.769.013.29.044.577.08.864a6.169,6.169,0,0,0,.129.776c.027.1.059.2.092.306l.056.175c.066.2.134.406.2.609a3.708,3.708,0,0,0,.209.47l.131.272c.064.124.125.25.18.378l0-.012c.054.126.107.25.168.372s.136.243.207.365l.069.114c.09.156.18.314.267.472.063.117.12.236.178.355l.085.178c.171.348.349.691.526,1.034.141.277.27.562.4.844l.088.195a5.573,5.573,0,0,1,.29.954c.022.1.049.2.073.3.042.153.08.309.107.465a2.076,2.076,0,0,1,.005.3c-.005.1-.017.2-.029.307,0,.029-.008.053-.01.08l-.027.2-.014.115a.091.091,0,0,0,0,.022v0l0,.046c-.012.078-.036.2-.063.319l-.039.214-.036.192-.053.277c-.039.209-.078.416-.125.623-.024.107-.046.214-.068.322-.034.171-.068.341-.115.509a7.37,7.37,0,0,1-.262.769,4.467,4.467,0,0,1-.3.511c-.068.11-.119.2-.17.287-.061.107-.125.214-.19.319-.141.219-.282.438-.409.667-.071.129-.136.263-.2.394s-.114.231-.175.346c-.1.185-.192.369-.287.557-.151.3-.3.6-.472.886-.111.188-.221.378-.331.57l-.056.095-.172.295c-.085.144-.168.285-.249.431-.143.26-.275.528-.406.793l-.056.115-.085.17-.115.231a.239.239,0,0,0-.032-.151.3.3,0,0,0-.28-.158.423.423,0,0,0-.081.008c-.18.044-.243.212-.3.362-.069.18-.112.312-.154.445-.1.3-.171.613-.243.922-.1.43-.183.9-.253,1.421l-.022.1-.022.095c-.033.156-.058.316-.08.475a13.922,13.922,0,0,0-.124,1.869,8.94,8.94,0,0,0,.058,1.029c.019.221.039.44.051.662.014.309.056.618.1.906a7.434,7.434,0,0,0,.217.908,6.373,6.373,0,0,0,.316.876,4.526,4.526,0,0,0,.438.73,4.529,4.529,0,0,0,.591.691c.061.059.124.115.19.171l.116.1.1.095.209.194a5.111,5.111,0,0,0,.66.5,4.916,4.916,0,0,0,.764.419,5.024,5.024,0,0,0,.82.28c.148.039.3.073.452.109s.295.066.441.1l.482.124.321.083c.1.027.2.049.307.07l.153.032a3.44,3.44,0,0,1,.513.134,3.568,3.568,0,0,1,.462.277c.146.122.282.249.419.385l.124.131.126.134c.115.115.236.222.356.326a.348.348,0,0,0,.231.09.3.3,0,0,0,.216-.09.289.289,0,0,0,.064-.09c.119.129.248.26.365.4.124.168.236.347.346.528.095.149.2.29.3.431l.066.092a6.164,6.164,0,0,1,.62,1.173l-.005-.017c.068.168.127.336.187.5a7.668,7.668,0,0,0,.336.837c.048.1.1.193.151.287l.034.061.039.073c.036.068.07.136.112.2a5.368,5.368,0,0,0,.374.521,3.069,3.069,0,0,0,.368.4c.18.156.362.309.547.455a6.545,6.545,0,0,0,.584.4,3.1,3.1,0,0,0,.525.239l.112.044a3.49,3.49,0,0,1,.5.3.3.3,0,0,0,.175.064.34.34,0,0,0,.285-.161.308.308,0,0,0,.024-.26c.124-.282.253-.591.36-.915.036-.114.073-.231.107-.345.056-.187.112-.373.182-.555.126-.3.224-.557.309-.822l.051-.166c.063-.2.126-.409.2-.608a24.889,24.889,0,0,1,1.407-2.869c.287-.5.584-.983.883-1.472.246-.409.507-.8.774-1.162-.031-.049-.062-.1-.09-.15l.166-.163c.153-.149.3-.306.442-.462l.061-.066c.124-.127.246-.255.367-.384l.117-.126c.09-.1.182-.188.275-.28l.221-.224.416-.406c.236-.231.47-.465.7-.693a.055.055,0,0,1,.013-.014v-.012a.2.2,0,0,1,.049-.144.192.192,0,0,1,.08-.049.125.125,0,0,1,.051-.01.159.159,0,0,1,.137-.095h.007a.15.15,0,0,1,.146.112v0c.153-.117.306-.236.46-.361.2-.157.387-.316.577-.479.163-.141.33-.275.5-.406l.428-.319c.171-.126.343-.25.511-.38.232-.175.466-.345.7-.516s.467-.336.713-.484.472-.272.711-.4c.267-.149.538-.3.8-.46.151-.092.295-.2.441-.3.085-.061.172-.124.26-.183l.053-.046v0a.3.3,0,0,0,.065,0,1.351,1.351,0,0,0,.424-.1,5.167,5.167,0,0,0,.528-.217,5.842,5.842,0,0,0,.671-.389c.09-.046.185-.092.275-.141.148-.08.292-.171.435-.263l.129-.08a12.847,12.847,0,0,0,1.083-.762c.185-.146.369-.292.552-.44.086-.068.171-.138.251-.211.117-.107.226-.2.226-.361.024-.039.051-.078.075-.119.039-.068.075-.139.112-.209s.075-.141.114-.212c.085-.153.183-.3.278-.447.065-.1.131-.2.194-.3.088-.139.173-.28.248-.424a2.8,2.8,0,0,0,.2-.584c.068-.27.132-.543.18-.815.053-.291.107-.584.156-.876s.088-.6.115-.905a5.776,5.776,0,0,0,.029-.857,1.435,1.435,0,0,0-.132-.55,1.035,1.035,0,0,0-.235-.326.416.416,0,0,0-.254-.109.271.271,0,0,0-.09-.122,1.034,1.034,0,0,0-.292-.146l-.07-.027-.177-.07-.18-.07c-.2-.081-.4-.166-.589-.255-.4-.188-.786-.4-1.18-.625a9.841,9.841,0,0,1-1.034-.679c-.37-.287-.735-.587-1.1-.886-.217-.18-.426-.37-.638-.557l-.363-.323c-.307-.266-.6-.54-.889-.825-.352-.38-.712-.8-1.165-1.363-.092-.114-.185-.231-.277-.35s-.182-.234-.277-.351c-.156-.192-.3-.394-.445-.6l-.153-.209a.311.311,0,0,0-.255-.124.4.4,0,0,0-.078.007c-.1-.161-.2-.329-.292-.5l-.037-.049v-.007c-.156-.282-.321-.577-.452-.881a6,6,0,0,1-.324-.929c-.009-.044-.019-.09-.027-.134a.329.329,0,0,0-.314-.282.33.33,0,0,0-.321.328c-.141.01-.284.029-.429.051l-.2.037a2.4,2.4,0,0,1-.37.054c-.162-.005-.325-.019-.492-.037l-.175-.017a4.49,4.49,0,0,1-.793-.127c-.239-.071-.478-.153-.713-.241a4.667,4.667,0,0,1-.65-.285,6.011,6.011,0,0,1-1.007-.805l.053.068a4.418,4.418,0,0,1-.486-.659,4.856,4.856,0,0,1-.4-.985,6.929,6.929,0,0,1-.115-.835l-.019-.236c-.014-.158-.029-.314-.032-.472s.027-.319.047-.479c.014-.1.027-.2.036-.3l.015-.173a4.622,4.622,0,0,1,.075-.586c.03-.085.063-.173.1-.258l.051-.131.043-.134a2.516,2.516,0,0,1,.122-.316,1.017,1.017,0,0,1,.073-.09l.29-.267c.158-.144.314-.287.465-.436l-.066.049a3.96,3.96,0,0,1,.582-.412,2.681,2.681,0,0,1,.533-.187h.01v0l0,0,.046-.008s-.03.005-.027.01c.049-.01.1-.019.156-.027s.088-.005.134-.005a.283.283,0,0,0,.048-.005.012.012,0,0,1,.008,0,4.234,4.234,0,0,1,.725.125,1.773,1.773,0,0,1,.268.106l.09.054c.127.078.254.156.38.236.092.059.18.124.267.19l.161.117a1.542,1.542,0,0,0,.234.131l.08.039a.259.259,0,0,0,.12.029.338.338,0,0,0,.3-.2.351.351,0,0,0,.022-.158h.022c.022,0,.044,0,.068,0,.285-.039.567-.1.849-.156l.151-.032c.144-.022.271-.044.4-.073.146-.029.29-.071.433-.112.231-.066.46-.146.684-.229a6.787,6.787,0,0,0,.774-.362,7.1,7.1,0,0,0,.742-.431l.056-.039c.212-.144.424-.29.625-.45l.07-.059c.2-.16.4-.318.594-.491s.363-.352.537-.535l.068-.073.18-.187.36-.375.112-.119c.148-.161.3-.319.438-.484a5.3,5.3,0,0,0,.426-.606c.083-.119.172-.229.263-.341l.122-.151c.1-.124.2-.248.3-.365a6.543,6.543,0,0,1,.472-.465l.064-.061.24-.224.322-.292a2.167,2.167,0,0,1,.2-.161c.083-.058.17-.111.26-.165.163-.1.333-.188.5-.273a6.026,6.026,0,0,1,1.248-.462l-.083,0c.472-.078,1.092-.188,1.73-.25.273-.024.545-.039.818-.044.248-.007.491-.032.735-.056l.187-.019c.136-.012.275-.017.412-.017.156,0,.309.007.462.017s.317.015.476.019l.38.017.107.005c.141.009.285.017.428.017a2.235,2.235,0,0,0,.258-.012c.09,0,.177-.019.268-.031l.129-.02c.149-.022.3-.044.443-.07a5.08,5.08,0,0,0,.771-.19,2.737,2.737,0,0,0,.528-.248c.134-.08.263-.172.394-.263l.092-.065a7.484,7.484,0,0,0,.6-.492l-.017.012a6.007,6.007,0,0,0,.8-.881,8.763,8.763,0,0,0,.533-.776l.129-.217c.107-.182.217-.365.307-.559a4.756,4.756,0,0,0,.268-.752,2.311,2.311,0,0,0,.07-.316,3.2,3.2,0,0,0,.032-.382c.012-.136.029-.273.046-.409l.027-.2.015-.146.017-.146a2.085,2.085,0,0,1,.063-.3,1.039,1.039,0,0,1,.056-.127,2.187,2.187,0,0,1,.265-.3,2.914,2.914,0,0,1,.258-.2q.08.084.161.161l.08.08c.195.18.35.326.521.46a8.543,8.543,0,0,0,.893.62c.068.042.136.078.2.115s.146.078.216.119l.232.139c.1.063.2.124.3.18.394.212.749.4,1.109.569.122.061.254.127.38.2.09.051.178.1.265.158l.192.115.173.1c.083.046.166.092.243.141.115.073.226.151.336.233.1.1.2.2.29.3l.041.046c.115.126.222.258.326.394a3.822,3.822,0,0,1,.24.423c.093.185.182.372.258.565s.116.37.16.557.078.407.1.613c.022.25.024.487.027.725,0,.292.01.579.024.868.008.158.01.316.012.475,0,.136,0,.275.01.413.012.307.037.613.063.92l.008-.071c0,.173.009.348.022.521.02.321.039.642.073.964a8.234,8.234,0,0,0,.2,1.173,6.76,6.76,0,0,0,.2.647c.042.119.086.241.139.355s.1.2.158.295a4.171,4.171,0,0,0,.416.586c.056.064.112.126.17.187.076.083.151.163.217.251a.364.364,0,0,0,.078.256.3.3,0,0,0,.236.109.329.329,0,0,0,.08-.009.319.319,0,0,0,.139-.034.3.3,0,0,0,.126-.124l.09-.019.095-.024.107-.027c.061-.017.125-.034.187-.049.083-.017.168-.027.253-.036s.144-.019.19-.029l.1-.017a1.071,1.071,0,0,1,.122.012,1.449,1.449,0,0,1,.263.1,4.169,4.169,0,0,1,.542.355l.066.049c.121.095.244.187.363.285a6.426,6.426,0,0,1,.761.964,5.968,5.968,0,0,1,.511,1.083,2.8,2.8,0,0,1,.119.66,4.656,4.656,0,0,1-.126,1.141,5.454,5.454,0,0,1-.421,1.267c-.087.153-.18.3-.274.45a3.936,3.936,0,0,1-.314.438,2.658,2.658,0,0,1-.248.246c-.093.075-.185.149-.282.217l-.122.085c-.148.1-.3.211-.45.314a2.928,2.928,0,0,1-.533.219l-.166.056-.292.1q-.223.084-.445.161a5.287,5.287,0,0,1-1.19.194h-.015a2.429,2.429,0,0,1-.537-.058l-.156-.031-.09-.02c-.1-.022-.2-.049-.3-.078-.061-.022-.116-.046-.175-.07l-.064-.027a.273.273,0,0,0-.116-.024.434.434,0,0,0-.258.095.815.815,0,0,0-.2.278c-.046.092-.087.182-.131.275s-.092.195-.141.292c0,0-.026.049-.048.095-.047.088-.074.141-.1.2-.106.209-.2.392-.287.574s-.178.363-.27.545c-.146.282-.287.54-.433.79s-.3.48-.453.718l-.075.114c-.166.253-.344.5-.523.74-.2.265-.375.5-.569.708-.226.234-.467.467-.718.684l-.253.219c-.165.146-.333.292-.506.43-.187.151-.384.287-.582.424-.111.075-.221.153-.328.231l-.287.214-.068.052c-.117.087-.236.165-.358.243l-.052.039.005,0c-.277.154-.6.324-.91.49l-.365.194c-.2.11-.406.219-.613.321-.153.075-.309.146-.465.219s-.292.136-.438.207a7.969,7.969,0,0,1-.737.307.391.391,0,0,0-.058.024c-.127.029-.238.055-.353.08-.063.012-.124.027-.185.044a.856.856,0,0,0-.231.083.332.332,0,0,0-.161.178.312.312,0,0,0-.017.138.329.329,0,0,0-.248.125.352.352,0,0,0-.056.24l0,.064,0,.112,0,.068s0,.041.007.041.008.029.008.029c-.01.141-.012.3-.017.453a5.02,5.02,0,0,0,.034.733l.029.285c.012.131.024.26.044.392.024.165.056.331.09.5l.049.249a10.7,10.7,0,0,0,.446,1.662,4.205,4.205,0,0,0,.656,1.248,3.222,3.222,0,0,0,.283.3l.221.217c.073.075.146.148.224.221.1.1.205.187.31.278l.18.158.107.1c.146.134.29.265.446.389.207.168.418.331.638.487l.192.139c.168.119.336.239.509.35a8.472,8.472,0,0,0,.742.426,6.9,6.9,0,0,0,.645.28c.238.095.47.207.7.317.506.245.971.476,1.428.718h0a14.071,14.071,0,0,1,1.338.813c.248.178.489.365.728.552.146.114.289.226.438.338.392.3.774.611,1.148.927.115.1.234.192.353.287l.245.194c.2.163.394.333.584.511l.295.294c.2.195.394.392.6.584l.121.117.124.117a.33.33,0,0,0,.048.046,10.987,10.987,0,0,1,1.2,1.324l.1.139c.054.073.1.148.161.221.088.117.177.231.27.346s.163.212.243.321l.056.078c.095.132.19.265.277.4s.163.287.236.423.134.251.2.372c.139.249.282.5.426.744.156.265.309.536.448.81.124.238.229.489.333.737l.041.095c.061.144.124.287.19.429l.119.263c.048.109.09.224.131.336.029.078.056.156.088.231.054.136.116.267.18.4.046.1.092.187.134.283l.085.194c.053.132.109.26.17.389.034.073.065.148.094.222.015.034.027.068.039.1s.027.082.046.124a.325.325,0,0,0,.17.161.325.325,0,0,0,.268.2c.09.007.18.012.268.012a3.218,3.218,0,0,0,.348-.019c.2-.017.389-.056.584-.092s.37-.083.543-.129a5.651,5.651,0,0,0,.572-.176c.18-.065.355-.138.533-.214.09-.039.182-.076.275-.112l.2-.081c.171-.068.334-.146.5-.228a5.107,5.107,0,0,0,.455-.268l.122-.078.3-.18c.168-.1.338-.2.5-.3h0c.246-.151.489-.3.725-.47s.465-.324.693-.489l.336-.241.336-.238a5.419,5.419,0,0,0,.467-.389l.177-.156.177-.153c.168-.139.334-.28.492-.428a7,7,0,0,0,.574-.628l.166-.19c.134-.156.27-.311.4-.472a3.144,3.144,0,0,0,.2-.291,3.659,3.659,0,0,0,.327-.6l.07-.143s.014-.032.012-.034a.1.1,0,0,1,0-.027,5.615,5.615,0,0,0,.348-.71c.095-.236.183-.48.268-.721.053-.151.082-.25.112-.353l.035-.119c.034-.122.065-.249.092-.378q.084-.4.146-.8a6.385,6.385,0,0,0,.017-1.647c-.026-.29-.058-.6-.115-.9-.036-.2-.087-.394-.136-.591l-.066-.27a3.837,3.837,0,0,0-.189-.567l-.117-.262-.083-.187c-.075-.173-.146-.346-.214-.521l-.058-.147-.056-.146c-.022-.054-.046-.1-.07-.156s-.047-.1-.069-.153c-.095-.214-.2-.423-.309-.633l-.116-.234a.238.238,0,0,0,.092-.126.384.384,0,0,0-.012-.25c-.034-.068-.047-.09-.056-.112-.049-.109-.075-.18-.1-.248s-.056-.144-.085-.212a4.62,4.62,0,0,0-.258-.535c-.1-.171-.212-.334-.324-.5-.47-.671-.939-1.344-1.394-2.02-.1-.16-.195-.316-.287-.477l-.073-.124-.073-.124c-.046-.078-.1-.151-.149-.226a.612.612,0,0,0-.068-.073c-.017-.044-.037-.09-.054-.139h0a4.515,4.515,0,0,1-.258-1.036c-.01-.28-.013-.564,0-.844.007-.161.022-.321.037-.48l.027-.3.017-.2c.019-.24.038-.481.07-.722.039-.309.085-.62.141-.924h0c0-.007,0-.015.005-.022a13,13,0,0,1,.452-1.55c.068-.192.141-.382.212-.572l.1-.263.134-.357c.058-.156.116-.314.18-.467l.063-.158c.1-.231.193-.465.283-.7s.163-.445.243-.666l.073-.2c.112-.316.222-.63.321-.949.088-.287.168-.574.244-.864l.022-.122,0,.005a.294.294,0,0,0,.116-.158c.032-.163.064-.326.085-.492.022-.148.032-.3.041-.453l0-.09c.015-.268.032-.537.03-.805a7.441,7.441,0,0,0-.032-.842,4.815,4.815,0,0,0-.114-.61l-.044-.195a5.57,5.57,0,0,0-.226-.774c-.051-.134-.107-.267-.163-.4q-.069-.161-.131-.321l-.122-.306c-.068-.173-.134-.346-.2-.516-.042-.1-.09-.192-.137-.287l-.041-.085-.117-.239-.078-.161c-.134-.272-.292-.554-.481-.866-.122-.2-.26-.387-.4-.574l-.141-.19-.127-.18-.157-.226c-.1-.136-.209-.263-.321-.389-.061-.068-.129-.136-.2-.2l-.1-.1c-.087-.093-.17-.19-.25-.29-.124-.151-.209-.254-.3-.356s-.171-.172-.26-.255l-.088-.08c-.149-.138-.295-.282-.438-.425l-.219-.217c-.2-.192-.4-.37-.613-.55l-.226-.2c-.165-.148-.331-.295-.5-.438-.214-.177-.43-.353-.652-.521-.068-.053-.139-.1-.209-.156l-.146-.107c-.08-.061-.161-.121-.238-.182l-.139-.11c-.092-.07-.183-.143-.272-.216s-.156-.139-.231-.212l-.109-.112c-.046-.048-.095-.1-.144-.146l-.124-.12c-.095-.09-.188-.18-.275-.275a5.77,5.77,0,0,1-.367-.467c-.073-.1-.151-.195-.229-.292l-.158-.2c-.139-.207-.258-.4-.378-.6-.1-.175-.187-.307-.267-.438l-.122-.195-.141-.241c-.073-.127-.146-.253-.229-.375a3.614,3.614,0,0,1-.314-.6c-.1-.287-.192-.528-.273-.774-.089-.263-.16-.533-.228-.8s-.136-.545-.2-.818l-.046-.18c-.054-.219-.107-.438-.146-.66-.041-.243-.095-.479-.151-.718l-.034-.151c-.068-.287-.134-.574-.189-.864l-.054-.275c-.037-.182-.073-.367-.115-.55l-.063-.263c-.049-.2-.1-.394-.141-.594l-.024-.1c-.029-.122-.056-.244-.09-.365-.054-.185-.112-.367-.177-.55l-.036-.095c-.117-.321-.234-.642-.368-.956-.171-.394-.353-.769-.545-1.114-.039-.071-.08-.142-.122-.212a.3.3,0,0,0,.034-.36,10.608,10.608,0,0,0-.7-.942,10.529,10.529,0,0,0-.817-.927c-.127-.12-.26-.231-.395-.343l-.08-.066c-.175-.146-.353-.289-.531-.43-.146-.112-.294-.221-.441-.331-.172-.126-.342-.253-.511-.384-.192-.149-.426-.324-.674-.484-.17-.11-.338-.212-.508-.317l-.183-.109a11.431,11.431,0,0,0-1.543-.759c-.272-.112-.547-.214-.825-.309s-.531-.183-.8-.263q-.322-.1-.65-.182l-.246-.068a7.115,7.115,0,0,0-.825-.176,5.509,5.509,0,0,0-.764-.058h-.124c-.114,0-.228.007-.341.007a3.254,3.254,0,0,1-.341-.014,3.122,3.122,0,0,1-.642-.151,4.27,4.27,0,0,1-.479-.294l-.122-.083c-.2-.138-.411-.265-.625-.387l-.181-.11c-.109-.068-.219-.133-.333-.192a7.444,7.444,0,0,0-.866-.365,7.659,7.659,0,0,0-.825-.258c-.27-.066-.543-.117-.815-.166l-.224-.039c-.477-.088-.954-.173-1.428-.263-.292-.051-.584-.1-.879-.136-.267-.029-.537-.054-.805-.078l-.574-.046c-.369-.032-.737-.061-1.1-.1-.582-.046-1.026-.068-1.448-.068-.1,0-.192,0-.29,0" transform="translate(-2.093 -3.558)" fill="#007aa4"/>
      <path id="Trazado_1716" data-name="Trazado 1716" d="M2055.928-446.47a3.966,3.966,0,0,0,3.973,3.953,3.965,3.965,0,0,0,3.953-3.973,3.964,3.964,0,0,0-3.973-3.953,3.965,3.965,0,0,0-3.954,3.973" transform="translate(-248.229 -415.474)" fill="#a7bf30" stroke="#707070" stroke-width="0.9"/>
      <path id="Trazado_1717" data-name="Trazado 1717" d="M2055.928-446.47a3.966,3.966,0,0,0,3.973,3.953,3.965,3.965,0,0,0,3.953-3.973,3.964,3.964,0,0,0-3.973-3.953,3.965,3.965,0,0,0-3.954,3.973" transform="translate(-248.229 -415.474)" fill="none" stroke="#007aa4" stroke-miterlimit="10" stroke-width="1"/>
      <path id="Trazado_1718" data-name="Trazado 1718" d="M1997.935-358.034a3.965,3.965,0,0,0,3.973,3.954,3.966,3.966,0,0,0,3.953-3.973,3.966,3.966,0,0,0-3.974-3.954,3.965,3.965,0,0,0-3.953,3.973" transform="translate(-199.004 -490.54)" fill="#a7bf30" stroke="#707070" stroke-width="0.9"/>
      <path id="Trazado_1719" data-name="Trazado 1719" d="M1997.935-358.034a3.965,3.965,0,0,0,3.973,3.954,3.966,3.966,0,0,0,3.953-3.973,3.966,3.966,0,0,0-3.974-3.954,3.965,3.965,0,0,0-3.953,3.973" transform="translate(-199.004 -490.54)" fill="none" stroke="#007aa4" stroke-miterlimit="10" stroke-width="1"/>
      <path id="Trazado_1720" data-name="Trazado 1720" d="M1908.143-401.517a4.14,4.14,0,0,0-.55.039c0,.068,0,.134-.005.2-.012.212-.027.421-.046.632-.01.125-.025.248-.039.371-.016.3-.029.6-.042.9-.024.659-.053,1.319-.063,1.978-.005.333-.01.667-.024,1s-.031.667-.053,1c-.01.18-.022.36-.029.54,0,.141,0,.283,0,.424,0,.163.01.324.024.486.008.092.017.184.028.276a3.89,3.89,0,0,0,.819.082,3.968,3.968,0,0,0,3.954-3.973,3.965,3.965,0,0,0-3.964-3.954Z" transform="translate(-122.062 -457.004)" fill="#a7bf30"/>
      <path id="Trazado_1721" data-name="Trazado 1721" d="M1908.143-401.517a4.14,4.14,0,0,0-.55.039c0,.068,0,.134-.005.2-.012.212-.027.421-.046.632-.01.125-.025.248-.039.371-.016.3-.029.6-.042.9-.024.659-.053,1.319-.063,1.978-.005.333-.01.667-.024,1s-.031.667-.053,1c-.01.18-.022.36-.029.54,0,.141,0,.283,0,.424,0,.163.01.324.024.486.008.092.017.184.028.276a3.89,3.89,0,0,0,.819.082,3.968,3.968,0,0,0,3.954-3.973,3.965,3.965,0,0,0-3.964-3.954Z" transform="translate(-122.062 -457.004)" fill="none" stroke="#007aa4" stroke-miterlimit="10" stroke-width="0.9"/>
      <path id="Trazado_1722" data-name="Trazado 1722" d="M1933.288-477.519a3.965,3.965,0,0,0,3.973,3.953,3.966,3.966,0,0,0,3.954-3.973,3.965,3.965,0,0,0-3.974-3.953,3.965,3.965,0,0,0-3.953,3.973" transform="translate(-144.13 -389.12)" fill="#a7bf30" stroke="#707070" stroke-width="0.9"/>
      <path id="Trazado_1723" data-name="Trazado 1723" d="M1933.288-477.519a3.965,3.965,0,0,0,3.973,3.953,3.966,3.966,0,0,0,3.954-3.973,3.965,3.965,0,0,0-3.974-3.953,3.965,3.965,0,0,0-3.953,3.973" transform="translate(-144.13 -389.12)" fill="none" stroke="#007aa4" stroke-miterlimit="10" stroke-width="1"/>
      <path id="Trazado_1724" data-name="Trazado 1724" d="M1980.561-421.922a2.411,2.411,0,0,0,2.417,2.4,2.412,2.412,0,0,0,2.405-2.417,2.412,2.412,0,0,0-2.417-2.405,2.412,2.412,0,0,0-2.405,2.417" transform="translate(-184.257 -437.632)" fill="#a7bf30" stroke="#707070" stroke-width="0.9"/>
      <path id="Trazado_1725" data-name="Trazado 1725" d="M1980.561-421.922a2.411,2.411,0,0,0,2.417,2.4,2.412,2.412,0,0,0,2.405-2.417,2.412,2.412,0,0,0-2.417-2.405,2.412,2.412,0,0,0-2.405,2.417" transform="translate(-184.257 -437.632)" fill="none" stroke="#007aa4" stroke-miterlimit="10" stroke-width="1"/>
      <path id="Trazado_1726" data-name="Trazado 1726" d="M2088.208-369.729a2.411,2.411,0,0,0,2.417,2.4,2.411,2.411,0,0,0,2.405-2.417,2.411,2.411,0,0,0-2.417-2.4,2.412,2.412,0,0,0-2.4,2.417" transform="translate(-275.629 -481.934)" fill="#a7bf30" stroke="#707070" stroke-width="0.9"/>
      <path id="Trazado_1727" data-name="Trazado 1727" d="M2088.208-369.729a2.411,2.411,0,0,0,2.417,2.4,2.411,2.411,0,0,0,2.405-2.417,2.411,2.411,0,0,0-2.417-2.4,2.412,2.412,0,0,0-2.4,2.417" transform="translate(-275.629 -481.934)" fill="none" stroke="#007aa4" stroke-miterlimit="10" stroke-width="1"/>
      <path id="Trazado_1728" data-name="Trazado 1728" d="M2100.177-506.248a2.411,2.411,0,0,0-2.4,2.416,2.413,2.413,0,0,0,2.416,2.406,2.435,2.435,0,0,0,.665-.1c0-.105,0-.211.01-.316.007-.143.012-.285.022-.426l.029-.4c.017-.239.036-.48.063-.72.027-.258.056-.518.088-.776.012-.12.027-.239.044-.358.019-.138.039-.277.061-.418s.046-.262.068-.391c.019-.11.044-.219.066-.329.021-.094.042-.187.066-.279a2.4,2.4,0,0,0-1.189-.312Z" transform="translate(-283.748 -368.106)" fill="#a7bf30" stroke="#707070" stroke-width="0.9"/>
      <path id="Trazado_1729" data-name="Trazado 1729" d="M2100.177-506.248a2.411,2.411,0,0,0-2.4,2.416,2.413,2.413,0,0,0,2.416,2.406,2.435,2.435,0,0,0,.665-.1c0-.105,0-.211.01-.316.007-.143.012-.285.022-.426l.029-.4c.017-.239.036-.48.063-.72.027-.258.056-.518.088-.776.012-.12.027-.239.044-.358.019-.138.039-.277.061-.418s.046-.262.068-.391c.019-.11.044-.219.066-.329.021-.094.042-.187.066-.279a2.4,2.4,0,0,0-1.189-.312Z" transform="translate(-283.748 -368.106)" fill="none" stroke="#007aa4" stroke-miterlimit="10" stroke-width="1"/>
      <path id="Trazado_1731" data-name="Trazado 1731" d="M1926.153-560.231l1.772-1.318,2.1,4.592,3.627,4.007,3,1.854,4.045.752,3.863-.684,2.927-1.454a18.986,18.986,0,0,0,6.173-8.473l1.6,1.09a18.08,18.08,0,0,1-7.949,10.1c-6.347,3.773-13.772.7-16.15-2.544,0,0-4.061-3.945-5.012-7.925" transform="translate(-138.074 -321.166)" fill="#a7bf30"/>
      <path id="Trazado_1732" data-name="Trazado 1732" d="M1872.335-635.843c0-.029.008-.056.013-.083a9.014,9.014,0,0,1-.547,2.146c-.086.192-.178.38-.28.562a4.983,4.983,0,0,1-.411.608c.013-.014.024-.031.037-.044l-.037.046c-.005.005-.007.01-.012.015a.05.05,0,0,0,.009-.015,8.2,8.2,0,0,1-1.365,1.319,27.951,27.951,0,0,1-4.032,2.343c-.688.357-1.362.735-2.022,1.144s-1.3.851-1.922,1.319a25.38,25.38,0,0,0-3.389,3.054,24.614,24.614,0,0,0-2.749,3.6,25,25,0,0,0-2.068,4.107,36.2,36.2,0,0,0-1.479,4.89,63.971,63.971,0,0,0-1.617,11.1c-.122,1.988-.151,3.981-.1,5.971q.04,1.438.138,2.876c.032.472.071.944.114,1.416.035.384.073.764.122,1.146h.623c-.084-.669-.143-1.343-.2-2.017-.051-.657-.09-1.316-.124-1.976q-.1-2.069-.071-4.139a68.714,68.714,0,0,1,.6-8.239c0,.027-.006.054-.009.083a60.646,60.646,0,0,1,1.124-6.049,35.172,35.172,0,0,1,1.669-5.362.246.246,0,0,0,.014-.032l0,0,0,0s.005-.012.008-.017v0a24.722,24.722,0,0,1,3.146-5.377c-.017.019-.032.041-.048.06a24.912,24.912,0,0,1,4.414-4.4c-.005,0-.01.008-.015.009s.017-.014.027-.022a.045.045,0,0,0-.012.012c.007-.008.017-.012.024-.019s.008-.008.012-.01l0,0a27.774,27.774,0,0,1,3.869-2.46,33.779,33.779,0,0,0,4.071-2.319,8.761,8.761,0,0,0,1.674-1.543,5.694,5.694,0,0,0,.567-.832,6.27,6.27,0,0,0,.433-.98,9.665,9.665,0,0,0,.463-2.16,14.583,14.583,0,0,0,.056-2.295c-.009-.185-.021-.371-.037-.555a2.892,2.892,0,0,1-.455-.153c-.065-.027-.129-.057-.192-.086a14.713,14.713,0,0,1-.029,3.362" transform="translate(-73.72 -255.251)" fill="#007aa4" stroke="#007aa4" stroke-width="0.5"/>
      <path id="Trazado_1733" data-name="Trazado 1733" d="M1987.72-595.576h0v0a0,0,0,0,1,0,0" transform="translate(-190.333 -292.282)" fill="#007aa4"/>
      <path id="Trazado_1734" data-name="Trazado 1734" d="M1926.953-550.706l0,0Z" transform="translate(-138.753 -330.368)" fill="#007aa4"/>
      <path id="Trazado_1735" data-name="Trazado 1735" d="M1876.978-486.244a.062.062,0,0,1-.008.018.062.062,0,0,0,.008-.018" transform="translate(-96.327 -385.086)" fill="#007aa4"/>
      <path id="Trazado_1736" data-name="Trazado 1736" d="M1900.937-436.223a146.782,146.782,0,0,1-.852,19.922h.623a146.783,146.783,0,0,0,.852-19.922.316.316,0,0,0-.311-.311.314.314,0,0,0-.312.311" transform="translate(-115.947 -427.281)" fill="#007aa4" stroke="#007aa4" stroke-width="0.5"/>
      <path id="Trazado_1737" data-name="Trazado 1737" d="M2041.586-639.025l-.19.048c-.018.211-.033.422-.043.634a14.428,14.428,0,0,0,.056,2.294,9.716,9.716,0,0,0,.462,2.161,6.284,6.284,0,0,0,.433.98,5.732,5.732,0,0,0,.567.832,8.76,8.76,0,0,0,1.674,1.543,33.724,33.724,0,0,0,4.071,2.318,27.378,27.378,0,0,1,3.868,2.46l0,0c.005,0,.01.007.015.012s.014.013.022.018l0,0,.016.012-.012-.007a24.946,24.946,0,0,1,4.414,4.4c-.017-.019-.032-.041-.049-.061a24.776,24.776,0,0,1,3.147,5.378v0a.319.319,0,0,1,.02.044,35.053,35.053,0,0,1,1.669,5.363,60.463,60.463,0,0,1,1.125,6.049c0-.029-.008-.056-.01-.083a68.69,68.69,0,0,1,.6,8.239q.026,2.069-.07,4.138c-.034.66-.073,1.319-.124,1.976-.054.674-.112,1.348-.2,2.017h.623c.049-.38.088-.761.119-1.146q.066-.707.114-1.416.1-1.438.139-2.876c.049-1.991.02-3.983-.1-5.971a63.986,63.986,0,0,0-1.618-11.1,36.058,36.058,0,0,0-1.48-4.89,24.956,24.956,0,0,0-2.068-4.107,24.648,24.648,0,0,0-2.749-3.6,25.414,25.414,0,0,0-3.39-3.054q-.931-.7-1.922-1.318c-.659-.409-1.333-.786-2.022-1.144a27.933,27.933,0,0,1-4.031-2.343,8.238,8.238,0,0,1-1.365-1.319,0,0,0,0,1,0,0,0,0,0,0,0,0,0l0-.005-.008-.01.005.006-.005-.006a5.814,5.814,0,0,1-.4-.6c-.1-.183-.194-.37-.28-.563a9.078,9.078,0,0,1-.548-2.146c0,.027.007.054.012.083a14.717,14.717,0,0,1-.03-3.349,2.949,2.949,0,0,1-.449.1" transform="translate(-235.839 -255.318)" fill="#007aa4" stroke="#007aa4" stroke-width="0.5"/>
      <path id="Trazado_1738" data-name="Trazado 1738" d="M2165.009-486.258a0,0,0,0,1,0,0,0,0,0,0,0,0,0" transform="translate(-340.817 -385.072)" fill="#007aa4"/>
      <path id="Trazado_1739" data-name="Trazado 1739" d="M2165.019-486.238a0,0,0,0,0,0,0Z" transform="translate(-340.826 -385.09)" fill="#007aa4"/>
      <path id="Trazado_1740" data-name="Trazado 1740" d="M2115.072-550.706v0Z" transform="translate(-298.43 -330.368)" fill="#007aa4"/>
      <path id="Trazado_1741" data-name="Trazado 1741" d="M2165.021-486.225a.006.006,0,0,0,0,0,.006.006,0,0,1,0,0" transform="translate(-340.827 -385.1)" fill="#007aa4"/>
      <path id="Trazado_1742" data-name="Trazado 1742" d="M2131.873-436.223a146.762,146.762,0,0,0,.852,19.922h.623a146.842,146.842,0,0,1-.852-19.922.314.314,0,0,0-.312-.311.316.316,0,0,0-.311.311" transform="translate(-312.644 -427.281)" fill="#007aa4" stroke="#007aa4" stroke-width="0.5"/>
      <path id="Trazado_1743" data-name="Trazado 1743" d="M2010.923-637.855h0" transform="translate(-210.026 -256.396)" fill="#007aa4"/>
      <path id="Trazado_1744" data-name="Trazado 1744" d="M2010.924-637.851h0Z" transform="translate(-210.028 -256.4)" fill="#007aa4"/>
      <path id="Trazado_1745" data-name="Trazado 1745" d="M1936.336-562.311a.314.314,0,0,0-.216.385,20.558,20.558,0,0,0,1.737,3.808,17.312,17.312,0,0,0,2.769,3.555,14.694,14.694,0,0,0,2.081,1.694,12.943,12.943,0,0,0,2.419,1.268,11.451,11.451,0,0,0,5.375.749,11.829,11.829,0,0,0,1.886-.351,11.891,11.891,0,0,0,1.777-.647,13.4,13.4,0,0,0,3.2-2.063,15.519,15.519,0,0,0,2.18-2.3,18.335,18.335,0,0,0,1.455-2.173l.006-.009.005-.01q.319-.563.6-1.149v0c.012-.024.025-.049.036-.075h0l.032-.069.027-.059.01-.022.008-.015c.032-.068.064-.136.095-.207a.466.466,0,0,0,.019-.046c.129-.286.252-.574.368-.866l0-.006.008-.02c0-.012.01-.023.014-.035v0c.011-.026.021-.052.031-.078l0-.006v0a.108.108,0,0,0,0-.013s0,0,0,0v0a.123.123,0,0,0,.007-.02c.017-.041.031-.08.046-.121a.312.312,0,0,0-.217-.382.31.31,0,0,0-.24.032.338.338,0,0,0-.144.185c-.01.031-.023.061-.034.092a.3.3,0,0,1-.012.029c0,.006,0,.011-.005.017l-.007.015s0,0,0,0l-.035.09a.076.076,0,0,0-.005.014c-.008.021-.017.041-.025.062a.012.012,0,0,1,0,0l0,.006v0c-.042.105-.085.209-.127.311-.074.172-.15.345-.227.514l-.057.124s0,.008-.007.012l-.027.062c-.008.014-.014.029-.021.043l-.011.024c-.009.021-.019.042-.03.064-.192.395-.394.786-.61,1.169l0,0a.077.077,0,0,0-.011.02,17.961,17.961,0,0,1-1.37,2.065,15.769,15.769,0,0,1-2.708,2.73,13.108,13.108,0,0,1-2.781,1.634l.009,0a11.661,11.661,0,0,1-2.864.784l.083-.01a11.476,11.476,0,0,1-2.986,0,11.877,11.877,0,0,1-2.747-.76h0l-.039-.016.033.014a13.17,13.17,0,0,1-2.8-1.644,15.464,15.464,0,0,1-2.7-2.716,18.965,18.965,0,0,1-2.363-4.071.138.138,0,0,1,0,.013l-.019-.046-.013-.03,0,.008c-.181-.438-.347-.88-.5-1.327a.323.323,0,0,0-.3-.23.34.34,0,0,0-.081.011m3.277,5.679.03.039-.03-.039m16.823,2.678-.028.022.028-.022m-14.173,0,.025.019-.025-.019m5.641,2.444.031,0-.031,0m-2.8-.768h0l-.006,0,.006,0m-7.876-8.466.014.032a.506.506,0,0,0-.023-.054Z" transform="translate(-146.522 -320.51)" fill="#007aa4" stroke="#007aa4" stroke-width="0.5"/>
      <path id="Trazado_1746" data-name="Trazado 1746" d="M1924.767-554.547a.311.311,0,0,0-.22.382q.2.572.423,1.134a.083.083,0,0,0,.006.017l.028.067,0,.012c.027.065.054.129.081.193a.08.08,0,0,0,0,.01q.243.585.515,1.154l.008.019.021.042.025.053.008.014c.021.043.043.086.064.129,0,.011.009.022.014.032.036.071.073.144.11.214a.087.087,0,0,0,.011.019c.212.412.437.816.672,1.214.008.012.015.026.023.037a.169.169,0,0,0,.017.025,19.689,19.689,0,0,0,2.947,3.776,15.661,15.661,0,0,0,4.168,2.988,13.589,13.589,0,0,0,2.473.919,13.087,13.087,0,0,0,2.532.4,12.927,12.927,0,0,0,4.859-.657,14.956,14.956,0,0,0,5.212-3.1,19.159,19.159,0,0,0,3.788-4.768l.013-.021c.071-.127.141-.254.211-.381l0-.006.051-.095.006-.011q.249-.467.477-.947l0-.009c.009-.018.017-.036.025-.055l.079-.167.014-.034.005-.012,0-.006.043-.095c.005-.011.01-.022.015-.033q.208-.461.4-.931l0-.007,0,0,0-.007v-.005c.011-.027.022-.054.031-.081a.107.107,0,0,0,.005-.011l.006-.015c.016-.038.032-.077.046-.115s.032-.083.049-.125c0-.007,0-.014.006-.021a.147.147,0,0,0,.005-.016v0l.029-.076c.005-.012.009-.023.014-.036v0a.312.312,0,0,0-.217-.382.324.324,0,0,0-.241.032.328.328,0,0,0-.143.185c-.032.085-.064.168-.1.25a.065.065,0,0,0,0,.009.106.106,0,0,0,0,.01l-.013.034c-.011.029-.023.058-.034.087l-.009.02c-.009.026-.019.051-.029.077l-.02.047a.043.043,0,0,1,0,.009c-.046.116-.095.231-.141.344.01-.027.019-.051.029-.076-.084.2-.171.4-.261.6l-.031.067,0,.009c-.03.064-.06.128-.09.195q-.247.522-.52,1.032c-.08.148-.161.3-.244.44a20.993,20.993,0,0,1-1.55,2.34l.005-.007-.014.019-.034.045.021-.028a17.689,17.689,0,0,1-3,3.03l.01-.007-.042.032-.021.016.005,0a14.959,14.959,0,0,1-3.148,1.847l.013-.006-.036.015-.039.017.012-.006a13.213,13.213,0,0,1-3.214.865l.082-.013a12.883,12.883,0,0,1-3.27,0l.083.01a13.207,13.207,0,0,1-3.267-.881l.034.015a14.958,14.958,0,0,1-3.151-1.834l.009.007c-.011-.008-.021-.016-.032-.025l-.031-.024.009.007a17.911,17.911,0,0,1-3.088-3.117,21.3,21.3,0,0,1-1.311-1.935l-.008-.013q-.354-.6-.674-1.221l-.028-.056s0-.006-.006-.01l-.031-.063a.035.035,0,0,0,0-.009l0,0-.022-.048-.008-.015c-.042-.085-.083-.168-.123-.253a.143.143,0,0,0-.012-.021q-.221-.463-.421-.933l.005.01a.174.174,0,0,0-.009-.018c-.007-.018-.016-.037-.023-.055,0,.012.009.022.014.033l-.01-.023-.077-.189a.083.083,0,0,0,0-.012q-.251-.62-.469-1.25a.324.324,0,0,0-.3-.229.307.307,0,0,0-.084.012m19.442,11.289.028-.011.023-.009a.491.491,0,0,0-.05.021m-9.586-.017-.039-.017Zm-3.14-1.838.023.018c-.014-.012-.029-.024-.045-.035l.022.017m15.923-.013.016-.012.032-.026c-.017.012-.033.024-.048.037m3.052-3.067.014-.017.009-.012-.023.029" transform="translate(-136.699 -327.099)" fill="#007aa4" stroke="#007aa4" stroke-width="0.5"/>
      <path id="Trazado_1747" data-name="Trazado 1747" d="M2119.03-541.072a47.007,47.007,0,0,0-1.489,8.082,15.209,15.209,0,0,0,.25,4.2,8.916,8.916,0,0,0,.628,1.876,7.012,7.012,0,0,0,1.048,1.63c.049.061.1.12.156.178a.316.316,0,0,0,.441,0,.316.316,0,0,0,0-.441c-.118-.129-.229-.26-.337-.4a7.364,7.364,0,0,1-.846-1.452l.011.028-.027-.062-.005-.013a.02.02,0,0,1,0,.006,9.868,9.868,0,0,1-.625-2.407c0,.029.007.056.009.083a19.035,19.035,0,0,1,.093-4.976c0,.029-.008.055-.01.082a59.259,59.259,0,0,1,1.3-6.258.316.316,0,0,0-.219-.382.3.3,0,0,0-.079-.01.31.31,0,0,0-.3.227m.7,15.137c.01.012.02.025.029.038l-.029-.038m-.864-1.489c.005.011.011.022.015.034a.352.352,0,0,0-.019-.042.025.025,0,0,1,0,.008" transform="translate(-300.491 -338.355)" fill="#007aa4" stroke="#007aa4" stroke-width="0.5"/>
      <path id="Trazado_1748" data-name="Trazado 1748" d="M1907.957-545.809a.315.315,0,0,0-.217.384,33.075,33.075,0,0,1,.781,3.954c0-.027-.006-.056-.012-.083a24.673,24.673,0,0,1,.073,6.436c0-.027.007-.056.012-.083a14.954,14.954,0,0,1-.986,3.759v0a10.845,10.845,0,0,1-1.167,2.071.312.312,0,0,0,.112.425.312.312,0,0,0,.239.032.345.345,0,0,0,.187-.143,14.51,14.51,0,0,0,2.387-8.013,26.552,26.552,0,0,0-.224-4.39,32.568,32.568,0,0,0-.8-4.129.315.315,0,0,0-.3-.23.319.319,0,0,0-.08.011" transform="translate(-121.306 -334.517)" fill="#007aa4" stroke="#007aa4" stroke-width="0.5"/>
      <path id="Trazado_1749" data-name="Trazado 1749" d="M1899.615-758.588h0Z" transform="translate(-115.548 -153.916)" fill="#ac313e"/>
      <path id="Trazado_1750" data-name="Trazado 1750" d="M2009.55-713.366l-.009.1v0c0,.037-.007.072-.011.108a.125.125,0,0,0,0,.013l0,.016a.063.063,0,0,0,0,.01,4.207,4.207,0,0,1-.283,1.045,3.609,3.609,0,0,1-.428.724h0a3.092,3.092,0,0,1-.432.435,3,3,0,0,1-.486.291,2.484,2.484,0,0,1-.5.135,2.5,2.5,0,0,1-.434,0,2.383,2.383,0,0,1-.479-.13,2.8,2.8,0,0,1-.482-.283,3.149,3.149,0,0,1-.476-.483l-.007-.009-.007-.009a4.018,4.018,0,0,1-.388-.675,4.465,4.465,0,0,1-.281-1.058c0-.007,0-.013,0-.019a.4.4,0,0,0-.108-.262.376.376,0,0,0-.265-.111.366.366,0,0,0-.262.111.35.35,0,0,0-.111.262,5.942,5.942,0,0,0,.131.749,4.307,4.307,0,0,0,.23.65,4.016,4.016,0,0,0,.543.9l.005.008.015.016a3.244,3.244,0,0,0,.93.783,2.71,2.71,0,0,0,1.143.317,2.607,2.607,0,0,0,.705-.072,2.568,2.568,0,0,0,.743-.312,3.521,3.521,0,0,0,1.356-1.592,4.689,4.689,0,0,0,.38-1.42.041.041,0,0,0,0-.014.081.081,0,0,0,0-.015.053.053,0,0,0,0-.014.078.078,0,0,0,0-.015c.008-.059.012-.119.017-.181a.376.376,0,0,0-.373-.373.38.38,0,0,0-.374.373m-3.586,2.44a.258.258,0,0,1,.029.02c-.009-.007-.019-.013-.029-.02m.907.428.045.005-.045-.005" transform="translate(-204.743 -191.317)" fill="#007aa4" stroke="#007aa4" stroke-width="0.5"/>
      <path id="Trazado_1751" data-name="Trazado 1751" d="M2009.259-759.719a.32.32,0,0,0-.093.215,2.947,2.947,0,0,1-.188.645,17.624,17.624,0,0,1-.851,1.6c-.143.258-.28.518-.4.786a3.94,3.94,0,0,0-.282.808,1.891,1.891,0,0,0-.012.718,1.249,1.249,0,0,0,.353.64,1.568,1.568,0,0,0,.336.253,2.573,2.573,0,0,0,.452.2,3.158,3.158,0,0,0,.655.148c.1.012.209.019.316.024a2.8,2.8,0,0,0,.406-.039.3.3,0,0,0,.185-.143.31.31,0,0,0,.032-.241.306.306,0,0,0-.144-.185.338.338,0,0,0-.239-.031l-.047.006a2.591,2.591,0,0,1-.47-.009,3.844,3.844,0,0,1-.648-.176,1.962,1.962,0,0,1-.312-.175,1.224,1.224,0,0,1-.153-.151,1.158,1.158,0,0,1-.077-.134,1.266,1.266,0,0,1-.046-.165,1.506,1.506,0,0,1,0-.283,3.032,3.032,0,0,1,.193-.656c.262-.6.609-1.166.926-1.742a8.526,8.526,0,0,0,.413-.85c.054-.131.1-.26.141-.394a2.567,2.567,0,0,0,.085-.455.29.29,0,0,0-.09-.218.315.315,0,0,0-.222-.093.3.3,0,0,0-.219.093m-.284.871-.013.032a.285.285,0,0,1,.013-.032m-.937,3.377c0,.009,0,.016,0,.025,0-.009,0-.016,0-.025m.6.985.036.015-.036-.015" transform="translate(-207.04 -152.878)" fill="#007aa4" stroke="#007aa4" stroke-width="0.5"/>
      <path id="Trazado_1752" data-name="Trazado 1752" d="M1943.669-759.341c0,.022-.005.041-.007.063v0c-.03.275-.061.55-.1.825v0c-.032.219-.063.435-.1.654a26.164,26.164,0,0,1-1.409,5.2v0c-.017.041-.034.083-.049.124s-.021.056-.034.083-.012.032-.017.049c-.038.09-.075.182-.112.273v0a.009.009,0,0,1,0,.007c0,.008-.005.012-.007.02l0,0s0,0,0,.007,0,0,0,.007,0,.005,0,.007a.01.01,0,0,0,0,.008.006.006,0,0,0,0,0v0q-.339.8-.737,1.576h0c-.024.051-.051.1-.08.156-.01.017-.019.036-.029.056s-.034.068-.054.1-.029.054-.041.08-.029.051-.042.075-.036.065-.054.1-.022.039-.031.059c-.022.036-.044.075-.063.114a.357.357,0,0,1-.025.039l-.065.116-.022.039c-.022.039-.046.08-.07.119a.149.149,0,0,1-.019.034c-.022.039-.043.078-.068.117l-.022.039c-.024.037-.046.075-.068.112-.01.014-.017.029-.024.041-.022.037-.044.073-.068.11a.461.461,0,0,1-.026.044c-.022.037-.044.073-.069.11a.358.358,0,0,1-.027.044l-.065.1c-.01.017-.022.034-.032.049l-.066.1c-.009.017-.022.034-.031.051l-.064.1c-.012.017-.024.036-.036.056s-.042.06-.064.092-.024.039-.037.056l-.06.09c-.015.02-.026.039-.042.061s-.041.056-.06.085-.029.044-.044.063-.036.053-.056.08-.031.047-.049.068l-.058.08c-.015.022-.029.044-.047.066s-.039.051-.058.078-.032.046-.048.068-.039.051-.059.076-.034.046-.051.068-.037.051-.056.075-.032.041-.046.061a18.574,18.574,0,0,1-3.207,3.231v0a.19.19,0,0,1-.022.015v0a15.821,15.821,0,0,1-3.239,1.908s0,0,0,0h0a.144.144,0,0,1-.025.012l-.027.012a.07.07,0,0,1,.017-.01,13.926,13.926,0,0,1-3.061.883h-.009l-.037.008c-.073.012-.146.022-.219.032a13.454,13.454,0,0,1-2.9.073.007.007,0,0,0-.007,0l-.088-.007-.037,0a.4.4,0,0,0-.054,0l-.07-.007a.039.039,0,0,0-.017,0c-.1-.01-.207-.022-.306-.037a0,0,0,0,0,0,0,.2.2,0,0,0-.039-.005.137.137,0,0,1-.032,0c-.01,0-.02,0-.027-.005h0c.01,0,.02,0,.026.005a13.83,13.83,0,0,1-1.72-.37l-.03-.008c-.022-.005-.046-.012-.068-.019l-.078-.022-.024-.008c-.353-.1-.7-.224-1.051-.357a.009.009,0,0,0-.007,0c-.027-.01-.051-.022-.078-.032l-.039-.014-.044-.017-.146-.058a.265.265,0,0,1-.039-.018.009.009,0,0,1-.007,0l0,0h0s0,0,0,0a.07.07,0,0,1-.021-.007,15.813,15.813,0,0,1-1.665-.852c-.029-.018-.058-.034-.088-.053l-.012-.008c-.032-.017-.063-.037-.093-.056,0,0-.007-.005-.012-.005-.027-.019-.056-.036-.085-.053,0,0-.012-.007-.017-.012l-.073-.044-.032-.022c-.022-.012-.044-.027-.063-.039l-.044-.029-.046-.029-.061-.039-.032-.023c-.027-.017-.053-.034-.08-.053,0,0-.007,0-.009-.005-.292-.2-.579-.4-.859-.616a18.678,18.678,0,0,1-2.951-2.912c-.085-.1-.168-.207-.248-.312a21.905,21.905,0,0,1-1.837-2.83v0l-.08-.146c-.017-.034-.037-.07-.056-.1l-.022-.041q-.448-.858-.83-1.751c-.014-.029-.027-.061-.039-.093s-.019-.049-.029-.07-.027-.061-.039-.093l-.051-.126-.014-.036a26.122,26.122,0,0,1-1.6-6.146v.019c-.008-.063-.017-.126-.024-.19-.117-.085-.236-.17-.353-.255-.1-.066-.209-.126-.316-.185a27.274,27.274,0,0,0,.428,2.728q.1.5.224.985a25.39,25.39,0,0,0,1.185,3.572c.012.029.024.061.037.09a.033.033,0,0,1,0,.014c.053.125.107.251.163.375a21.891,21.891,0,0,0,2.774,4.686c.063.085.131.168.2.251.051.065.1.131.158.194a17.981,17.981,0,0,0,1.834,1.944c.032.027.064.056.095.085,0,0,.008,0,.01.01.217.194.438.382.664.567h0l.11.087.044.037.066.051c.029.024.058.046.087.068a.16.16,0,0,0,.022.017c.177.138.358.27.54.4,0,0,.005,0,.007.005.042.029.08.056.12.085a.09.09,0,0,0,.017.009c.178.127.36.249.543.365a.013.013,0,0,0,.01.005,0,0,0,0,0,0,0c.005,0,.012.007.017.012a14.5,14.5,0,0,0,3.173,1.521.009.009,0,0,1,.005,0l.109.036.116.037,0,0c.3.095.6.18.9.255a13.411,13.411,0,0,0,5.085.26c.124-.017.251-.036.377-.058.231-.036.46-.08.691-.131a13.811,13.811,0,0,0,3.3-1.185.128.128,0,0,0,.019-.01l.083-.041c.11-.056.219-.115.328-.173a15.673,15.673,0,0,0,2.234-1.474,17.575,17.575,0,0,0,1.849-1.682c.069-.07.137-.141.2-.214a20.16,20.16,0,0,0,1.954-2.467s0,0,0,0c.25-.37.487-.747.715-1.129a23.958,23.958,0,0,0,1.939-4.192,25.338,25.338,0,0,0,.9-3.178l.015-.065c.007-.039.015-.075.025-.112.184-.892.321-1.791.416-2.7l-.025.008a.153.153,0,0,1-.112.05.156.156,0,0,1-.122-.057l-.025-.016a.14.14,0,0,1-.053-.013.144.144,0,0,1-.058-.019.145.145,0,0,1-.073-.093.407.407,0,0,1-.047,0l-.095-.012c0,.012,0,.022,0,.032m-32.49.849a.267.267,0,0,0,0-.044c0,.007,0,.014,0,.022a.092.092,0,0,0,0,.027s0,0,0-.005m21.28,16.56a.223.223,0,0,0-.039.017.223.223,0,0,1,.039-.017" transform="translate(-124.772 -153.25)" fill="#007aa4" stroke="#007aa4" stroke-width="0.5"/>
      <path id="Trazado_1753" data-name="Trazado 1753" d="M2077.62-656.76l0,0,0,0" transform="translate(-266.642 -240.348)" fill="#007aa4"/>
      <path id="Trazado_1754" data-name="Trazado 1754" d="M1909.938-763.575l.053.024-.054-.031a.022.022,0,0,1,0,.007" transform="translate(-124.31 -149.677)" fill="#007aa4"/>
      <path id="Trazado_1755" data-name="Trazado 1755" d="M2129.306-753.26v0Z" transform="translate(-310.513 -158.435)" fill="#007aa4"/>
      <path id="Trazado_1756" data-name="Trazado 1756" d="M2117.83-710.809Z" transform="translate(-300.772 -194.472)" fill="#007aa4"/>
      <path id="Trazado_1757" data-name="Trazado 1757" d="M2117.815-710.8s0,0,0,0l0,0" transform="translate(-300.759 -194.474)" fill="#007aa4"/>
      <path id="Trazado_1758" data-name="Trazado 1758" d="M2117.8-710.727v0Z" transform="translate(-300.746 -194.54)" fill="#007aa4"/>
      <path id="Trazado_1759" data-name="Trazado 1759" d="M2117.782-710.694h0v0Z" transform="translate(-300.732 -194.567)" fill="#007aa4"/>
      <path id="Trazado_1760" data-name="Trazado 1760" d="M2117.772-710.674v0" transform="translate(-300.723 -194.585)" fill="#007aa4"/>
      <path id="Trazado_1761" data-name="Trazado 1761" d="M2117.767-710.664h0Z" transform="translate(-300.719 -194.595)" fill="#007aa4"/>
      <path id="Trazado_1762" data-name="Trazado 1762" d="M2117.768-710.664a.011.011,0,0,0,0,.005s0,0,0-.005Z" transform="translate(-300.719 -194.595)" fill="#007aa4"/>
      <path id="Trazado_1763" data-name="Trazado 1763" d="M2077.58-656.742l.007,0-.007,0" transform="translate(-266.607 -240.361)" fill="#007aa4"/>
      <path id="Trazado_1764" data-name="Trazado 1764" d="M2117.8-710.772v0l0-.007Z" transform="translate(-300.749 -194.499)" fill="#007aa4"/>
      <path id="Trazado_1765" data-name="Trazado 1765" d="M2117.8-710.727h0Z" transform="translate(-300.747 -194.54)" fill="#007aa4"/>
      <path id="Trazado_1766" data-name="Trazado 1766" d="M2117.786-710.717l0,0h0l0,0" transform="translate(-300.735 -194.547)" fill="#007aa4"/>
      <path id="Trazado_1767" data-name="Trazado 1767" d="M2117.786-710.709a.008.008,0,0,0,0,0h0Z" transform="translate(-300.735 -194.553)" fill="#007aa4"/>
      <path id="Trazado_1768" data-name="Trazado 1768" d="M2077.672-656.873l.017-.013,0,0-.021.016" transform="translate(-266.686 -240.24)" fill="#7fcd31"/>
      <path id="Trazado_1769" data-name="Trazado 1769" d="M1988.235-644.127l.021.009-.024-.011h0" transform="translate(-190.768 -251.072)" fill="#007aa4"/>
      <path id="Trazado_1770" data-name="Trazado 1770" d="M2055.954-644.092l.01,0,.024-.01h0l-.035.014" transform="translate(-248.251 -251.09)" fill="#007aa4"/>
      <path id="Trazado_1771" data-name="Trazado 1771" d="M1988.451-644.034h0l-.006,0,.006,0" transform="translate(-190.949 -251.149)" fill="#007aa4"/>
      <path id="Trazado_1772" data-name="Trazado 1772" d="M1886.187-759.647a2.85,2.85,0,0,0-1.146.241,3.1,3.1,0,0,0-1.513,1.538,4.944,4.944,0,0,0-.448,2.367,5.382,5.382,0,0,0,.708,2.44,4.32,4.32,0,0,0,1.917,1.75,4.856,4.856,0,0,0,.655.243,4.829,4.829,0,0,0,.791.148,5.4,5.4,0,0,0,1.175.012,4.582,4.582,0,0,0,.6-.107,3.775,3.775,0,0,0,.679-.255.314.314,0,0,0,.112-.428.313.313,0,0,0-.187-.141.328.328,0,0,0-.239.029c-.046.024-.1.046-.144.068a3.978,3.978,0,0,1-.747.2,5.387,5.387,0,0,1-1.314-.01,4.614,4.614,0,0,1-1.039-.285,4.178,4.178,0,0,1-.776-.455,4.333,4.333,0,0,1-.667-.667.1.1,0,0,1,.015.017l-.015-.02v0a.009.009,0,0,0,0-.005l0,0s0,0,0-.007a.006.006,0,0,1,0-.005,4.652,4.652,0,0,1-.514-.881l-.007-.015a.013.013,0,0,1,0-.009s0,0,0,0,0-.01-.005-.015v0a.017.017,0,0,1,0-.009s0,0,0,0a5.392,5.392,0,0,1-.331-1.243c0,.027.007.054.009.083a5.5,5.5,0,0,1-.014-1.294l.007-.051a.074.074,0,0,1,0-.022v.012a4.432,4.432,0,0,1,.275-1.029,3.532,3.532,0,0,1,.419-.72,2.847,2.847,0,0,1,.421-.419,2.438,2.438,0,0,1,.46-.27,2.667,2.667,0,0,1,.584-.158,3.166,3.166,0,0,1,.7.01,4.7,4.7,0,0,1,.8.207.309.309,0,0,0,.382-.217.081.081,0,0,0,.005-.027l-.245-.18q-.243-.147-.493-.281l-.033-.016s0,0-.005,0c-.085-.032-.17-.059-.255-.088a3.306,3.306,0,0,0-.54-.046Zm-.316.642a.251.251,0,0,1-.042,0,.285.285,0,0,0,.042,0m-1.443.85c-.01.009-.017.022-.027.031.008-.009.017-.022.027-.031m4.706,6.421c-.015,0-.029.012-.044.017a.285.285,0,0,1,.044-.017m-2.029.188h0Z" transform="translate(-101.508 -153.018)" fill="#007aa4" stroke="#007aa4" stroke-width="0.5"/>
      <path id="Trazado_1773" data-name="Trazado 1773" d="M1893.14-715.482l0,0Z" transform="translate(-110.05 -190.503)" fill="#007aa4"/>
      <path id="Trazado_1774" data-name="Trazado 1774" d="M1887.435-738.256v0a.071.071,0,0,1,0-.016Z" transform="translate(-105.21 -171.165)" fill="#007aa4"/>
      <path id="Trazado_1775" data-name="Trazado 1775" d="M1894.708-744.661a2.686,2.686,0,0,0-.793.178,2.709,2.709,0,0,0-.777.472.313.313,0,0,0,0,.441.309.309,0,0,0,.219.09.333.333,0,0,0,.221-.09l.051-.043a2.64,2.64,0,0,1,.477-.278,2.693,2.693,0,0,1,.544-.141,3.108,3.108,0,0,1,.589.008,3.074,3.074,0,0,1,.628.176c.042.019.083.038.123.059a.339.339,0,0,0,.238.031.326.326,0,0,0,.187-.143.312.312,0,0,0-.112-.426,3.585,3.585,0,0,0-.781-.277,2.888,2.888,0,0,0-.607-.063c-.07,0-.139,0-.209.007m.467.626.029.005-.029-.005" transform="translate(-109.973 -165.732)" fill="#007aa4" stroke="#007aa4" stroke-width="0.5"/>
      <path id="Trazado_1776" data-name="Trazado 1776" d="M2120.987-759.289a3.954,3.954,0,0,0-1.1.176.156.156,0,0,1-.067.021c-.061.019-.12.039-.18.061a.314.314,0,0,0-.217.383.31.31,0,0,0,.382.216,4.5,4.5,0,0,1,.8-.209,3.172,3.172,0,0,1,.7-.007,2.413,2.413,0,0,1,.584.158,2.419,2.419,0,0,1,.46.27,2.971,2.971,0,0,1,.421.416,3.573,3.573,0,0,1,.418.723,4.523,4.523,0,0,1,.277,1.034c0-.006,0-.011,0-.017a.069.069,0,0,1,0,.022c0,.017.006.034.008.051a5.519,5.519,0,0,1-.014,1.294c0-.029.007-.056.01-.082a5.388,5.388,0,0,1-.331,1.243.022.022,0,0,0,0-.006.028.028,0,0,0,0,.008v0l0,.006,0,.006,0,0,0,.014c0-.005,0-.008,0-.01l-.006.017,0-.007,0,.008a.192.192,0,0,1-.011.026l.008-.021a4.744,4.744,0,0,1-.524.9c.005,0,.01-.012.015-.017s-.011.012-.015.019v0c-.005,0-.01.012-.015.017l.005-.005a4.138,4.138,0,0,1-.657.655,4.051,4.051,0,0,1-.776.455,4.452,4.452,0,0,1-1.039.287h-.01l-.016,0c-.018,0-.037.007-.055.009l.036-.008a5.361,5.361,0,0,1-1.267,0,4.149,4.149,0,0,1-.729-.193l.041.018-.041-.018-.018-.006c-.049-.022-.1-.044-.144-.068a.325.325,0,0,0-.238-.029.311.311,0,0,0-.187.141.315.315,0,0,0,.111.428,3.836,3.836,0,0,0,.679.255,4.792,4.792,0,0,0,.6.107,5.457,5.457,0,0,0,1.175-.012,4.827,4.827,0,0,0,.791-.148,4.856,4.856,0,0,0,.655-.244,4.322,4.322,0,0,0,1.917-1.749,5.375,5.375,0,0,0,.708-2.441,4.942,4.942,0,0,0-.447-2.367,3.107,3.107,0,0,0-1.513-1.538,2.85,2.85,0,0,0-1.146-.241Zm-.313.638-.034,0a.191.191,0,0,1,.034,0m.647,0,.041,0-.041,0m1.443.846a.417.417,0,0,1,.027.034.325.325,0,0,1-.027-.034" transform="translate(-300.435 -153.321)" fill="#007aa4" stroke="#007aa4" stroke-width="0.5"/>
      <path id="Trazado_1777" data-name="Trazado 1777" d="M2157.258-737.846v0a.022.022,0,0,0,0-.005.072.072,0,0,1,0,.01" transform="translate(-334.239 -171.514)" fill="#007aa4"/>
      <path id="Trazado_1778" data-name="Trazado 1778" d="M2155-721.047a.021.021,0,0,0,0-.006h0l0,.007" transform="translate(-332.32 -185.776)" fill="#007aa4"/>
      <path id="Trazado_1779" data-name="Trazado 1779" d="M2151.515-715.074v-.005s0,0,0,.005" transform="translate(-329.364 -190.848)" fill="#007aa4"/>
      <path id="Trazado_1780" data-name="Trazado 1780" d="M2121.569-706.966h0" transform="translate(-303.944 -197.733)" fill="#007aa4"/>
      <path id="Trazado_1781" data-name="Trazado 1781" d="M2134.794-705.71l.018,0h0l-.022,0" transform="translate(-315.172 -198.798)" fill="#007aa4"/>
      <path id="Trazado_1782" data-name="Trazado 1782" d="M2130.847-744.3a2.688,2.688,0,0,1,.793.178,2.713,2.713,0,0,1,.777.472.312.312,0,0,1,0,.44.308.308,0,0,1-.219.09.332.332,0,0,1-.221-.09l-.052-.043a2.61,2.61,0,0,0-.476-.278,2.716,2.716,0,0,0-.544-.141,3.091,3.091,0,0,0-.589.008,3.07,3.07,0,0,0-.628.176c-.042.019-.083.038-.124.059a.339.339,0,0,1-.238.031.324.324,0,0,1-.187-.143.311.311,0,0,1,.112-.426,3.569,3.569,0,0,1,.781-.277,2.882,2.882,0,0,1,.606-.063c.07,0,.14,0,.209.007m-.467.625-.03.005.03-.005" transform="translate(-310.337 -166.043)" fill="#007aa4" stroke="#007aa4" stroke-width="0.5"/>
      <path id="Trazado_1783" data-name="Trazado 1783" d="M1935.475-892.908a.312.312,0,0,0-.129.421,7.47,7.47,0,0,1,.584,1.241l-.02-.058a9.949,9.949,0,0,1,.511,2.338,11.65,11.65,0,0,1-.09,2.738,10.2,10.2,0,0,1-.722,2.474c.012-.024.022-.048.034-.073a7.8,7.8,0,0,1-1.012,1.676l.034-.04a5.978,5.978,0,0,1-1.13,1.064,5.255,5.255,0,0,1-1,.523l.014-.006a6.45,6.45,0,0,1-1.537.335,31.505,31.505,0,0,1-3.44-.043,13.151,13.151,0,0,0-1.722.06,6.5,6.5,0,0,0-1.657.4,6.9,6.9,0,0,0-2.557,1.864c-.728.791-1.338,1.681-2.012,2.516l.051-.065a9.832,9.832,0,0,1-1.81,1.783c.022-.014.044-.032.068-.046a9.446,9.446,0,0,1-2.124,1.121,9.336,9.336,0,0,1-2.164.485,9.707,9.707,0,0,1-.987.037.317.317,0,0,0-.321.3.315.315,0,0,0,.3.321,9.729,9.729,0,0,0,2.886-.4,9.257,9.257,0,0,0,2.7-1.319,18.163,18.163,0,0,0,3.357-3.724,9.606,9.606,0,0,1,1.719-1.685,5.924,5.924,0,0,1,1.2-.65,6.774,6.774,0,0,1,1.557-.346,19.335,19.335,0,0,1,2.484,0,20.263,20.263,0,0,0,2.309.015,7.68,7.68,0,0,0,1.11-.151,5.714,5.714,0,0,0,1.156-.382,5.416,5.416,0,0,0,1.659-1.2,8.14,8.14,0,0,0,1.842-3.3,11.044,11.044,0,0,0,.4-1.964,11.366,11.366,0,0,0,.053-2.012,9.132,9.132,0,0,0-1.17-4.122.329.329,0,0,0-.279-.167.3.3,0,0,0-.142.036m-1.881,11.739-.046.031.046-.031m-9.027,1.828-.023.009.023-.009m-2.966,2.328-.016.021.016-.021m-5.766,4.317-.03.011.03-.011" transform="translate(-126.342 -39.873)" fill="#007aa4" stroke="#007aa4" stroke-width="0.5"/>
      <path id="Trazado_1784" data-name="Trazado 1784" d="M2073.341-856.491a.315.315,0,0,0-.021.441,6.685,6.685,0,0,0,1.167,1.043,10.692,10.692,0,0,0,1.392.8,14.318,14.318,0,0,1,2.729,1.546,4.255,4.255,0,0,1,.632.68,4.041,4.041,0,0,1,.427.823c-.006-.015-.012-.032-.016-.047l.016.048c0,.009.007.018.01.027,0-.009-.007-.018-.01-.027a5.956,5.956,0,0,1,.27,1.312,20.782,20.782,0,0,1,.021,2.082c-.005.356-.01.711,0,1.068.009.378.041.757.085,1.131a6.069,6.069,0,0,0,1.818,3.949.318.318,0,0,0,.216.1.306.306,0,0,0,.224-.08.312.312,0,0,0,.1-.214.3.3,0,0,0-.081-.224,4.3,4.3,0,0,1-.675-.737,5.533,5.533,0,0,1-.6-1.163l.029.075a8.9,8.9,0,0,1-.471-2.224c-.077-1.029,0-2.06-.018-3.09a8.48,8.48,0,0,0-.153-1.533,4.54,4.54,0,0,0-.532-1.394,5.962,5.962,0,0,0-2.585-2.095c-.5-.255-1.019-.491-1.52-.754a7.983,7.983,0,0,1-1.433-.937c.019.017.039.034.059.054a6.7,6.7,0,0,1-.647-.64.3.3,0,0,0-.229-.1.315.315,0,0,0-.209.078m6.326,5.333h0" transform="translate(-262.923 -70.749)" fill="#007aa4" stroke="#007aa4" stroke-width="0.5"/>
      <path id="Trazado_1785" data-name="Trazado 1785" d="M1790.979-938.12a15.308,15.308,0,0,0-3.071,1.944,14.66,14.66,0,0,0-1.336,1.243,18.133,18.133,0,0,0-1.387,1.686c-.9,1.2-1.7,2.462-2.567,3.679-.409.574-.837,1.131-1.294,1.669a15.452,15.452,0,0,1-1.568,1.582l.015-.014a13.926,13.926,0,0,1-1.158.89c-.45.314-.924.6-1.394.881-.888.537-1.786,1.058-2.669,1.6s-1.733,1.093-2.55,1.708a18.144,18.144,0,0,0-2.3,2.044,15.742,15.742,0,0,0-1.818,2.341,12.126,12.126,0,0,0-1.241,2.538,11.105,11.105,0,0,0-.589,2.725,11.807,11.807,0,0,0-.034,1.368,9.678,9.678,0,0,0,.154,1.515,10.71,10.71,0,0,0,.99,2.779c.448.918.957,1.8,1.4,2.718,0-.007-.005-.014-.009-.022a10.7,10.7,0,0,1,.88,2.434,6.5,6.5,0,0,1,.1,1.464c0-.011,0-.024,0-.035,0,.014,0,.028,0,.042s0,.026,0,.038c0-.009,0-.019,0-.028a9,9,0,0,1-.424,2.12,21.448,21.448,0,0,1-2.474,4.575c-.482.744-.961,1.491-1.392,2.267a13.142,13.142,0,0,0-1.039,2.368,15.178,15.178,0,0,0-.521,2.2,15.373,15.373,0,0,0-.2,2.387,8.7,8.7,0,0,0,1.068,4.482,5.439,5.439,0,0,0,1.165,1.365,5.843,5.843,0,0,0,.8.554,6.285,6.285,0,0,0,1,.47,11.411,11.411,0,0,0,1.769.482,16.572,16.572,0,0,1,1.745.421,5.083,5.083,0,0,1,1.074.523,4.747,4.747,0,0,1,.814.741,6.724,6.724,0,0,1,.555.794c.182.306.339.627.5.947l-.007-.015a18.977,18.977,0,0,0,1.637,3.049,6.1,6.1,0,0,0,1.256,1.27,7.906,7.906,0,0,0,1.927,1.034.325.325,0,0,0,.238.015.306.306,0,0,0,.178-.156.311.311,0,0,0-.141-.419,8.612,8.612,0,0,1-1.544-.77,6.135,6.135,0,0,1-1.11-.963,9.567,9.567,0,0,1-1.263-2.031s0,0,0,0c-.374-.772-.721-1.56-1.147-2.307a6.031,6.031,0,0,0-.854-1.129,4.6,4.6,0,0,0-.944-.737,6.66,6.66,0,0,0-2.019-.72c-.74-.165-1.486-.293-2.211-.529a6.821,6.821,0,0,1-1.484-.728l.024.016-.028-.019-.041-.027.039.026a5.265,5.265,0,0,1-.927-.836l.051.063a5.97,5.97,0,0,1-.77-1.18l.023.044a7.646,7.646,0,0,1-.558-1.688l0,.014a11.576,11.576,0,0,1-.172-2.819l0,.018c0-.014,0-.028,0-.043s0-.025,0-.037v.013a15.446,15.446,0,0,1,.728-3.788c1.106-3.184,3.626-5.633,4.769-8.8a9.019,9.019,0,0,0,.516-2.348,6.576,6.576,0,0,0-.017-1.258,7.383,7.383,0,0,0-.253-1.206,13.2,13.2,0,0,0-.983-2.336c-.394-.781-.825-1.543-1.212-2.328l.037.073a11.409,11.409,0,0,1-.9-2.455,10.666,10.666,0,0,1-.161-2.627,11.185,11.185,0,0,1,.517-2.672c0,.006,0,.012-.007.018l.01-.029c0-.017.011-.034.016-.052,0,.008,0,.016-.007.024a12.868,12.868,0,0,1,1.448-2.88c-.01.017-.02.032-.031.048a17.392,17.392,0,0,1,1.218-1.573,16.113,16.113,0,0,1,1.62-1.6,36.011,36.011,0,0,1,4.945-3.327c.431-.255.861-.511,1.289-.771.47-.285.939-.574,1.392-.888a14.225,14.225,0,0,0,2.2-1.907,34,34,0,0,0,3.3-4.395c.564-.822,1.146-1.633,1.769-2.411a14.044,14.044,0,0,1,1.641-1.707,15.279,15.279,0,0,1,3.253-2.138,17.844,17.844,0,0,1,4.094-1.364l-.078.014a20.694,20.694,0,0,1,5.229-.364h-.012l.034,0,.046,0h-.013a21.04,21.04,0,0,1,5.246,1.025,18.743,18.743,0,0,1,3.635,1.687.315.315,0,0,0,.418-.141.316.316,0,0,0,.014-.239.331.331,0,0,0-.156-.18,20.082,20.082,0,0,0-9.19-2.774q-.634-.037-1.272-.038a19,19,0,0,0-8.239,1.8m-19.572,18.137-.029.024.029-.024m-4.758,8.7c0,.007,0,.014,0,.021s0-.014,0-.021m.153,2.567c0,.013.006.027.009.04l-.009-.04m2.619,7.822c0,.024.009.049.014.073,0-.023-.009-.048-.014-.073m-.285,3.608-.01.029c0-.009.006-.019.01-.029m-4.268,9.247-.007.021.007-.021m3.084,10.993.007,0-.007,0m3.027,1.385.053.019-.053-.019m.055.02.023.007-.023-.007m2.965,3.061-.027-.056.027.056m-7.519-5.192,0,0-.006,0h0m-2.35-6.427c0,.009,0,.017,0,.025,0-.016,0-.033,0-.05,0,.008,0,.017,0,.025m5.407-15.136s0-.007,0-.01v-.007c0,.006,0,.012,0,.017m-2.365-14.646a.073.073,0,0,1,0,.011l.013-.039c0,.01-.006.019-.01.028m1.411-2.838.016-.022-.016.022m31.94-22.446-.034,0h-.022l.055,0" transform="translate(0 0)" fill="#007aa4" stroke="#007aa4" stroke-width="0.5"/>
      <path id="Trazado_1786" data-name="Trazado 1786" d="M2067.614-921.344a.31.31,0,0,0-.289.331.313.313,0,0,0,.331.29,9.378,9.378,0,0,1,1.132,0,11.3,11.3,0,0,1,2.577.508,14.353,14.353,0,0,1,3.183,1.53l-.013-.009.017.011.051.033-.034-.022a15.372,15.372,0,0,1,2.969,2.543c-.017-.022-.037-.041-.054-.064a12.761,12.761,0,0,1,1.873,2.73,10.075,10.075,0,0,1,.512,1.275,14.533,14.533,0,0,1,.4,1.669l-.015-.078c.276,1.413.46,2.844.794,4.245a13.1,13.1,0,0,0,.667,2.069,9.565,9.565,0,0,0,1.1,1.939,13.268,13.268,0,0,0,1.6,1.754c.564.538,1.159,1.046,1.752,1.55a33.894,33.894,0,0,1,3.424,3.163c-.02-.02-.037-.042-.056-.061a13.715,13.715,0,0,1,1.955,2.849,10.984,10.984,0,0,1,.912,2.68,10.884,10.884,0,0,1,.143,2.617l.008-.08a13.273,13.273,0,0,1-.609,3.045c-.227.681-.508,1.337-.776,2-.263.647-.516,1.3-.74,1.958a13.666,13.666,0,0,0-.5,1.842,8.289,8.289,0,0,0-.147,1.818,7.1,7.1,0,0,0,.29,1.745,8.419,8.419,0,0,0,.866,1.91c.192.321.411.625.623.932s.435.647.642.978c.373.594.715,1.207,1.027,1.834-.012-.024-.024-.049-.036-.075a14.076,14.076,0,0,1,1.176,3.337s0-.008,0-.013a9.705,9.705,0,0,1,.169,2.339,8.794,8.794,0,0,1-.422,2.148c.01-.027.017-.051.027-.075a10.115,10.115,0,0,1-1.052,2.163,14.274,14.274,0,0,1-2.356,2.693l.031-.026-.045.039-.018.017.008-.008a14.915,14.915,0,0,1-3.084,2.083l.076-.037a14.438,14.438,0,0,1-3.589,1.226l.078-.017c-.258.048-.516.092-.776.129a.317.317,0,0,0-.29.331.311.311,0,0,0,.331.29,14.558,14.558,0,0,0,2.693-.635,14.46,14.46,0,0,0,2.516-1.141,14.427,14.427,0,0,0,2.281-1.613,15.358,15.358,0,0,0,2-2.075,11.27,11.27,0,0,0,1.36-2.17,9.073,9.073,0,0,0,.718-2.224,9.917,9.917,0,0,0-.3-4.584,16.086,16.086,0,0,0-1.428-3.314c-.314-.567-.657-1.114-1.017-1.652-.2-.307-.418-.6-.623-.91a9.4,9.4,0,0,1-.543-.942l0,0a7.508,7.508,0,0,1-.6-1.734l.015.08a7.128,7.128,0,0,1-.118-1.72,11.1,11.1,0,0,1,.549-2.62c0,.006,0,.012,0,.019.292-.881.64-1.74.99-2.6.182-.448.362-.9.518-1.35a13.959,13.959,0,0,0,.411-1.428,11.914,11.914,0,0,0,.314-2.725,10.641,10.641,0,0,0-.343-2.642,11.267,11.267,0,0,0-1.031-2.56,13.46,13.46,0,0,0-1.691-2.4,37.379,37.379,0,0,0-4.059-3.742,24.264,24.264,0,0,1-2.255-2.152,9.518,9.518,0,0,1-1.3-1.932,11.329,11.329,0,0,1-.63-1.624,17.782,17.782,0,0,1-.443-1.815c0,.027.012.054.017.081-.17-.868-.306-1.742-.462-2.613q-.11-.628-.246-1.256a12.431,12.431,0,0,0-.316-1.219,10.546,10.546,0,0,0-.957-2.065,12.55,12.55,0,0,0-1.414-1.93,15.351,15.351,0,0,0-3.783-3.107,13.071,13.071,0,0,0-4.487-1.659,9.768,9.768,0,0,0-1.565-.126c-.2,0-.409.005-.612.019m24.312,36.552c0,.013-.008.025-.012.038,0-.012.008-.024.012-.038m1.159,24.806-.03.047.03-.047m-2.379,2.714.01-.009.015-.014-.025.023m-16.138-61.4-.017-.011,0,0Z" transform="translate(-257.903 -15.751)" fill="#007aa4" stroke="#007aa4" stroke-width="0.5"/>
      <path id="Trazado_1787" data-name="Trazado 1787" d="M1959.67-753.807c.822,0,1.49-.928,1.49-2.071s-.668-2.072-1.49-2.072-1.49.928-1.49,2.072.668,2.071,1.49,2.071" transform="translate(-165.259 -154.458)" fill="#007aa4" stroke="#007aa4" stroke-width="0.5"/>
      <path id="Trazado_1788" data-name="Trazado 1788" d="M2064.184-755.88c-.822,0-1.49-.928-1.49-2.072s.667-2.072,1.49-2.072,1.49.928,1.49,2.072-.667,2.072-1.49,2.072" transform="translate(-253.972 -152.698)" fill="#007aa4" stroke="#007aa4" stroke-width="0.5"/>
      <path id="Trazado_1789" data-name="Trazado 1789" d="M2070.467-796.5a4.107,4.107,0,0,1,1.119.316,4.2,4.2,0,0,1,.939.569,4.808,4.808,0,0,1,.4.358,3.855,3.855,0,0,1,.384.465.288.288,0,0,1,.029.234.307.307,0,0,1-.148.19.315.315,0,0,1-.234.029.339.339,0,0,1-.19-.149l-.03-.04a4.044,4.044,0,0,0-.617-.615,4.55,4.55,0,0,0-.886-.515,3.862,3.862,0,0,0-.828-.225,3.107,3.107,0,0,0-.609,0c-.075.012-.148.026-.225.041a.311.311,0,0,1-.377-.224.315.315,0,0,1,.224-.379,3.149,3.149,0,0,1,.671-.073,3.251,3.251,0,0,1,.373.022" transform="translate(-259.486 -121.716)" fill="#007aa4" stroke="#007aa4" stroke-width="0.5"/>
    </g>
  </g>
</svg>
