<svg xmlns="http://www.w3.org/2000/svg" xmlns:xlink="http://www.w3.org/1999/xlink" width="138" height="41" viewBox="0 0 138 41">
  <defs>
    <clipPath id="clip-logo_Sistecredito_personas_movil">
      <rect width="138" height="41"/>
    </clipPath>
  </defs>
  <g id="logo_Sistecredito_personas_movil" data-name="logo Sistecredito personas movil" clip-path="url(#clip-logo_Sistecredito_personas_movil)">
    <g id="Grupo_9223" data-name="Grupo 9223" transform="translate(-111 -57)">
      <g id="Grupo_8914" data-name="Grupo 8914" transform="translate(111 57.645)">
        <path id="Trazado_5340" data-name="Trazado 5340" d="M127.626,265.129c.328,3.365,2.776,4.066,4.032,4.066a3.957,3.957,0,0,0,4.041-3.85c0-2.832-2.431-3.45-4.755-4.23-1.654-.482-5.172-1.516-5.172-5.324-.055-3.588,2.933-5.577,6-5.577a5.437,5.437,0,0,1,5.731,5.213H135.27c-.236-1.3-.893-3.294-3.585-3.294a3.468,3.468,0,0,0-3.668,3.459c-.018,2.458,1.949,3.068,5.01,4.084,1.9.743,4.917,1.812,4.917,5.524a5.879,5.879,0,0,1-6.25,5.914,5.956,5.956,0,0,1-6.313-5.985Z" transform="translate(-125.381 -250.214)" fill="#fff"/>
        <path id="Trazado_5341" data-name="Trazado 5341" d="M180.7,257.159h2.009v14.674H180.7V257.159Zm0-5.5h2.009v2.8H180.7v-2.8Z" transform="translate(-166.796 -251.297)" fill="#fff"/>
        <path id="Trazado_5342" data-name="Trazado 5342" d="M201.813,276.015a2.281,2.281,0,0,0-2.512-2.421,2.312,2.312,0,0,0-2.539,2.358c.055,1.392,1.118,1.983,2.882,2.483,2.125.581,4.469,1.18,4.578,4.325a4.588,4.588,0,0,1-4.867,4.651c-2.363,0-4.986-1.492-5.013-4.579h2a2.87,2.87,0,0,0,3.03,2.9,2.7,2.7,0,0,0,2.839-2.74c-.036-1.674-1.136-2.357-3.661-3.074-2.109-.626-3.744-1.471-3.8-3.807,0-2.643,2.088-4.2,4.567-4.2,2.063.018,4.349,1.118,4.476,4.1Z" transform="translate(-177.014 -266.465)" fill="#fff"/>
        <path id="Trazado_5343" data-name="Trazado 5343" d="M236.1,258.771H233.23v-1.612H236.1v-5.5h2.009v5.5h3.2v1.612h-3.2v13.062H236.1V258.771Z" transform="translate(-206.13 -251.297)" fill="#fff"/>
        <path id="Trazado_5344" data-name="Trazado 5344" d="M274.49,278.626a5.566,5.566,0,0,0-5.659-4.969,5.507,5.507,0,0,0-5.677,4.969Zm-11.373,1.612a5.586,5.586,0,0,0,5.731,5.424,5.4,5.4,0,0,0,5.032-3.022h2.1a7.9,7.9,0,0,1-2.971,3.58,7.711,7.711,0,0,1-4.179,1.18,7.583,7.583,0,0,1-7.741-7.7,7.709,7.709,0,1,1,15.383.542Z" transform="translate(-226.988 -266.465)" fill="#fff"/>
        <path id="Trazado_5345" data-name="Trazado 5345" d="M338.017,283.061a4.366,4.366,0,0,1-4.412-4.6,4.838,4.838,0,0,1,1.235-3.32,4.109,4.109,0,0,1,3.184-1.282,4.211,4.211,0,0,1,4.037,2.68H345.7a7.863,7.863,0,1,0,.014,3.961h-3.664a4.247,4.247,0,0,1-4.037,2.564" transform="translate(-278.585 -265.412)" fill="#fff"/>
        <path id="Trazado_5346" data-name="Trazado 5346" d="M403.985,274.108v-3.6a4.306,4.306,0,0,0-4.158,2.434v-1.957h-3.378v14.959h3.582v-8.07c0-2.577,1.268-3.771,3.777-3.771Z" transform="translate(-328.335 -265.412)" fill="#fff"/>
        <path id="Trazado_5347" data-name="Trazado 5347" d="M427.661,276.913a4.352,4.352,0,0,1,8.477,0Zm4.221-6.4a7.946,7.946,0,0,0,.055,15.892,7.467,7.467,0,0,0,4.259-1.295,8.5,8.5,0,0,0,3.039-3.761h-3.684a3.912,3.912,0,0,1-3.608,2.019,4.127,4.127,0,0,1-4.331-3.7h12.046a8.129,8.129,0,0,0-2.188-6.868,7.719,7.719,0,0,0-5.588-2.283" transform="translate(-348.982 -265.412)" fill="#fff"/>
        <path id="Trazado_5348" data-name="Trazado 5348" d="M498.936,267.582a4.673,4.673,0,0,1-3.321,1.363,4.456,4.456,0,0,1-4.576-4.616V264.3a4.468,4.468,0,0,1,4.6-4.562,4.534,4.534,0,0,1,3.246,1.289,4.77,4.77,0,0,1,.055,6.553m1.071-10.974v2.182a5.845,5.845,0,0,0-5.025-2.393c-4.049,0-7.524,3.087-7.524,7.926,0,4.388,2.965,7.967,7.585,7.967a5.479,5.479,0,0,0,5.127-2.619v2.162h3.419V251.66h-3.582v4.949Z" transform="translate(-396.475 -251.297)" fill="#fff"/>
        <path id="Trazado_5349" data-name="Trazado 5349" d="M562.8,251.661h-3.582v3.2H562.8v-3.2Z" transform="translate(-450.206 -251.297)" fill="#fff" fill-rule="evenodd"/>
        <path id="Trazado_5350" data-name="Trazado 5350" d="M562.8,272.411h-3.582v14.959H562.8V272.411Z" transform="translate(-450.206 -266.833)" fill="#fff" fill-rule="evenodd"/>
        <path id="Trazado_5351" data-name="Trazado 5351" d="M583.672,256.874h-2.564v-5.214h-3.581v5.214h-2.475v2.751h2.475v12.208h3.581V259.626h2.564v-2.751Z" transform="translate(-462.059 -251.297)" fill="#fff"/>
        <path id="Trazado_5352" data-name="Trazado 5352" d="M623.059,278.435l-3.7-2.6-1.237,1.665-1.248,1.68,1.319-.158a4.427,4.427,0,0,1-8.836-.5v-.028a4.441,4.441,0,0,1,4.432-4.582,4.37,4.37,0,0,1,4.135,2.9l1.308-1.761,2.358,1.655a7.706,7.706,0,0,0-7.8-6.108,7.784,7.784,0,0,0-8.014,7.9v.028a8.014,8.014,0,0,0,16.026.066l1.262-.152Z" transform="translate(-485.059 -265.473)" fill="#fff"/>
        <path id="Trazado_5353" data-name="Trazado 5353" d="M451.286,253.673a2.013,2.013,0,1,1-2.012-2.013,2.012,2.012,0,0,1,2.012,2.013" transform="translate(-366.379 -251.297)" fill="#fff"/>
      </g>
      <text id="Personas" transform="translate(130 97)" fill="#fff" font-size="13" font-family="'Montserrat', sans-serif" letter-spacing="0.448em"><tspan x="0" y="0">Personas</tspan></text>
    </g>
  </g>
</svg>
