<svg xmlns="http://www.w3.org/2000/svg" xmlns:xlink="http://www.w3.org/1999/xlink" width="168" height="79" viewBox="0 0 168 79">
  <defs>
    <clipPath id="clip-Logo_Sistecredito_y_personas">
      <rect width="168" height="79"/>
    </clipPath>
  </defs>
  <g id="Logo_Sistecredito_y_personas" data-name="Logo Sistecredito y personas" clip-path="url(#clip-Logo_Sistecredito_y_personas)">
    <g id="Grupo_9214" data-name="Grupo 9214" transform="translate(-470.391 -736.047)">
      <path id="Trazado_5413" data-name="Trazado 5413" d="M473.125,754.341c.4,4.1,3.379,4.948,4.907,4.948a4.816,4.816,0,0,0,4.919-4.686c0-3.447-2.959-4.2-5.788-5.149-2.013-.587-6.3-1.847-6.3-6.482-.067-4.367,3.57-6.79,7.309-6.79,3.053,0,6.589,1.7,6.976,6.346H482.43c-.288-1.584-1.086-4.01-4.364-4.01a4.222,4.222,0,0,0-4.465,4.211c-.024,2.992,2.372,3.735,6.1,4.972,2.316.9,5.986,2.206,5.986,6.724,0,4.005-3.013,7.2-7.608,7.2-4.109,0-7.518-2.584-7.685-7.285Z" transform="translate(0 0)" fill="#002984"/>
      <path id="Trazado_5414" data-name="Trazado 5414" d="M481.8,743.175h2.446V761.04H481.8V743.175Zm0-6.693h2.446v3.4H481.8v-3.4Z" transform="translate(5.514 0.144)" fill="#002984"/>
      <path id="Trazado_5415" data-name="Trazado 5415" d="M493.706,745.646a2.777,2.777,0,0,0-3.057-2.948,2.814,2.814,0,0,0-3.091,2.87c.067,1.694,1.362,2.415,3.51,3.023,2.587.708,5.44,1.436,5.573,5.265.11,3.271-2.554,5.662-5.926,5.662-2.876,0-6.07-1.817-6.1-5.575h2.436a3.494,3.494,0,0,0,3.688,3.535,3.286,3.286,0,0,0,3.456-3.336c-.045-2.038-1.383-2.87-4.456-3.743-2.568-.763-4.558-1.791-4.625-4.634,0-3.218,2.542-5.107,5.56-5.107,2.511.022,5.294,1.362,5.449,4.987Z" transform="translate(6.875 2.164)" fill="#002984"/>
      <path id="Trazado_5416" data-name="Trazado 5416" d="M496.131,745.138h-3.5v-1.962h3.5v-6.694h2.446v6.694h3.9v1.962h-3.9v15.9h-2.446v-15.9Z" transform="translate(10.751 0.144)" fill="#002984"/>
      <path id="Trazado_5417" data-name="Trazado 5417" d="M514.691,748.825a6.777,6.777,0,0,0-6.89-6.049,6.7,6.7,0,0,0-6.911,6.049Zm-13.846,1.963a6.8,6.8,0,0,0,6.978,6.6,6.577,6.577,0,0,0,6.126-3.679h2.556a9.615,9.615,0,0,1-3.617,4.358,9.384,9.384,0,0,1-5.088,1.437,9.231,9.231,0,0,1-9.424-9.38,9.385,9.385,0,1,1,18.726.66Z" transform="translate(13.528 2.164)" fill="#002984"/>
      <path id="Trazado_5418" data-name="Trazado 5418" d="M522.346,755.646a5.316,5.316,0,0,1-5.371-5.6,5.889,5.889,0,0,1,1.5-4.042,5,5,0,0,1,3.876-1.561,5.126,5.126,0,0,1,4.914,3.263H531.7a9.571,9.571,0,1,0,.016,4.821H527.26a5.175,5.175,0,0,1-4.914,3.123" transform="translate(20.398 2.023)" fill="#94b200" stroke="#96b30c" stroke-linejoin="round" stroke-width="0.049"/>
      <path id="Trazado_5419" data-name="Trazado 5419" d="M535.466,744.747v-4.378a5.241,5.241,0,0,0-5.063,2.964v-2.384h-4.112v18.212h4.36v-9.823c0-3.137,1.544-4.591,4.6-4.591Z" transform="translate(27.022 2.023)" fill="#94b200" stroke="#96b30c" stroke-linejoin="round" stroke-width="0.049"/>
      <path id="Trazado_5420" data-name="Trazado 5420" d="M536.4,748.161a5.3,5.3,0,0,1,10.32,0Zm5.139-7.792a9.674,9.674,0,0,0,.067,19.348,9.089,9.089,0,0,0,5.184-1.577,10.339,10.339,0,0,0,3.7-4.579h-4.486a4.76,4.76,0,0,1-4.391,2.458,5.026,5.026,0,0,1-5.273-4.51H551.01a9.9,9.9,0,0,0-2.664-8.362,9.4,9.4,0,0,0-6.8-2.778" transform="translate(29.771 2.023)" fill="#94b200" stroke="#96b30c" stroke-linejoin="round" stroke-width="0.049"/>
      <path id="Trazado_5421" data-name="Trazado 5421" d="M559.032,755.866a5.69,5.69,0,0,1-4.042,1.659,5.423,5.423,0,0,1-5.57-5.619v-.033a5.439,5.439,0,0,1,5.594-5.554,5.518,5.518,0,0,1,3.952,1.57,5.81,5.81,0,0,1,.067,7.978m1.3-13.359v2.657a7.118,7.118,0,0,0-6.117-2.915c-4.929,0-9.16,3.759-9.16,9.649,0,5.342,3.609,9.7,9.234,9.7,3.717,0,5.446-1.826,6.242-3.188v2.631H564.7V736.481h-4.36v6.026Z" transform="translate(36.094 0.144)" fill="#94b200" stroke="#96b30c" stroke-linejoin="round" stroke-width="0.049"/>
      <path id="Trazado_5422" data-name="Trazado 5422" d="M564.219,736.482h-4.361v3.89h4.361v-3.89Z" transform="translate(43.247 0.144)" fill="#94b200" stroke="#96b30c" stroke-linejoin="round" stroke-width="0.049" fill-rule="evenodd"/>
      <path id="Trazado_5423" data-name="Trazado 5423" d="M564.219,740.761h-4.361v18.211h4.361V740.761Z" transform="translate(43.247 2.213)" fill="#94b200" stroke="#96b30c" stroke-linejoin="round" stroke-width="0.049" fill-rule="evenodd"/>
      <path id="Trazado_5424" data-name="Trazado 5424" d="M573.616,742.829H570.5v-6.347h-4.36v6.347h-3.013v3.35h3.013V761.04h4.36V746.178h3.121v-3.35Z" transform="translate(44.826 0.144)" fill="#94b200" stroke="#96b30c" stroke-linejoin="round" stroke-width="0.049"/>
      <path id="Trazado_5425" data-name="Trazado 5425" d="M590.5,749.932l-4.508-3.167-1.506,2.026-1.521,2.046,1.607-.193a5.389,5.389,0,0,1-10.758-.608V750a5.408,5.408,0,0,1,5.4-5.578,5.319,5.319,0,0,1,5.033,3.526l1.593-2.144,2.87,2.015A9.768,9.768,0,0,0,569.458,750v.034a9.756,9.756,0,0,0,19.509.08l1.535-.184Z" transform="translate(47.888 2.032)" fill="#94b200" stroke="#96b30c" stroke-linejoin="round" stroke-width="0.049"/>
      <path id="Trazado_5426" data-name="Trazado 5426" d="M541.67,738.931a2.451,2.451,0,1,1-2.451-2.449,2.451,2.451,0,0,1,2.451,2.449" transform="translate(32.087 0.144)" fill="#94b200" stroke="#96b30c" stroke-linejoin="round" stroke-width="0.049"/>
      <path id="Trazado_5427" data-name="Trazado 5427" d="M494.118,760.562h.737v5.271h-.737v-5.271Zm0-1.844h.737v1.062h-.737v-1.062Z" transform="translate(11.469 10.893)" fill="#17100d"/>
      <path id="Trazado_5428" data-name="Trazado 5428" d="M495.77,757.415h.794v6.412h2.71v.7h-3.5v-7.114Z" transform="translate(12.268 10.263)" fill="#17100d"/>
      <path id="Trazado_5429" data-name="Trazado 5429" d="M498.926,761.353a2.071,2.071,0,1,0,0-.009v.009Zm-.709-.009a2.731,2.731,0,1,1,0,.009v-.009Z" transform="translate(13.451 10.85)" fill="#17100d"/>
      <path id="Trazado_5430" data-name="Trazado 5430" d="M504.5,757.415h.709V760.2a1.96,1.96,0,0,1,1.844-.994,2.026,2.026,0,0,1,1.715.714,2.9,2.9,0,0,1,.494,1.818v2.787h-.709v-2.762a2.173,2.173,0,0,0-.375-1.365,1.562,1.562,0,0,0-1.291-.528,1.648,1.648,0,0,0-1.267.51,1.76,1.76,0,0,0-.411,1.2v2.943H504.5v-7.114Z" transform="translate(16.489 10.263)" fill="#17100d"/>
      <path id="Trazado_5431" data-name="Trazado 5431" d="M509.122,761.371a2.021,2.021,0,0,0,2.072,2.056,1.948,1.948,0,0,0,1.867-1.258,2,2,0,0,0,.171-.823,1.942,1.942,0,0,0-.162-.825,1.993,1.993,0,0,0-1.9-1.234,2.019,2.019,0,0,0-2.05,2.074v.011Zm4.8,2.572h-.708v-1.071a2.292,2.292,0,0,1-2.117,1.216,2.732,2.732,0,0,1,0-5.463,2.273,2.273,0,0,1,2.117,1.233v-1.089h.708v5.174Z" transform="translate(18.38 10.848)" fill="#17100d"/>
      <path id="Trazado_5432" data-name="Trazado 5432" d="M518.2,762.2a2.748,2.748,0,1,1,0-1.642h-.733a2.055,2.055,0,0,0-3.33-.69,2.1,2.1,0,0,0-.585,1.488,2,2,0,0,0,2.034,2.069,1.954,1.954,0,0,0,1.874-1.225Z" transform="translate(20.52 10.848)" fill="#17100d"/>
      <path id="Trazado_5433" data-name="Trazado 5433" d="M521.6,760.99a1.964,1.964,0,0,0-2-1.752,1.944,1.944,0,0,0-2,1.752Zm-4.011.57a1.969,1.969,0,0,0,2.02,1.912,1.9,1.9,0,0,0,1.774-1.065h.742a2.791,2.791,0,0,1-1.047,1.262,2.732,2.732,0,0,1-1.475.417,2.674,2.674,0,0,1-2.729-2.718,2.719,2.719,0,1,1,5.425.191Z" transform="translate(22.469 10.848)" fill="#17100d"/>
      <path id="Trazado_5434" data-name="Trazado 5434" d="M521.207,758.769h.674v.825a1.86,1.86,0,0,1,1.638-.969,1.814,1.814,0,0,1,1.408.587,2.854,2.854,0,0,1,.337.544,2.03,2.03,0,0,1,.372-.552,1.955,1.955,0,0,1,1.422-.58,1.919,1.919,0,0,1,1.4.519,2.475,2.475,0,0,1,.583,1.925v2.875h-.709v-2.85a2.075,2.075,0,0,0-.381-1.374,1.236,1.236,0,0,0-1.034-.433,1.367,1.367,0,0,0-1.136.54,1.853,1.853,0,0,0-.3,1.242v2.875h-.708v-2.872a1.98,1.98,0,0,0-.276-1.23,1.325,1.325,0,0,0-1.133-.555,1.277,1.277,0,0,0-1.09.53,1.988,1.988,0,0,0-.353,1.245v2.882h-.709v-5.175Z" transform="translate(24.564 10.848)" fill="#17100d"/>
      <path id="Trazado_5435" data-name="Trazado 5435" d="M527.89,761.353a2.071,2.071,0,1,0,0-.009v.009Zm-.709-.009a2.731,2.731,0,1,1,0,.009v-.009Z" transform="translate(27.452 10.85)" fill="#17100d"/>
      <path id="Trazado_5436" data-name="Trazado 5436" d="M534.029,760.07a.805.805,0,0,0-.886-.854.816.816,0,0,0-.9.832c.019.491.395.7,1.018.875.749.2,1.575.415,1.614,1.525a1.618,1.618,0,0,1-1.716,1.641,1.657,1.657,0,0,1-1.767-1.616h.7a1.012,1.012,0,0,0,1.068,1.025.953.953,0,0,0,1-.967c-.013-.59-.4-.831-1.291-1.083-.745-.223-1.322-.521-1.341-1.344a1.488,1.488,0,0,1,1.611-1.479,1.468,1.468,0,0,1,1.58,1.445Z" transform="translate(29.489 10.848)" fill="#17100d"/>
      <path id="Trazado_5437" data-name="Trazado 5437" d="M541.162,761.348a2.075,2.075,0,0,0-3.538-1.46,2.115,2.115,0,0,0-.576,1.479,2.022,2.022,0,0,0,2.056,2.059,2.021,2.021,0,0,0,2.057-2.068v-.011Zm-4.781-2.58h.678v1.075a2.373,2.373,0,0,1,2.155-1.219,2.733,2.733,0,0,1,0,5.463,2.3,2.3,0,0,1-2.126-1.2V765.9h-.709v-7.134Z" transform="translate(31.899 10.848)" fill="#17100d"/>
      <path id="Trazado_5438" data-name="Trazado 5438" d="M541.3,761.353a2.071,2.071,0,1,0,0-.009v.009Zm-.708-.009a2.731,2.731,0,1,1,0,.009v-.009Z" transform="translate(33.935 10.85)" fill="#17100d"/>
      <path id="Trazado_5439" data-name="Trazado 5439" d="M547.441,760.07a.805.805,0,0,0-.886-.854.818.818,0,0,0-.9.832c.021.491.395.7,1.018.875.749.2,1.575.415,1.614,1.525a1.618,1.618,0,0,1-1.716,1.641,1.658,1.658,0,0,1-1.767-1.616h.7a1.012,1.012,0,0,0,1.068,1.025.953.953,0,0,0,1-.967c-.013-.59-.4-.831-1.291-1.083-.743-.223-1.32-.521-1.339-1.344a1.486,1.486,0,0,1,1.609-1.479,1.467,1.467,0,0,1,1.58,1.445Z" transform="translate(35.972 10.848)" fill="#17100d"/>
      <path id="Trazado_5440" data-name="Trazado 5440" d="M547.931,759.354h.709v5.176h-.709v-5.176Zm0-1.939h.709v.985h-.709v-.985Z" transform="translate(37.482 10.263)" fill="#17100d"/>
      <path id="Trazado_5441" data-name="Trazado 5441" d="M554.112,761.93a2.076,2.076,0,1,0,0,.01v-.01Zm-4.771-4.516h.709v2.979a2.461,2.461,0,0,1,2.108-1.184,2.732,2.732,0,0,1-.024,5.463,2.284,2.284,0,0,1-2.106-1.213v1.07h-.687v-7.114Z" transform="translate(38.164 10.263)" fill="#17100d"/>
      <path id="Trazado_5442" data-name="Trazado 5442" d="M554.457,757.415h-.709v7.114h.709v-7.114Z" transform="translate(40.294 10.263)" fill="#17100d" fill-rule="evenodd"/>
      <path id="Trazado_5443" data-name="Trazado 5443" d="M559.612,760.99a2.017,2.017,0,0,0-4,0Zm-4.01.57a1.967,1.967,0,0,0,2.02,1.912,1.906,1.906,0,0,0,1.774-1.065h.74a2.782,2.782,0,0,1-1.047,1.262,2.729,2.729,0,0,1-1.474.417,2.675,2.675,0,0,1-2.729-2.718,2.719,2.719,0,1,1,5.425.191Z" transform="translate(40.844 10.848)" fill="#17100d"/>
      <path id="Trazado_5444" data-name="Trazado 5444" d="M560.164,764.529h-.737v-1.062h.737v1.062Zm0-1.845h-.737v-5.269h.737v5.269Z" transform="translate(43.039 10.263)" fill="#17100d"/>
    </g>
    <text id="Personas" transform="translate(33 78)" fill="#007AA4" font-size="16" font-family="'Montserrat', sans-serif" font-weight="700" letter-spacing="0.223em"><tspan x="0" y="0">Personas</tspan></text>
  </g>
</svg>
