<svg xmlns="http://www.w3.org/2000/svg" xmlns:xlink="http://www.w3.org/1999/xlink" width="948" height="188" viewBox="0 0 948 188">
  <defs>
    <clipPath id="clip-logo_Sistecredito">
      <rect width="948" height="188"/>
    </clipPath>
  </defs>
  <g id="logo_Sistecredito" data-name="logo Sistecredito" clip-path="url(#clip-logo_Sistecredito)">
    <g id="Grupo_8997" data-name="Grupo 8997" transform="translate(-989 -78)">
      <path id="Trazado_5413" data-name="Trazado 5413" d="M485.525,836.7c2.209,22.672,18.706,27.394,27.164,27.394,14.165,0,27.23-10.847,27.23-25.941,0-19.084-16.382-23.255-32.042-28.5-11.143-3.252-34.85-10.223-34.85-35.885-.37-24.176,19.765-37.585,40.459-37.585,16.9,0,36.476,9.436,38.619,35.129H537.037c-1.593-8.77-6.011-22.2-24.159-22.2-13.557,0-24.717,9.262-24.717,23.312-.131,16.563,13.13,20.677,33.758,27.526,12.818,5,33.134,12.211,33.134,37.223,0,22.172-16.678,39.852-42.118,39.852-22.746,0-41.617-14.3-42.544-40.327Z" transform="translate(535.609 -640.047)" fill="#fff"/>
      <path id="Trazado_5414" data-name="Trazado 5414" d="M481.8,773.533h13.541v98.893H481.8V773.533Zm0-37.051h13.541v18.845H481.8V736.482Z" transform="translate(617.872 -637.89)" fill="#fff"/>
      <path id="Trazado_5415" data-name="Trazado 5415" d="M534.95,768.266c-.066-10.56-6.939-16.439-16.924-16.317-10.847,0-17.483,7.235-17.113,15.89.37,9.378,7.539,13.369,19.429,16.736,14.321,3.917,30.112,7.948,30.851,29.143.607,18.106-14.141,31.343-32.805,31.343-15.923,0-33.6-10.059-33.775-30.859H498.1c.427,13.55,10.535,19.568,20.414,19.568,11.415,0,19.38-8.342,19.133-18.467-.247-11.283-7.653-15.89-24.668-20.718-14.214-4.221-25.234-9.912-25.6-25.653,0-17.811,14.075-28.273,30.777-28.273,13.9.123,29.307,7.538,30.161,27.607Z" transform="translate(638.173 -607.767)" fill="#fff"/>
      <path id="Trazado_5416" data-name="Trazado 5416" d="M512,784.4H492.632V773.538H512V736.482h13.54v37.057h21.579V784.4H525.54V872.43H512V784.4Z" transform="translate(696.002 -637.894)" fill="#fff"/>
      <path id="Trazado_5417" data-name="Trazado 5417" d="M588.688,785.864c-.985-17.31-17.671-34.1-38.143-33.487-21.326,0-37.035,15.446-38.258,33.487Zm-76.647,10.864c.673,24.841,21.892,36.674,38.627,36.55,15.266,0,27.534-7.538,33.914-20.364h14.149a53.228,53.228,0,0,1-20.02,24.126A51.945,51.945,0,0,1,550.546,845c-34.243,0-52.168-27.385-52.168-51.922,0-28.97,22.409-52.414,52.11-52.414A51.911,51.911,0,0,1,586.6,754.741a51.3,51.3,0,0,1,15.438,41.986Z" transform="translate(737.434 -607.767)" fill="#fff"/>
      <path id="Trazado_5418" data-name="Trazado 5418" d="M566.6,824.941c-17.1,0-29.734-12.958-29.734-31.024,0-8.82,3.17-17,8.318-22.377a27.7,27.7,0,0,1,21.458-8.639c13.188-.042,22.845,7.44,27.205,18.066H618.4c-5.789-24.479-27.418-40.6-52.628-40.6-30.268,0-53.187,23.789-53.187,53.458,0,28.888,22.138,53.638,53.966,53.638a53.087,53.087,0,0,0,51.938-39.811H593.809c-3.679,8.319-12.186,17.237-27.205,17.286" transform="translate(839.918 -609.858)" fill="#fff" stroke="#96b30c" stroke-linejoin="round" stroke-width="0.049"/>
      <path id="Trazado_5419" data-name="Trazado 5419" d="M577.08,764.6V740.369c-15.34.14-23.518,7.431-28.027,16.407v-13.2H526.291V844.393h24.133V790.016c0-17.368,8.548-25.415,25.457-25.415Z" transform="translate(938.739 -609.858)" fill="#fff" stroke="#96b30c" stroke-linejoin="round" stroke-width="0.049"/>
      <path id="Trazado_5420" data-name="Trazado 5420" d="M556.481,783.5c.92-9.756,10.708-22.664,28.585-22.664,17.548-.238,27.714,13.188,28.543,22.664Zm28.446-43.136c-30.54,0-52.949,25.209-52.949,53.868A53.011,53.011,0,0,0,585.3,847.473a50.311,50.311,0,0,0,28.7-8.729c8.549-5.69,15.668-14.239,20.488-25.349H609.652c-4.681,8.137-12.5,13.607-24.307,13.607-13.746.049-28.125-8.869-29.192-24.963h81.18c2.021-17.631-2.439-33.569-14.749-46.289-9.5-9.681-22.688-15.38-37.658-15.38" transform="translate(979.752 -609.858)" fill="#fff" stroke="#96b30c" stroke-linejoin="round" stroke-width="0.049"/>
      <path id="Trazado_5421" data-name="Trazado 5421" d="M622.412,843.79a31.5,31.5,0,0,1-22.376,9.181c-18.616,0-30.794-13.919-30.835-31.105v-.181c0-15.676,11.4-30.744,30.966-30.744a30.549,30.549,0,0,1,21.876,8.688,32.16,32.16,0,0,1,.369,44.162m7.218-73.954v14.707c-3.777-5.888-14.477-16.135-33.864-16.135-27.287,0-50.707,20.808-50.707,53.417,0,29.57,19.979,53.687,51.118,53.687,20.578,0,30.145-10.108,34.554-17.646v14.567h23.034V736.481H629.631v33.355Z" transform="translate(1074.087 -637.897)" fill="#fff" stroke="#96b30c" stroke-linejoin="round" stroke-width="0.049"/>
      <path id="Trazado_5422" data-name="Trazado 5422" d="M584,736.482H559.858v21.535H584V736.482Z" transform="translate(1180.811 -637.894)" fill="#fff" stroke="#96b30c" stroke-linejoin="round" stroke-width="0.049" fill-rule="evenodd"/>
      <path id="Trazado_5423" data-name="Trazado 5423" d="M584,740.761H559.858V841.571H584V740.761Z" transform="translate(1180.811 -607.034)" fill="#fff" stroke="#96b30c" stroke-linejoin="round" stroke-width="0.049" fill-rule="evenodd"/>
      <path id="Trazado_5424" data-name="Trazado 5424" d="M621.214,771.618H603.936V736.482H579.8v35.137H563.123v18.542H579.8V872.43h24.136V790.161h17.278V771.618Z" transform="translate(1204.354 -637.894)" fill="#fff" stroke="#96b30c" stroke-linejoin="round" stroke-width="0.049"/>
      <path id="Trazado_5425" data-name="Trazado 5425" d="M685.957,793.228,661,775.7l-8.335,11.217-8.417,11.324,8.894-1.068c-1.65,15.947-14.3,27.329-29.677,27.329-16.5,0-29.874-13.1-29.874-30.7v-.188c0-17.778,13.377-30.876,29.874-30.876a29.444,29.444,0,0,1,27.862,19.52l8.82-11.866,15.89,11.152c-4.96-21.679-22.968-41.157-52.571-41.157-35.13,0-54.008,27.411-54.008,53.228v.188c0,26.039,18.878,53.409,54.008,53.409,34.932,0,53.778-27.058,53.991-52.965l8.5-1.018Z" transform="translate(1250.043 -609.736)" fill="#fff" stroke="#96b30c" stroke-linejoin="round" stroke-width="0.049"/>
      <path id="Trazado_5426" data-name="Trazado 5426" d="M563.9,750.04a13.566,13.566,0,1,1-13.566-13.558A13.569,13.569,0,0,1,563.9,750.04" transform="translate(1014.302 -637.89)" fill="#fff" stroke="#96b30c" stroke-linejoin="round" stroke-width="0.049"/>
    </g>
  </g>
</svg>
