<svg xmlns="http://www.w3.org/2000/svg" xmlns:xlink="http://www.w3.org/1999/xlink" width="42" height="40" viewBox="0 0 42 40">
  <defs>
    <clipPath id="clip-aliados">
      <rect width="42" height="40"/>
    </clipPath>
  </defs>
  <g id="aliados" clip-path="url(#clip-aliados)">
    <g id="Grupo_9298" data-name="Grupo 9298" transform="translate(-412.551 -321.621)">
      <path id="Trazado_5595" data-name="Trazado 5595" d="M446.126,352.387a1.643,1.643,0,0,1-1.644,1.644h-3.288a1.644,1.644,0,0,1,0-3.288h3.288A1.644,1.644,0,0,1,446.126,352.387Z" transform="translate(-4.63 -4.452)" fill="none" stroke="#007aa4" stroke-linecap="round" stroke-linejoin="round" stroke-width="1"/>
      <path id="Trazado_5596" data-name="Trazado 5596" d="M446.126,348.387a1.643,1.643,0,0,1-1.644,1.644h-3.288a1.644,1.644,0,0,1,0-3.288h3.288A1.644,1.644,0,0,1,446.126,348.387Z" transform="translate(-4.63 -3.739)" fill="none" stroke="#007aa4" stroke-linecap="round" stroke-linejoin="round" stroke-width="1"/>
      <path id="Trazado_5597" data-name="Trazado 5597" d="M442.839,346.031h-1.644a1.644,1.644,0,0,1,0-3.288h1.644" transform="translate(-4.63 -3.027)" fill="none" stroke="#007aa4" stroke-linecap="round" stroke-linejoin="round" stroke-width="1"/>
      <path id="Trazado_5598" data-name="Trazado 5598" d="M442.839,342.031h-1.644a1.644,1.644,0,1,1,0-3.288h1.644" transform="translate(-4.63 -2.315)" fill="none" stroke="#007aa4" stroke-linecap="round" stroke-linejoin="round" stroke-width="1"/>
      <path id="Trazado_5599" data-name="Trazado 5599" d="M453.414,345.606h-.822a5.754,5.754,0,0,1-5.754-5.754v2.466a2.466,2.466,0,0,1-2.466,2.466h-.822v-7.4a1.644,1.644,0,0,1,1.644-1.644h6.035a3.291,3.291,0,0,1,2.325.963l3.146,3.146h1.644" transform="translate(-5.342 -1.781)" fill="none" stroke="#007aa4" stroke-linecap="round" stroke-linejoin="round" stroke-width="1"/>
      <line id="Línea_171" data-name="Línea 171" x2="14" transform="translate(438.551 349.621)" fill="none" stroke="#007aa4" stroke-linecap="round" stroke-linejoin="round" stroke-width="1"/>
      <line id="Línea_172" data-name="Línea 172" y2="3" transform="translate(450.551 346.621)" fill="none" stroke="#007aa4" stroke-linecap="round" stroke-linejoin="round" stroke-width="1"/>
      <path id="Trazado_5600" data-name="Trazado 5600" d="M427.551,352.387a1.643,1.643,0,0,0,1.644,1.644h3.288a1.644,1.644,0,1,0,0-3.288h-3.288A1.644,1.644,0,0,0,427.551,352.387Z" transform="translate(-2.493 -4.452)" fill="none" stroke="#007aa4" stroke-linecap="round" stroke-linejoin="round" stroke-width="1"/>
      <path id="Trazado_5601" data-name="Trazado 5601" d="M427.551,348.387a1.643,1.643,0,0,0,1.644,1.644h3.288a1.644,1.644,0,1,0,0-3.288h-3.288A1.644,1.644,0,0,0,427.551,348.387Z" transform="translate(-2.493 -3.739)" fill="none" stroke="#007aa4" stroke-linecap="round" stroke-linejoin="round" stroke-width="1"/>
      <path id="Trazado_5602" data-name="Trazado 5602" d="M431.551,346.031h1.644a1.644,1.644,0,0,0,0-3.288h-1.644" transform="translate(-3.205 -3.027)" fill="none" stroke="#007aa4" stroke-linecap="round" stroke-linejoin="round" stroke-width="1"/>
      <path id="Trazado_5603" data-name="Trazado 5603" d="M431.551,342.031h1.644a1.644,1.644,0,1,0,0-3.288h-1.644" transform="translate(-3.205 -2.315)" fill="none" stroke="#007aa4" stroke-linecap="round" stroke-linejoin="round" stroke-width="1"/>
      <path id="Trazado_5604" data-name="Trazado 5604" d="M418.483,345.606h.822a5.753,5.753,0,0,0,5.753-5.754v2.466a2.466,2.466,0,0,0,2.466,2.466h.822v-7.4a1.644,1.644,0,0,0-1.644-1.644h-6.035a3.291,3.291,0,0,0-2.325.963l-3.146,3.146h-1.644" transform="translate(0 -1.781)" fill="none" stroke="#007aa4" stroke-linecap="round" stroke-linejoin="round" stroke-width="1"/>
      <line id="Línea_173" data-name="Línea 173" x1="14" transform="translate(413.551 349.621)" fill="none" stroke="#007aa4" stroke-linecap="round" stroke-linejoin="round" stroke-width="1"/>
      <line id="Línea_174" data-name="Línea 174" y2="3" transform="translate(415.551 346.621)" fill="none" stroke="#007aa4" stroke-linecap="round" stroke-linejoin="round" stroke-width="1"/>
      <line id="Línea_175" data-name="Línea 175" y1="7" transform="translate(433.551 325.621)" fill="none" stroke="#98bf11" stroke-linecap="round" stroke-linejoin="round" stroke-width="1"/>
      <line id="Línea_176" data-name="Línea 176" y1="4" x2="1" transform="translate(437.551 327.621)" fill="none" stroke="#98bf11" stroke-linecap="round" stroke-linejoin="round" stroke-width="1"/>
      <line id="Línea_177" data-name="Línea 177" x1="2" y1="4" transform="translate(427.551 327.621)" fill="none" stroke="#98bf11" stroke-linecap="round" stroke-linejoin="round" stroke-width="1"/>
      <line id="Línea_178" data-name="Línea 178" y2="7" transform="translate(433.551 351.621)" fill="none" stroke="#98bf11" stroke-linecap="round" stroke-linejoin="round" stroke-width="1"/>
      <line id="Línea_179" data-name="Línea 179" x2="1" y2="4" transform="translate(437.551 352.621)" fill="none" stroke="#98bf11" stroke-linecap="round" stroke-linejoin="round" stroke-width="1"/>
      <line id="Línea_180" data-name="Línea 180" x1="2" y2="4" transform="translate(427.551 352.621)" fill="none" stroke="#98bf11" stroke-linecap="round" stroke-linejoin="round" stroke-width="1"/>
    </g>
  </g>
</svg>
