<svg xmlns="http://www.w3.org/2000/svg" xmlns:xlink="http://www.w3.org/1999/xlink" width="26" height="26" viewBox="0 0 26 26">
  <defs>
    <clipPath id="clip-clave_din치mica_azul">
      <rect width="26" height="26"/>
    </clipPath>
  </defs>
  <g id="clave_din치mica_azul" data-name="clave din치mica azul" clip-path="url(#clip-clave_din치mica_azul)">
    <g id="Grupo_9216" data-name="Grupo 9216" transform="translate(-277.977 -52.251)">
      <path id="Trazado_5373" data-name="Trazado 5373" d="M303.4,77.661h-1.84V68.907a.749.749,0,1,0-1.5,0v8.754H288.182V68.907a.749.749,0,0,0-1.5,0v8.754H282.11V68.907a.749.749,0,0,0-1.5,0v8.754h-1.84a.749.749,0,1,0,0,1.5H303.4a.749.749,0,0,0,0-1.5Z" transform="translate(-0.01 -3.393)" fill="#004195"/>
      <path id="Trazado_5374" data-name="Trazado 5374" d="M281.474,63.9a3.5,3.5,0,0,0,2.4-.954,3.5,3.5,0,0,0,4.8,0,3.5,3.5,0,0,0,4.8,0,3.5,3.5,0,0,0,4.8,0,3.5,3.5,0,0,0,5.9-2.544,3.438,3.438,0,0,0-.055-.621.771.771,0,0,0-.048-.16L301.314,53.2a.747.747,0,0,0-.688-.454h-19.1a.748.748,0,0,0-.688.454l-2.757,6.421a.747.747,0,0,0-.049.164,3.54,3.54,0,0,0-.054.617A3.5,3.5,0,0,0,281.474,63.9Zm4.8-1.5a2,2,0,0,1-1.675-.928l1.147-7.231h2.505l-.383,7.245a.591.591,0,0,0,.011.076A1.989,1.989,0,0,1,286.275,62.407Zm4.8,0a2,2,0,0,1-1.7-.967l.38-7.192h2.514l.387,7.324c0,.009.006.017.007.026A1.99,1.99,0,0,1,291.074,62.407Zm4.8,0a2,2,0,0,1-1.733-1.006l-.378-7.153h2.505l1.17,7.377A1.991,1.991,0,0,1,295.874,62.407Zm6.782-2.275a2,2,0,0,1-3.728,1.25c0-.008-.011-.012-.015-.02l-1.128-7.114h2.349Zm-23.164,0,2.526-5.883h2.213l-1.137,7.168a.7.7,0,0,0,.005.128,1.992,1.992,0,0,1-3.607-1.412Z" fill="#004195"/>
      <path id="Trazado_5375" data-name="Trazado 5375" d="M286.54,72.855v1.794a.749.749,0,0,0,1.5,0V72.855a.749.749,0,1,0-1.5,0Z" transform="translate(-1.886 -4.263)" fill="#004195"/>
      <path id="Trazado_5376" data-name="Trazado 5376" d="M302.388,69.041a.749.749,0,0,0-1.059.007l-5.553,5.63a.749.749,0,1,0,1.066,1.051L302.4,70.1A.748.748,0,0,0,302.388,69.041Z" transform="translate(-3.873 -3.54)" fill="#004195"/>
      <path id="Trazado_5377" data-name="Trazado 5377" d="M298.823,78.457a.749.749,0,0,0,.533-.223l3.756-3.808a.749.749,0,1,0-1.066-1.051l-3.756,3.808a.749.749,0,0,0,.533,1.275Z" transform="translate(-4.426 -4.493)" fill="#004195"/>
    </g>
  </g>
</svg>
