<svg xmlns="http://www.w3.org/2000/svg" xmlns:xlink="http://www.w3.org/1999/xlink" width="26" height="26" viewBox="0 0 26 26">
  <defs>
    <clipPath id="clip-chat_verde">
      <rect width="26" height="26"/>
    </clipPath>
  </defs>
  <g id="chat_verde" data-name="chat  verde" clip-path="url(#clip-chat_verde)">
    <g id="Grupo_8992" data-name="Grupo 8992">
      <path id="Trazado_5418" data-name="Trazado 5418" d="M343.839,77.059a.8.8,0,0,1-.293-.056,18.244,18.244,0,0,1-5.281-3.178,14.477,14.477,0,0,1-3.645.463c-7.164,0-12.993-5.207-12.993-11.608s5.829-11.608,12.993-11.608,12.993,5.207,12.993,11.608a10.9,10.9,0,0,1-3.679,8.1l.683,5.4a.784.784,0,0,1-.778.883Zm-5.367-4.889a.783.783,0,0,1,.536.212A15.626,15.626,0,0,0,342.886,75l-.56-4.434a.782.782,0,0,1,.268-.694,9.41,9.41,0,0,0,3.451-7.187c0-5.535-5.125-10.039-11.425-10.039S323.2,57.145,323.2,62.681,328.321,72.72,334.62,72.72a12.854,12.854,0,0,0,3.63-.518A.76.76,0,0,1,338.472,72.17Z" transform="translate(-321.627 -51.073)" fill="#71a000"/>
      <path id="Trazado_5419" data-name="Trazado 5419" d="M336.728,67.08a.9.9,0,0,1-.9-.9,3.921,3.921,0,0,1,1.873-3.426c.669-.515.965-.771.952-1.463-.022-1.167-1.355-1.473-2.078-1.473h-.023c-.781.007-2.1.346-2.1,1.571a.9.9,0,0,1-1.8,0c0-2.189,1.954-3.351,3.884-3.368h.044c1.9,0,3.831,1.105,3.87,3.237a3.366,3.366,0,0,1-1.654,2.92,2.176,2.176,0,0,0-1.171,2A.9.9,0,0,1,336.728,67.08Z" transform="translate(-323.646 -52.345)" fill="#71a000"/>
      <ellipse id="Elipse_426" data-name="Elipse 426" cx="0.948" cy="0.948" rx="0.948" ry="0.948" transform="translate(12.233 15.866)" fill="#71a000"/>
    </g>
  </g>
</svg>
