<svg xmlns="http://www.w3.org/2000/svg" xmlns:xlink="http://www.w3.org/1999/xlink" width="38" height="40" viewBox="0 0 38 40">
  <defs>
    <clipPath id="clip-donde_comprar">
      <rect width="38" height="40"/>
    </clipPath>
  </defs>
  <g id="donde_comprar" data-name="donde comprar" clip-path="url(#clip-donde_comprar)">
    <g id="Grupo_9285" data-name="Grupo 9285" transform="translate(-61.776 -37.2)">
      <line id="Línea_178" data-name="Línea 178" x2="24.127" transform="translate(68.812 74.794)" fill="none" stroke="#007aa4" stroke-linecap="round" stroke-linejoin="round" stroke-width="1"/>
      <line id="Línea_179" data-name="Línea 179" y1="9.312" transform="translate(71.348 65.483)" fill="none" stroke="#007aa4" stroke-linecap="round" stroke-linejoin="round" stroke-width="1"/>
      <line id="Línea_180" data-name="Línea 180" y1="9.312" transform="translate(77.298 65.483)" fill="none" stroke="#007aa4" stroke-linecap="round" stroke-linejoin="round" stroke-width="1"/>
      <line id="Línea_181" data-name="Línea 181" y1="9.312" transform="translate(90.403 65.483)" fill="none" stroke="#007aa4" stroke-linecap="round" stroke-linejoin="round" stroke-width="1"/>
      <path id="Trazado_5595" data-name="Trazado 5595" d="M71.519,53.711H90.235L92.934,60a2.694,2.694,0,0,1-5,1.789,2.694,2.694,0,0,1-4.7,0,2.694,2.694,0,0,1-4.7,0,2.693,2.693,0,0,1-4.7,0,2.695,2.695,0,0,1-5-1.789l2.7-6.293Z" fill="none" stroke="#007aa4" stroke-linecap="round" stroke-linejoin="round" stroke-width="1"/>
      <line id="Línea_182" data-name="Línea 182" y1="7.543" x2="1.196" transform="translate(73.781 54.039)" fill="none" stroke="#007aa4" stroke-linecap="round" stroke-linejoin="round" stroke-width="1"/>
      <path id="Trazado_5596" data-name="Trazado 5596" d="M81.46,61.684l.4-7.543" transform="translate(-2.993 -0.101)" fill="none" stroke="#007aa4" stroke-linecap="round" stroke-linejoin="round" stroke-width="1"/>
      <path id="Trazado_5597" data-name="Trazado 5597" d="M87.471,61.684l-.4-7.543" transform="translate(-4.317 -0.101)" fill="none" stroke="#007aa4" stroke-linecap="round" stroke-linejoin="round" stroke-width="1"/>
      <line id="Línea_183" data-name="Línea 183" x1="1.196" y1="7.543" transform="translate(86.644 54.039)" fill="none" stroke="#007aa4" stroke-linecap="round" stroke-linejoin="round" stroke-width="1"/>
      <line id="Línea_184" data-name="Línea 184" y1="1.758" transform="translate(75.318 68.499)" fill="none" stroke="#007aa4" stroke-linecap="round" stroke-linejoin="round" stroke-width="1"/>
      <line id="Línea_185" data-name="Línea 185" y1="5.516" x2="5.441" transform="translate(82.211 65.993)" fill="none" stroke="#007aa4" stroke-linecap="round" stroke-linejoin="round" stroke-width="1"/>
      <line id="Línea_186" data-name="Línea 186" y1="3.732" x2="3.681" transform="translate(84.131 69.298)" fill="none" stroke="#007aa4" stroke-linecap="round" stroke-linejoin="round" stroke-width="1"/>
    </g>
    <g id="Grupo_9284" data-name="Grupo 9284" transform="translate(12.625 1.443)">
      <path id="Trazado_5530" data-name="Trazado 5530" d="M500.552,33.853a5.936,5.936,0,0,0-3.458-1.11,6.354,6.354,0,0,0-3.562,1.129,4.864,4.864,0,0,0-2.041,4.1c.011,1.587.867,3.815,2.616,6.813,1.128,1.924,2.257,3.5,2.576,3.938a.492.492,0,0,0,.4.2h.01a.509.509,0,0,0,.424-.228c.3-.432,1.377-1.988,2.448-3.9,1.67-2.984,2.487-5.218,2.5-6.828A4.843,4.843,0,0,0,500.552,33.853Z" transform="translate(-490.445 -31.711)" fill="#e4e4e4"/>
      <g id="Grupo_9255" data-name="Grupo 9255" transform="translate(0 0)">
        <path id="Trazado_5388" data-name="Trazado 5388" d="M421.854,52.184a6.821,6.821,0,0,0-3.978-1.277,7.316,7.316,0,0,0-4.1,1.3,5.592,5.592,0,0,0-2.347,4.718c.013,1.825,1,4.389,3.009,7.836,1.3,2.212,2.6,4.026,2.963,4.529a.566.566,0,0,0,.461.231h.011a.585.585,0,0,0,.488-.263c.349-.5,1.584-2.286,2.816-4.486,1.922-3.432,2.861-6,2.873-7.853A5.571,5.571,0,0,0,421.854,52.184Zm1.039,4.734c.017,2.151-1.7,5.511-2.73,7.324-.553.989-1.193,2.043-1.9,3.134-.147.224-.281.426-.4.6-.122-.174-.266-.38-.421-.615a50.509,50.509,0,0,1-3.06-5.068c-.823-1.591-1.8-3.814-1.793-5.37a4.432,4.432,0,0,1,1.876-3.827,6.156,6.156,0,0,1,3.41-1.079,5.6,5.6,0,0,1,3.265,1.041A4.521,4.521,0,0,1,422.893,56.919Z" transform="translate(-411.432 -50.907)" fill="#a7bf30"/>
        <path id="Trazado_5389" data-name="Trazado 5389" d="M417.985,58.863a2.4,2.4,0,1,0,2.4-2.286A2.345,2.345,0,0,0,417.985,58.863Zm2.4,1.241a1.242,1.242,0,1,1,1.306-1.241A1.277,1.277,0,0,1,420.381,60.1Z" transform="translate(-414.027 -53.17)" fill="#a7bf30"/>
      </g>
    </g>
  </g>
</svg>
