<svg xmlns="http://www.w3.org/2000/svg" xmlns:xlink="http://www.w3.org/1999/xlink" width="41" height="40" viewBox="0 0 41 40">
  <defs>
    <clipPath id="clip-tiempo_espera_info_cupo_WEB">
      <rect width="41" height="40"/>
    </clipPath>
  </defs>
  <g id="tiempo_espera_info_cupo_WEB" data-name="tiempo espera info cupo WEB" clip-path="url(#clip-tiempo_espera_info_cupo_WEB)">
    <g id="Grupo_9458" data-name="Grupo 9458" transform="translate(-156.644 -433.334)">
      <g id="Grupo_9263" data-name="Grupo 9263" transform="translate(156.643 433.334)">
        <g id="Grupo_9254" data-name="Grupo 9254" transform="translate(2.586 2.201)">
          <path id="Trazado_5579" data-name="Trazado 5579" d="M240.946,850.693a17.144,17.144,0,1,1,17.415-17.142,17.3,17.3,0,0,1-17.415,17.142Zm0-31.118a13.979,13.979,0,1,0,14.2,13.977,14.105,14.105,0,0,0-14.2-13.977Z" transform="translate(-223.535 -816.41)" fill="#007aa4"/>
        </g>
        <g id="Grupo_9255" data-name="Grupo 9255" transform="translate(18.403 7.191)">
          <path id="Trazado_5580" data-name="Trazado 5580" d="M234.961,833.383a1.6,1.6,0,0,1-1.594-1.594v-10.6a1.594,1.594,0,0,1,3.188,0v10.6a1.594,1.594,0,0,1-1.594,1.594Z" transform="translate(-233.367 -819.591)" fill="#98bf11"/>
        </g>
        <g id="Grupo_9258" data-name="Grupo 9258">
          <g id="Grupo_9256" data-name="Grupo 9256">
            <path id="Trazado_5581" data-name="Trazado 5581" d="M223.6,825.787a1.592,1.592,0,0,1-1.57-1.32,8.053,8.053,0,0,1,9.316-9.316,1.594,1.594,0,1,1-.548,3.14,4.863,4.863,0,0,0-5.626,5.627,1.6,1.6,0,0,1-1.3,1.846,1.8,1.8,0,0,1-.274.022Z" transform="translate(-221.913 -815.029)" fill="#007aa4"/>
          </g>
          <g id="Grupo_9257" data-name="Grupo 9257" transform="translate(29.243 0.001)">
            <path id="Trazado_5582" data-name="Trazado 5582" d="M249.146,825.787a1.817,1.817,0,0,1-.277-.022,1.6,1.6,0,0,1-1.3-1.846,4.862,4.862,0,0,0-5.629-5.627,1.594,1.594,0,0,1-.548-3.14,8.052,8.052,0,0,1,9.319,9.316,1.6,1.6,0,0,1-1.569,1.32Z" transform="translate(-240.077 -815.03)" fill="#007aa4"/>
          </g>
        </g>
        <g id="Grupo_9259" data-name="Grupo 9259" transform="translate(13.969 17.794)">
          <path id="Trazado_5583" data-name="Trazado 5583" d="M232.192,833.742a1.594,1.594,0,0,1-1.127-2.721l4.264-4.264a1.594,1.594,0,0,1,2.254,2.254l-4.264,4.264a1.593,1.593,0,0,1-1.127.467Z" transform="translate(-230.598 -826.29)" fill="#98bf11"/>
        </g>
      </g>
      <g id="Grupo_9262" data-name="Grupo 9262" transform="translate(161.615 463.883)">
        <g id="Grupo_9260" data-name="Grupo 9260">
          <path id="Trazado_5584" data-name="Trazado 5584" d="M226.625,841.8a1.594,1.594,0,0,1-1.127-2.721l4.263-4.263a1.594,1.594,0,1,1,2.254,2.254l-4.263,4.263a1.584,1.584,0,0,1-1.127.467Z" transform="translate(-225.031 -834.353)" fill="#007aa4"/>
        </g>
        <g id="Grupo_9261" data-name="Grupo 9261" transform="translate(22.606)">
          <path id="Trazado_5585" data-name="Trazado 5585" d="M244.887,841.8a1.583,1.583,0,0,1-1.127-.467l-4.263-4.263a1.594,1.594,0,0,1,2.254-2.254l4.263,4.263a1.594,1.594,0,0,1-1.127,2.721Z" transform="translate(-239.032 -834.353)" fill="#007aa4"/>
        </g>
      </g>
    </g>
  </g>
</svg>
