<svg xmlns="http://www.w3.org/2000/svg" xmlns:xlink="http://www.w3.org/1999/xlink" width="26" height="22" viewBox="0 0 26 22">
  <defs>
    <clipPath id="clip-pago_rápido_web_">
      <rect width="26" height="22"/>
    </clipPath>
  </defs>
  <g id="pago_rápido_web_" data-name="pago rápido web " clip-path="url(#clip-pago_rápido_web_)">
    <g id="Grupo_9433" data-name="Grupo 9433" transform="translate(0.988 1.4)">
      <path id="Trazado_5684" data-name="Trazado 5684" d="M1174.14,293.929a.517.517,0,0,1-.517-.517v-.61c-.187-.013-.383-.031-.6-.058a5.614,5.614,0,0,1-.876-.18,2.416,2.416,0,0,1-.7-.323.647.647,0,0,1-.315-.537.593.593,0,0,1,.156-.4.516.516,0,0,1,.4-.189.74.74,0,0,1,.257.065c.1.04.194.08.283.119a4.132,4.132,0,0,0,.653.215,4.435,4.435,0,0,0,.735.111v-3.473c-.247-.086-.494-.174-.739-.272a3.427,3.427,0,0,1-.871-.5,2.384,2.384,0,0,1-.622-.759,2.733,2.733,0,0,1,.5-2.987,3.182,3.182,0,0,1,1.732-.76v-.7a.517.517,0,0,1,1.035,0v.68c.159.018.327.039.507.067a5.09,5.09,0,0,1,.728.165,1.973,1.973,0,0,1,.581.28.584.584,0,0,1,.261.478.537.537,0,0,1-.152.377.551.551,0,0,1-.418.164,1.143,1.143,0,0,1-.306-.04,1.505,1.505,0,0,1-.268-.1,3.922,3.922,0,0,0-.442-.132c-.127-.031-.292-.062-.49-.091v3.266c.3.1.549.2.78.29a3.472,3.472,0,0,1,.87.507,2.432,2.432,0,0,1,.628.766,2.376,2.376,0,0,1,.24,1.113,2.81,2.81,0,0,1-.207,1.1,2.639,2.639,0,0,1-.565.848,2.8,2.8,0,0,1-.862.579,4.13,4.13,0,0,1-.885.268v.65A.518.518,0,0,1,1174.14,293.929Zm.517-2.346a1.434,1.434,0,0,0,1.275-1.5,1.737,1.737,0,0,0-.082-.57,1.361,1.361,0,0,0-.205-.391,1.216,1.216,0,0,0-.272-.259,2.84,2.84,0,0,0-.3-.177,1.675,1.675,0,0,1-.211-.087c-.047-.022-.119-.051-.213-.086Zm-1.034-7.521a2.884,2.884,0,0,0-.323.089,1.675,1.675,0,0,0-.485.263,1.151,1.151,0,0,0-.317.405,1.382,1.382,0,0,0-.115.59,1.533,1.533,0,0,0,.089.559,1.391,1.391,0,0,0,.22.384,1.255,1.255,0,0,0,.286.26,2.155,2.155,0,0,0,.287.162c.081.04.186.086.32.138l.04.015Z" transform="translate(-1159.609 -278.158)" fill="#007aa4" stroke="#007aa4" stroke-width="0.5"/>
      <line id="Línea_203" data-name="Línea 203" x2="6.894" transform="translate(0 6.953)" fill="none" stroke="#007aa4" stroke-linecap="round" stroke-linejoin="round" stroke-width="1.5"/>
      <line id="Línea_204" data-name="Línea 204" x2="2.487" transform="translate(0.111 10.003)" fill="none" stroke="#007aa4" stroke-linecap="round" stroke-linejoin="round" stroke-width="1.5"/>
      <line id="Línea_205" data-name="Línea 205" x2="1.649" transform="translate(6.371 10.37)" fill="none" stroke="#007aa4" stroke-linecap="round" stroke-linejoin="round" stroke-width="1.5"/>
      <line id="Línea_206" data-name="Línea 206" x2="5.428" transform="translate(3.121 13.302)" fill="none" stroke="#007aa4" stroke-linecap="round" stroke-linejoin="round" stroke-width="1.5"/>
      <line id="Línea_212" data-name="Línea 212" x2="4.566" transform="translate(0.021 16.516)" fill="none" stroke="#007aa4" stroke-linecap="round" stroke-linejoin="round" stroke-width="1.5"/>
      <circle id="Elipse_459" data-name="Elipse 459" cx="9.64" cy="9.64" r="9.64" transform="translate(4.315)" stroke-width="1.5" stroke="#007aa4" stroke-linecap="round" stroke-linejoin="round" fill="none"/>
    </g>
  </g>
</svg>
