<svg xmlns="http://www.w3.org/2000/svg" xmlns:xlink="http://www.w3.org/1999/xlink" width="15" height="15" viewBox="0 0 15 15">
  <defs>
    <clipPath id="clip-edit">
      <rect width="15" height="15"/>
    </clipPath>
  </defs>
  <g id="edit" clip-path="url(#clip-edit)">
    <g id="Grupo_8499" data-name="Grupo 8499" transform="translate(0.385 0.411)">
      <path id="Trazado_2990" data-name="Trazado 2990" d="M1834.877,385.395l-2.069-2.07a.684.684,0,0,0-.94,0l-6.665,6.665c-.01.009-.016.02-.025.03s-.031.035-.045.055a.588.588,0,0,0-.035.055c-.01.018-.021.037-.03.056a.6.6,0,0,0-.026.068c0,.012-.01.023-.013.035l-.753,2.822a.666.666,0,0,0,.643.837.66.66,0,0,0,.171-.022l2.822-.753c.012,0,.023-.009.035-.013a.639.639,0,0,0,.068-.026.855.855,0,0,0,.111-.064c.02-.014.038-.03.057-.046s.019-.015.028-.023l6.665-6.665a.664.664,0,0,0,0-.94Zm-8.608,5.41,4.376-4.375,1.129,1.129-4.375,4.375-1.54.411Zm6.445-4.187-1.129-1.129.752-.753,1.129,1.129Z" transform="translate(-1821.756 -383.138)" fill="#fff"/>
      <g id="Grupo_4272" data-name="Grupo 4272" transform="translate(0 1.583)">
        <g id="Grupo_4271" data-name="Grupo 4271" transform="translate(0 0)">
          <path id="Trazado_2991" data-name="Trazado 2991" d="M1820.3,404.311h-10.376a.671.671,0,0,1-.605-.725V393.21a.572.572,0,0,1,.605-.611h4.39a.669.669,0,0,1,0,1.339h-3.657v9.035h9.035V399.2a.669.669,0,0,1,1.339,0v4.39A.777.777,0,0,1,1820.3,404.311Z" transform="translate(-1809.323 -392.599)" fill="#fff"/>
        </g>
      </g>
    </g>
  </g>
</svg>
