<svg xmlns="http://www.w3.org/2000/svg" xmlns:xlink="http://www.w3.org/1999/xlink" width="77" height="77" viewBox="0 0 77 77">
  <defs>
    <clipPath id="clip-contraseña">
      <rect width="77" height="77"/>
    </clipPath>
  </defs>
  <g id="contraseña" clip-path="url(#clip-contraseña)">
    <path id="Trazado_5464" data-name="Trazado 5464" d="M1736.09,1865.917v-8.634c0-7.2-7.205-13.061-16.037-13.061s-16.037,5.859-16.037,13.061v8.634a11.185,11.185,0,0,0-4.693,9.471v16.143c0,6.61,4.154,11.658,10.764,11.658h17.387c6.609,0,13.31-5.047,13.31-11.658v-16.143C1740.784,1871.536,1738.438,1868.112,1736.09,1865.917Zm-25.815-8.634c0-3.708,4.468-6.842,9.778-6.842s9.778,3.133,9.778,6.842v6.172c-.782-.033-1.985-.163-2.358-.163h-17.387c-.373,0,.188.13.188.163Zm24.251,33.88a5.769,5.769,0,0,1-5.768,5.768h-17.409a5.768,5.768,0,0,1-5.768-5.768v-15.845a5.768,5.768,0,0,1,5.768-5.769h17.409a5.769,5.769,0,0,1,5.768,5.769Z" transform="translate(-1681.323 -1836.044)" fill="#007AA4"/>
  </g>
</svg>
