<svg xmlns="http://www.w3.org/2000/svg" xmlns:xlink="http://www.w3.org/1999/xlink" width="23" height="20" viewBox="0 0 23 20">
  <defs>
    <clipPath id="clip-icono_pagar">
      <rect width="23" height="20"/>
    </clipPath>
  </defs>
  <g id="icono_pagar" data-name="icono pagar" clip-path="url(#clip-icono_pagar)">
    <g id="Grupo_9202" data-name="Grupo 9202" transform="translate(-2195 236)">
      <g id="Grupo_9201" data-name="Grupo 9201" transform="translate(1458 -635)">
        <g id="Grupo_9128" data-name="Grupo 9128" transform="translate(2 6)">
          <g id="Grupo_9111" data-name="Grupo 9111" transform="translate(526 101)">
            <path id="Trazado_5458" data-name="Trazado 5458" d="M217,325.434l1.947-1.947s1.947.487,2.921-.487" transform="translate(-3.592 -15.395)" fill="none" stroke="#fff" stroke-linecap="round" stroke-linejoin="round" stroke-miterlimit="10" stroke-width="1"/>
            <path id="Trazado_5459" data-name="Trazado 5459" d="M218.276,303h-1.461a2.625,2.625,0,0,0-2.434.974l-1.947,1.947L210,308.355" transform="translate(0 -5.132)" fill="none" stroke="#fff" stroke-linecap="round" stroke-linejoin="round" stroke-miterlimit="10" stroke-width="1"/>
            <path id="Trazado_5460" data-name="Trazado 5460" d="M219.461,309h4.868c1.268,0,.727,2.732-.974,2.921h-1.461a2.614,2.614,0,0,1-3.895.974" transform="translate(-4.105 -8.211)" fill="none" stroke="#fff" stroke-linecap="round" stroke-linejoin="round" stroke-miterlimit="10" stroke-width="1"/>
            <path id="Trazado_5462" data-name="Trazado 5462" d="M224,293a1.46,1.46,0,0,1,1.461,1.461v5.355" transform="translate(-7.184)" fill="none" stroke="#fff" stroke-linecap="round" stroke-linejoin="round" stroke-width="1"/>
            <path id="Trazado_5464" data-name="Trazado 5464" d="M225.974,304.684v5.842l.974.487.974-.974,1.461,1.461,1.461-1.461L232.3,311.5l1.461-1.461,1.461,1.461,1.461-1.461.974.974.974-.487V294.461A1.46,1.46,0,0,0,237.171,293H225" transform="translate(-7.697)" fill="none" stroke="#fff" stroke-linecap="round" stroke-linejoin="round" stroke-width="1"/>
          </g>
        </g>
        <path id="Trazado_5529" data-name="Trazado 5529" d="M350.642,324.729a.421.421,0,0,1-.425-.425v-.414c-.163-.009-.335-.026-.519-.05a3.575,3.575,0,0,1-.668-.152,1.986,1.986,0,0,1-.537-.272.586.586,0,0,1-.255-.484.575.575,0,0,1,.151-.39.513.513,0,0,1,.4-.181.785.785,0,0,1,.3.067l.317.129a3.426,3.426,0,0,0,.412.13,2.278,2.278,0,0,0,.4.062v-2.329q-.329-.113-.638-.243a2.763,2.763,0,0,1-.662-.39,1.8,1.8,0,0,1-.484-.6,1.967,1.967,0,0,1-.184-.9,1.991,1.991,0,0,1,.569-1.5,2.363,2.363,0,0,1,1.4-.615v-.431a.425.425,0,1,1,.851,0v.431c.131.013.271.03.419.05a2.79,2.79,0,0,1,.562.137,1.52,1.52,0,0,1,.45.247.56.56,0,0,1-.371,1,.85.85,0,0,1-.28-.047l-.25-.09c-.087-.033-.186-.067-.294-.1a1.886,1.886,0,0,0-.234-.05V319.5q.319.111.631.241a2.634,2.634,0,0,1,.664.391,1.821,1.821,0,0,1,.672,1.5,2.292,2.292,0,0,1-.156.87,2.048,2.048,0,0,1-.438.672,2.288,2.288,0,0,1-.662.467,2.786,2.786,0,0,1-.711.218v.449a.421.421,0,0,1-.426.425Zm.426-2.038a.9.9,0,0,0,.758-.973.886.886,0,0,0-.177-.617,1.366,1.366,0,0,0-.388-.3c-.061-.03-.189-.086-.193-.087Zm-.851-5.344a1.8,1.8,0,0,0-.22.065.856.856,0,0,0-.286.167.794.794,0,0,0-.192.26.921.921,0,0,0-.071.382,1.009,1.009,0,0,0,.059.363.959.959,0,0,0,.143.257.757.757,0,0,0,.177.162,1.312,1.312,0,0,0,.194.109c.063.031.123.058.184.084l.012,0Z" transform="translate(402.045 88.771)" fill="#fff"/>
      </g>
    </g>
  </g>
</svg>
