<svg xmlns="http://www.w3.org/2000/svg" xmlns:xlink="http://www.w3.org/1999/xlink" width="14" height="17" viewBox="0 0 14 17">
  <defs>
    <clipPath id="clip-nombre_empresa">
      <rect width="14" height="17"/>
    </clipPath>
  </defs>
  <g id="nombre_empresa" data-name="nombre empresa" clip-path="url(#clip-nombre_empresa)">
    <g id="Objeto_inteligente_vectorial" data-name="Objeto inteligente vectorial" transform="translate(0.081 0)">
      <g id="Objeto_inteligente_vectorial-2" data-name="Objeto inteligente vectorial" transform="translate(0)">
        <g id="_Group_" data-name="&lt;Group&gt;">
          <g id="_Group_2" data-name="&lt;Group&gt;" transform="translate(0.852 4.125)">
            <g id="_Group_3" data-name="&lt;Group&gt;">
              <path id="Trazado_1076" data-name="Trazado 1076" d="M30.031,459.922a.485.485,0,0,1-.485.485H18.573a.485.485,0,0,1-.485-.485V448.516a.485.485,0,0,1,.485-.485H29.546a.485.485,0,0,1,.485.485ZM19.118,458.89a.485.485,0,0,0,.485.485h8.913A.485.485,0,0,0,29,458.89v-9.343a.485.485,0,0,0-.485-.485H19.6a.485.485,0,0,0-.485.485Z" transform="translate(-18.088 -448.031)" fill="#007aa4"/>
            </g>
          </g>
          <g id="_Group_4" data-name="&lt;Group&gt;" transform="translate(0 15.47)">
            <g id="_Group_5" data-name="&lt;Group&gt;">
              <rect id="Rectángulo_184" data-name="Rectángulo 184" width="13.647" height="1.032" rx="0.516" fill="#007aa4"/>
            </g>
          </g>
          <g id="_Group_6" data-name="&lt;Group&gt;" transform="translate(2.025)">
            <g id="_Group_7" data-name="&lt;Group&gt;">
              <path id="Trazado_1077" data-name="Trazado 1077" d="M31.311,439.953a.485.485,0,0,1-.485.485H22.2a.485.485,0,0,1-.485-.485v-4.186a.485.485,0,0,1,.485-.485h8.628a.485.485,0,0,1,.485.485Zm-8.567-1.032a.485.485,0,0,0,.485.485h6.565a.485.485,0,0,0,.485-.485V436.8a.485.485,0,0,0-.485-.485H23.23a.485.485,0,0,0-.485.485Z" transform="translate(-21.713 -435.281)" fill="#007aa4"/>
            </g>
          </g>
          <g id="_Group_8" data-name="&lt;Group&gt;" transform="translate(4.245 2.063)">
            <g id="Grupo_1686" data-name="Grupo 1686">
              <g id="_Group_9" data-name="&lt;Group&gt;">
                <g id="_Group_10" data-name="&lt;Group&gt;">
                  <rect id="Rectángulo_185" data-name="Rectángulo 185" width="1.032" height="1.032" rx="0.516" fill="#007aa4"/>
                </g>
              </g>
              <g id="_Group_11" data-name="&lt;Group&gt;" transform="translate(2.063)">
                <g id="_Group_12" data-name="&lt;Group&gt;">
                  <rect id="Rectángulo_186" data-name="Rectángulo 186" width="1.032" height="1.032" rx="0.516" fill="#007aa4"/>
                </g>
              </g>
              <g id="_Group_13" data-name="&lt;Group&gt;" transform="translate(4.125)">
                <g id="_Group_14" data-name="&lt;Group&gt;">
                  <rect id="Rectángulo_187" data-name="Rectángulo 187" width="1.032" height="1.032" rx="0.516" fill="#007aa4"/>
                </g>
              </g>
            </g>
          </g>
          <g id="_Group_15" data-name="&lt;Group&gt;" transform="translate(2.914 12.722)">
            <g id="_Group_16" data-name="&lt;Group&gt;">
              <path id="Trazado_1078" data-name="Trazado 1078" d="M27.47,477.894a.485.485,0,0,1-.485.485H24.948a.485.485,0,0,1-.485-.485v-2.809a.485.485,0,0,1,.485-.485h2.036a.485.485,0,0,1,.485.485Zm-1.976-1.032a.472.472,0,1,0,.944,0v-.744a.472.472,0,1,0-.944,0Z" transform="translate(-24.463 -474.6)" fill="#007aa4"/>
            </g>
          </g>
          <g id="_Group_17" data-name="&lt;Group&gt;" transform="translate(7.726 12.722)">
            <g id="_Group_18" data-name="&lt;Group&gt;">
              <path id="Trazado_1079" data-name="Trazado 1079" d="M42.342,477.894a.485.485,0,0,1-.485.485H39.819a.485.485,0,0,1-.485-.485v-2.809a.485.485,0,0,1,.485-.485h2.037a.485.485,0,0,1,.485.485Zm-1.976-1.032a.472.472,0,1,0,.945,0v-.744a.472.472,0,1,0-.945,0Z" transform="translate(-39.334 -474.6)" fill="#007aa4"/>
            </g>
          </g>
          <g id="_Group_19" data-name="&lt;Group&gt;" transform="translate(3.386 6.188)">
            <g id="_Group_20" data-name="&lt;Group&gt;">
              <rect id="Rectángulo_188" data-name="Rectángulo 188" width="2.063" height="1.032" rx="0.516" fill="#007aa4"/>
            </g>
          </g>
          <g id="_Group_21" data-name="&lt;Group&gt;" transform="translate(8.199 6.188)">
            <g id="_Group_22" data-name="&lt;Group&gt;">
              <rect id="Rectángulo_189" data-name="Rectángulo 189" width="2.063" height="1.032" rx="0.516" fill="#007aa4"/>
            </g>
          </g>
          <g id="_Group_23" data-name="&lt;Group&gt;" transform="translate(3.386 8.251)">
            <g id="_Group_24" data-name="&lt;Group&gt;">
              <rect id="Rectángulo_190" data-name="Rectángulo 190" width="2.063" height="1.032" rx="0.516" fill="#007aa4"/>
            </g>
          </g>
          <g id="_Group_25" data-name="&lt;Group&gt;" transform="translate(8.199 8.251)">
            <g id="_Group_26" data-name="&lt;Group&gt;">
              <rect id="Rectángulo_191" data-name="Rectángulo 191" width="2.063" height="1.032" rx="0.516" fill="#007aa4"/>
            </g>
          </g>
          <g id="_Group_27" data-name="&lt;Group&gt;" transform="translate(3.386 10.314)">
            <g id="_Group_28" data-name="&lt;Group&gt;">
              <rect id="Rectángulo_192" data-name="Rectángulo 192" width="2.063" height="1.032" rx="0.516" fill="#007aa4"/>
            </g>
          </g>
          <g id="_Group_29" data-name="&lt;Group&gt;" transform="translate(8.199 10.314)">
            <g id="_Group_30" data-name="&lt;Group&gt;">
              <rect id="Rectángulo_193" data-name="Rectángulo 193" width="2.063" height="1.032" rx="0.516" fill="#007aa4"/>
            </g>
          </g>
        </g>
      </g>
    </g>
  </g>
</svg>
