<svg xmlns="http://www.w3.org/2000/svg" xmlns:xlink="http://www.w3.org/1999/xlink" width="17" height="19" viewBox="0 0 17 19">
  <defs>
    <clipPath id="clip-ciudad">
      <rect width="17" height="19"/>
    </clipPath>
  </defs>
  <g id="ciudad" clip-path="url(#clip-ciudad)">
    <g id="Grupo_8770" data-name="Grupo 8770" transform="translate(0.851 0.246)">
      <g id="Grupo_4231" data-name="Grupo 4231">
        <path id="Trazado_2974" data-name="Trazado 2974" d="M1580.623,768.806a8.946,8.946,0,0,1-6.326-15.272.775.775,0,0,1,1.1,1.1,7.4,7.4,0,0,0,10.459,10.458.775.775,0,0,1,1.1,1.1,8.889,8.889,0,0,1-6.326,2.62Z" transform="translate(-1571.676 -753.307)" fill="#007aa4"/>
      </g>
      <g id="Grupo_4232" data-name="Grupo 4232" transform="translate(2.495 0.099)">
        <path id="Trazado_2975" data-name="Trazado 2975" d="M1581.345,766.341a6.453,6.453,0,1,1,6.453-6.453,6.46,6.46,0,0,1-6.453,6.453Zm0-11.356a4.9,4.9,0,1,0,4.9,4.9,4.907,4.907,0,0,0-4.9-4.9Z" transform="translate(-1574.893 -753.435)" fill="#007aa4"/>
      </g>
      <g id="Grupo_4233" data-name="Grupo 4233" transform="translate(5.91 16.567)">
        <path id="Trazado_2976" data-name="Trazado 2976" d="M1584.595,776.223h-4.522a.776.776,0,0,1,0-1.551h4.522a.776.776,0,0,1,0,1.551Z" transform="translate(-1579.297 -774.672)" fill="#007aa4"/>
      </g>
      <g id="Grupo_4234" data-name="Grupo 4234" transform="translate(8.171 13.948)">
        <path id="Trazado_2977" data-name="Trazado 2977" d="M1582.989,774.772a.775.775,0,0,1-.776-.776V772.07a.776.776,0,1,1,1.551,0V774a.775.775,0,0,1-.775.776Z" transform="translate(-1582.213 -771.294)" fill="#007aa4"/>
      </g>
    </g>
  </g>
</svg>
