<svg xmlns="http://www.w3.org/2000/svg" xmlns:xlink="http://www.w3.org/1999/xlink" width="51" height="61" viewBox="0 0 51 61">
  <defs>
    <filter id="Trazado_1308" x="-3" y="4" width="57.807" height="57.806" filterUnits="userSpaceOnUse">
      <feOffset dy="6" input="SourceAlpha"/>
      <feGaussianBlur stdDeviation="3" result="blur"/>
      <feFlood flood-color="#5074a4" flood-opacity="0.22"/>
      <feComposite operator="in" in2="blur"/>
      <feComposite in="SourceGraphic"/>
    </filter>
    <clipPath id="clip-bot贸n_cerrar">
      <rect width="51" height="61"/>
    </clipPath>
  </defs>
  <g id="bot贸n_cerrar" data-name="bot贸n cerrar" clip-path="url(#clip-bot贸n_cerrar)">
    <g id="Grupo_9227" data-name="Grupo 9227" transform="translate(6 7)">
      <g id="Grupo_1863" data-name="Grupo 1863">
        <g transform="matrix(1, 0, 0, 1, -6, -7)" filter="url(#Trazado_1308)">
          <path id="Trazado_1308-2" data-name="Trazado 1308" d="M19.9,0A19.9,19.9,0,1,1,0,19.9,19.9,19.9,0,0,1,19.9,0Z" transform="translate(6 7)" fill="#007aa4"/>
        </g>
        <g id="icn_add_activity" transform="translate(12.815 19.271) rotate(-45)">
          <path id="Trazado_108" data-name="Trazado 108" d="M4.619.751V4.619H.751A.761.761,0,0,0,0,5.37a.807.807,0,0,0,.751.751H4.619V9.926a.761.761,0,0,0,.751.751.807.807,0,0,0,.751-.751V6.12H9.926a.761.761,0,0,0,.751-.751.708.708,0,0,0-.688-.751H6.183V.751A.761.761,0,0,0,5.432,0,.869.869,0,0,0,4.619.751Z" transform="translate(0 0)" fill="#fff" stroke="#fff" stroke-linecap="round" stroke-width="0.5"/>
        </g>
      </g>
    </g>
  </g>
</svg>
