<svg xmlns="http://www.w3.org/2000/svg" xmlns:xlink="http://www.w3.org/1999/xlink" width="19" height="18" viewBox="0 0 19 18">
  <defs>
    <clipPath id="clip-pencil">
      <rect width="19" height="18"/>
    </clipPath>
  </defs>
  <g id="pencil" clip-path="url(#clip-pencil)">
    <path id="Trazado_2990" data-name="Trazado 2990" d="M1840.916,386.678l-3.246-3.246a1.073,1.073,0,0,0-1.475,0l-10.454,10.454c-.015.014-.025.031-.039.047s-.048.056-.07.086a.978.978,0,0,0-.054.086.92.92,0,0,0-.046.088,1,1,0,0,0-.041.107c-.006.019-.015.036-.02.055l-1.181,4.426a1.044,1.044,0,0,0,1.277,1.277l4.426-1.18c.019-.005.036-.015.055-.021a1.02,1.02,0,0,0,.107-.04.881.881,0,0,0,.088-.047.859.859,0,0,0,.086-.054,1.108,1.108,0,0,0,.089-.072c.014-.013.031-.023.045-.037l10.454-10.454a1.041,1.041,0,0,0,0-1.475Zm-13.5,8.485,6.863-6.863,1.77,1.77-6.862,6.863-2.415.644Zm10.108-6.567-1.771-1.77,1.18-1.18,1.771,1.77Z" transform="translate(-1823.117 -383.513)" fill="#c9caca"/>
  </g>
</svg>
