<svg xmlns="http://www.w3.org/2000/svg" xmlns:xlink="http://www.w3.org/1999/xlink" width="26" height="26" viewBox="0 0 26 26">
  <defs>
    <clipPath id="clip-Refresh_camara_">
      <rect width="26" height="26"/>
    </clipPath>
  </defs>
  <g id="Refresh_camara_" data-name="Refresh camara " clip-path="url(#clip-Refresh_camara_)">
    <g id="Grupo_9368" data-name="Grupo 9368" transform="translate(0.375 2.815)">
      <g id="Grupo_8836" data-name="Grupo 8836" transform="translate(0 0)">
        <g id="Grupo_8835" data-name="Grupo 8835">
          <g id="Grupo_8831" data-name="Grupo 8831" transform="translate(17.79 7.742)">
            <path id="Trazado_5393" data-name="Trazado 5393" d="M1709.9,1587.645a.923.923,0,0,1-.623-.239l-2.832-2.542a.933.933,0,1,1,1.247-1.388l2.208,1.982,2.211-1.982a.933.933,0,0,1,1.247,1.388l-2.834,2.542a.93.93,0,0,1-.623.239Z" transform="translate(-1706.133 -1583.236)" fill="#fff"/>
          </g>
          <g id="Grupo_8832" data-name="Grupo 8832" transform="translate(4.137)">
            <path id="Trazado_5394" data-name="Trazado 5394" d="M1654,1554.594a.933.933,0,0,1-.933-.933,8.082,8.082,0,0,0-14.906-4.329.933.933,0,1,1-1.575-1,9.948,9.948,0,0,1,18.346,5.331.933.933,0,0,1-.933.933Z" transform="translate(-1636.441 -1543.715)" fill="#fff"/>
          </g>
          <g id="Grupo_8833" data-name="Grupo 8833" transform="translate(2.785 9.19)">
            <path id="Trazado_5395" data-name="Trazado 5395" d="M1639.486,1601.508a9.959,9.959,0,0,1-9.947-9.947.933.933,0,0,1,1.867,0,8.082,8.082,0,0,0,14.907,4.328.933.933,0,0,1,1.575,1,9.918,9.918,0,0,1-8.4,4.617Z" transform="translate(-1629.539 -1590.627)" fill="#fff"/>
          </g>
          <g id="Grupo_8834" data-name="Grupo 8834" transform="translate(0 7.919)">
            <path id="Trazado_5396" data-name="Trazado 5396" d="M1621.922,1588.547a.924.924,0,0,1-.623-.239l-2.209-1.984-2.211,1.984a.933.933,0,0,1-1.247-1.388l2.834-2.543a.932.932,0,0,1,1.246,0l2.832,2.543a.933.933,0,0,1-.623,1.627Z" transform="translate(-1615.323 -1584.137)" fill="#fff"/>
          </g>
        </g>
      </g>
    </g>
  </g>
</svg>
