<svg xmlns="http://www.w3.org/2000/svg" xmlns:xlink="http://www.w3.org/1999/xlink" width="37" height="25" viewBox="0 0 37 25">
  <defs>
    <clipPath id="clip-actualizar_correo">
      <rect width="37" height="25"/>
    </clipPath>
  </defs>
  <g id="actualizar_correo" data-name="actualizar correo" clip-path="url(#clip-actualizar_correo)">
    <g id="Grupo_9435" data-name="Grupo 9435" transform="translate(-1081.55 -384.158)">
      <g id="Grupo_9449" data-name="Grupo 9449">
        <path id="Trazado_5694" data-name="Trazado 5694" d="M1083.35,385.358l13.517,8.685,13.125-8.685" fill="none" stroke="#007aa4" stroke-width="1.5"/>
        <g id="Rect치ngulo_3260" data-name="Rect치ngulo 3260">
          <rect id="Rect치ngulo_3293" data-name="Rect치ngulo 3293" width="30" height="22" rx="2" transform="translate(1081.55 384.158)" fill="none"/>
          <path id="Trazado_5691" data-name="Trazado 5691" d="M1103.11,405.408h-19.56a1.25,1.25,0,0,1-1.25-1.25v-18a1.25,1.25,0,0,1,1.25-1.25h26a1.25,1.25,0,0,1,1.25,1.25v4.835" fill="none" stroke="#007aa4" stroke-linecap="round" stroke-linejoin="round" stroke-width="1.5"/>
        </g>
      </g>
      <g id="Grupo_9452" data-name="Grupo 9452">
        <path id="Trazado_5697-2" data-name="Trazado 5697-2" d="M1111.638,395.88l2.284-1.134-1.009-2.339" fill="none" stroke="#98bf11" stroke-linecap="round" stroke-linejoin="round" stroke-width="1.5"/>
        <path id="Trazado_5698-2" data-name="Trazado 5698-2" d="M1109.527,404.355l-2.489,1.06.926,2.543" fill="none" stroke="#98bf11" stroke-linecap="round" stroke-linejoin="round" stroke-width="1.501"/>
        <path id="Trazado_5699-2" data-name="Trazado 5699-2" d="M1105.294,403.319a6.286,6.286,0,0,1,7.852-8.886" fill="none" stroke="#98bf11" stroke-linecap="round" stroke-linejoin="round" stroke-width="1.5"/>
        <path id="Trazado_5700-2" data-name="Trazado 5700-2" d="M1116.065,396.543a6.284,6.284,0,0,1-8.151,9.289" fill="none" stroke="#98bf11" stroke-linecap="round" stroke-linejoin="round" stroke-width="1.5"/>
        <path id="Trazado_5701-2" data-name="Trazado 5701-2" d="M1106.651,404.971" fill="none" stroke="#98bf11" stroke-linecap="round" stroke-linejoin="round" stroke-width="1.5"/>
        <path id="Trazado_5702-2" data-name="Trazado 5702-2" d="M1106.651,404.971" fill="none" stroke="#98bf11" stroke-linecap="round" stroke-linejoin="round" stroke-width="1.5"/>
      </g>
    </g>
  </g>
</svg>
