<svg xmlns="http://www.w3.org/2000/svg" xmlns:xlink="http://www.w3.org/1999/xlink" width="143" height="80" viewBox="0 0 143 80">
  <defs>
    <clipPath id="clip-icono_c치mara_azul">
      <rect width="143" height="80"/>
    </clipPath>
  </defs>
  <g id="icono_c치mara_azul" data-name="icono c치mara azul" clip-path="url(#clip-icono_c치mara_azul)">
    <g id="Grupo_9225" data-name="Grupo 9225" transform="translate(1.902 1.727)">
      <g id="Grupo_2165" data-name="Grupo 2165" transform="translate(122.966 40.724)">
        <g id="Grupo_2143" data-name="Grupo 2143" transform="translate(2.024 2.116)">
          <g id="Grupo_2141" data-name="Grupo 2141" transform="translate(0.768 0.768)">
            <path id="Trazado_1518" data-name="Trazado 1518" d="M658.194,1531.989l2.354,2.355Z" transform="translate(-658.194 -1531.989)" fill="#0074ff"/>
          </g>
          <g id="Grupo_2142" data-name="Grupo 2142">
            <path id="Trazado_1519" data-name="Trazado 1519" d="M660.733,1535.3a.765.765,0,0,1-.543-.225l-2.354-2.354a.768.768,0,0,1,1.086-1.087l2.355,2.355a.768.768,0,0,1-.544,1.311Z" transform="translate(-657.611 -1531.406)" fill="#0074ff"/>
          </g>
        </g>
        <g id="Grupo_2146" data-name="Grupo 2146" transform="translate(0 7.136)">
          <g id="Grupo_2144" data-name="Grupo 2144" transform="translate(0.768 0.768)">
            <path id="Trazado_1520" data-name="Trazado 1520" d="M656.658,1535.8h0Z" transform="translate(-656.658 -1535.798)" fill="#0074ff"/>
          </g>
          <g id="Grupo_2145" data-name="Grupo 2145">
            <path id="Trazado_1521" data-name="Trazado 1521" d="M660.172,1536.752h-3.329a.768.768,0,0,1,0-1.537h3.329a.768.768,0,0,1,0,1.537Z" transform="translate(-656.075 -1535.215)" fill="#0074ff"/>
          </g>
        </g>
        <g id="Grupo_2149" data-name="Grupo 2149" transform="translate(2.118 9.762)">
          <g id="Grupo_2147" data-name="Grupo 2147" transform="translate(0.768 0.768)">
            <path id="Trazado_1522" data-name="Trazado 1522" d="M658.265,1540.145l2.354-2.355Z" transform="translate(-658.265 -1537.79)" fill="#0074ff"/>
          </g>
          <g id="Grupo_2148" data-name="Grupo 2148">
            <path id="Trazado_1523" data-name="Trazado 1523" d="M658.45,1541.1a.769.769,0,0,1-.543-1.313l2.354-2.354a.768.768,0,0,1,1.087,1.086l-2.355,2.355A.766.766,0,0,1,658.45,1541.1Z" transform="translate(-657.682 -1537.207)" fill="#0074ff"/>
          </g>
        </g>
        <g id="Grupo_2152" data-name="Grupo 2152" transform="translate(7.136 10.811)">
          <g id="Grupo_2150" data-name="Grupo 2150" transform="translate(0.768 0.768)">
            <path id="Trazado_1524" data-name="Trazado 1524" d="M662.073,1541.917v0Z" transform="translate(-662.073 -1538.586)" fill="#0074ff"/>
          </g>
          <g id="Grupo_2151" data-name="Grupo 2151">
            <path id="Trazado_1525" data-name="Trazado 1525" d="M662.258,1542.87a.768.768,0,0,1-.768-.768v-3.33a.768.768,0,1,1,1.537,0v3.33A.768.768,0,0,1,662.258,1542.87Z" transform="translate(-661.49 -1538.003)" fill="#0074ff"/>
          </g>
        </g>
        <g id="Grupo_2155" data-name="Grupo 2155" transform="translate(9.763 9.669)">
          <g id="Grupo_2153" data-name="Grupo 2153" transform="translate(0.769 0.767)">
            <path id="Trazado_1526" data-name="Trazado 1526" d="M666.42,1540.074l-2.354-2.355Z" transform="translate(-664.066 -1537.719)" fill="#0074ff"/>
          </g>
          <g id="Grupo_2154" data-name="Grupo 2154">
            <path id="Trazado_1527" data-name="Trazado 1527" d="M666.605,1541.028a.766.766,0,0,1-.543-.225l-2.355-2.354a.769.769,0,0,1,1.087-1.087l2.354,2.355a.768.768,0,0,1-.543,1.311Z" transform="translate(-663.483 -1537.137)" fill="#0074ff"/>
          </g>
        </g>
        <g id="Grupo_2158" data-name="Grupo 2158" transform="translate(10.812 7.005)">
          <g id="Grupo_2156" data-name="Grupo 2156" transform="translate(0.768 0.768)">
            <path id="Trazado_1528" data-name="Trazado 1528" d="M668.191,1535.7h0Z" transform="translate(-664.862 -1535.698)" fill="#0074ff"/>
          </g>
          <g id="Grupo_2157" data-name="Grupo 2157">
            <path id="Trazado_1529" data-name="Trazado 1529" d="M668.376,1536.652h-3.329a.768.768,0,1,1,0-1.537h3.329a.768.768,0,0,1,0,1.537Z" transform="translate(-664.279 -1535.115)" fill="#0074ff"/>
          </g>
        </g>
        <g id="Grupo_2161" data-name="Grupo 2161" transform="translate(9.669 2.024)">
          <g id="Grupo_2159" data-name="Grupo 2159" transform="translate(0.768 0.769)">
            <path id="Trazado_1530" data-name="Trazado 1530" d="M666.349,1531.919,664,1534.273Z" transform="translate(-663.995 -1531.919)" fill="#0074ff"/>
          </g>
          <g id="Grupo_2160" data-name="Grupo 2160">
            <path id="Trazado_1531" data-name="Trazado 1531" d="M664.18,1535.226a.768.768,0,0,1-.543-1.311l2.354-2.355a.768.768,0,0,1,1.086,1.087L664.723,1535A.766.766,0,0,1,664.18,1535.226Z" transform="translate(-663.412 -1531.336)" fill="#0074ff"/>
          </g>
        </g>
        <g id="Grupo_2164" data-name="Grupo 2164" transform="translate(7.005)">
          <g id="Grupo_2162" data-name="Grupo 2162" transform="translate(0.768 0.768)">
            <path id="Trazado_1532" data-name="Trazado 1532" d="M661.973,1530.383v0Z" transform="translate(-661.973 -1530.383)" fill="#0074ff"/>
          </g>
          <g id="Grupo_2163" data-name="Grupo 2163">
            <path id="Trazado_1533" data-name="Trazado 1533" d="M662.158,1534.666a.768.768,0,0,1-.768-.768v-3.329a.768.768,0,0,1,1.537,0v3.329A.768.768,0,0,1,662.158,1534.666Z" transform="translate(-661.39 -1529.8)" fill="#0074ff"/>
          </g>
        </g>
      </g>
      <g id="Grupo_2170" data-name="Grupo 2170" transform="translate(0 28.711)">
        <g id="Grupo_2166" data-name="Grupo 2166" transform="translate(7.615)">
          <path id="Trazado_1534" data-name="Trazado 1534" d="M585.067,1515.688a1.076,1.076,0,0,0-1.522,0l-3.3,3.3a1.077,1.077,0,0,0,1.523,1.522l3.3-3.3A1.078,1.078,0,0,0,585.067,1515.688Z" transform="translate(-579.93 -1515.373)" fill="#cdfc00"/>
        </g>
        <g id="Grupo_2167" data-name="Grupo 2167" transform="translate(0 7.615)">
          <path id="Trazado_1535" data-name="Trazado 1535" d="M579.291,1521.466a1.078,1.078,0,0,0-1.523,0l-3.3,3.3a1.077,1.077,0,0,0,1.523,1.523l3.3-3.3A1.076,1.076,0,0,0,579.291,1521.466Z" transform="translate(-574.152 -1521.151)" fill="#cdfc00"/>
        </g>
        <g id="Grupo_2168" data-name="Grupo 2168" transform="translate(7.615 7.615)">
          <path id="Trazado_1536" data-name="Trazado 1536" d="M585.067,1524.765l-3.3-3.3a1.077,1.077,0,0,0-1.523,1.522l3.3,3.3a1.077,1.077,0,1,0,1.522-1.523Z" transform="translate(-579.93 -1521.151)" fill="#cdfc00"/>
        </g>
        <g id="Grupo_2169" data-name="Grupo 2169">
          <path id="Trazado_1537" data-name="Trazado 1537" d="M579.291,1518.988l-3.3-3.3a1.077,1.077,0,0,0-1.523,1.523l3.3,3.3a1.077,1.077,0,0,0,1.523-1.522Z" transform="translate(-574.152 -1515.373)" fill="#cdfc00"/>
        </g>
      </g>
      <g id="Grupo_2172" data-name="Grupo 2172" transform="translate(32.556 0)">
        <g id="Grupo_2171" data-name="Grupo 2171">
          <path id="Trazado_1538" data-name="Trazado 1538" d="M593.728,1511.407a6.254,6.254,0,1,1,6.253-6.255A6.262,6.262,0,0,1,593.728,1511.407Zm0-10.651a4.4,4.4,0,1,0,4.4,4.4A4.4,4.4,0,0,0,593.728,1500.756Z" transform="translate(-587.473 -1498.899)" fill="#071842"/>
        </g>
      </g>
      <g id="Grupo_2173" data-name="Grupo 2173" transform="translate(20.518 1.697)">
        <path id="Trazado_1539" data-name="Trazado 1539" d="M581.249,1501.642a1.455,1.455,0,1,1-1.455-1.455A1.455,1.455,0,0,1,581.249,1501.642Z" transform="translate(-578.339 -1500.187)" fill="#0074ff"/>
      </g>
      <g id="Grupo_2174" data-name="Grupo 2174" transform="translate(93.854 14.02)">
        <path id="Trazado_1540" data-name="Trazado 1540" d="M649.415,1516.749h-6.206v-6.206a1.006,1.006,0,0,0-2.013,0v6.206h-6.2a1.006,1.006,0,1,0,0,2.012h6.2v6.206a1.006,1.006,0,0,0,2.013,0v-6.206h6.206a1.006,1.006,0,1,0,0-2.012Z" transform="translate(-633.985 -1509.537)" fill="#003891"/>
      </g>
    </g>
    <g id="Grupo_9226" data-name="Grupo 9226" transform="translate(-438.045 -122.672)">
      <path id="Trazado_5420" data-name="Trazado 5420" d="M489.057,173.168a1.806,1.806,0,0,0-1.8,1.8v19.043a1.806,1.806,0,0,0,1.8,1.8h35.971a1.806,1.806,0,0,0,1.8-1.8V174.972a1.806,1.806,0,0,0-1.8-1.8h-5.29a5.613,5.613,0,0,1-5.6-5.6,1.807,1.807,0,0,0-1.806-1.8H501.755a1.806,1.806,0,0,0-1.8,1.8,5.614,5.614,0,0,1-5.6,5.6Z" transform="translate(0.919 0.92)" fill="#fff"/>
      <g id="Grupo_8996" data-name="Grupo 8996" transform="translate(484.379 162.889)">
        <path id="Trazado_5421" data-name="Trazado 5421" d="M489.977,200.534a5.61,5.61,0,0,1-5.6-5.6V175.892a5.61,5.61,0,0,1,5.6-5.6h5.289a1.807,1.807,0,0,0,1.8-1.8,5.613,5.613,0,0,1,5.6-5.6h10.581a5.614,5.614,0,0,1,5.6,5.6,1.806,1.806,0,0,0,1.8,1.8h5.29a5.611,5.611,0,0,1,5.6,5.6v19.041a5.614,5.614,0,0,1-5.6,5.6H489.977Zm0-26.449a1.806,1.806,0,0,0-1.8,1.8v19.043a1.806,1.806,0,0,0,1.8,1.8h35.971a1.806,1.806,0,0,0,1.8-1.8V175.889a1.806,1.806,0,0,0-1.8-1.8h-5.29a5.613,5.613,0,0,1-5.6-5.6,1.807,1.807,0,0,0-1.806-1.8H502.675a1.806,1.806,0,0,0-1.8,1.8,5.614,5.614,0,0,1-5.6,5.6Z" transform="translate(-484.379 -162.889)" fill="#007aa4"/>
        <path id="Trazado_5422" data-name="Trazado 5422" d="M504.628,190.964a9.831,9.831,0,1,1,9.831-9.832,9.841,9.841,0,0,1-9.831,9.832Zm0-15.87a6.039,6.039,0,1,0,6.039,6.039,6.047,6.047,0,0,0-6.039-6.039Z" transform="translate(-481.046 -160.197)" fill="#007aa4"/>
      </g>
    </g>
  </g>
</svg>
