<svg xmlns="http://www.w3.org/2000/svg" xmlns:xlink="http://www.w3.org/1999/xlink" width="64" height="69" viewBox="0 0 64 69">
  <defs>
    <filter id="Elipse_316" x="-7" y="-5" width="79" height="79" filterUnits="userSpaceOnUse">
      <feOffset dy="3" input="SourceAlpha"/>
      <feGaussianBlur stdDeviation="3" result="blur"/>
      <feFlood flood-opacity="0.161"/>
      <feComposite operator="in" in2="blur"/>
      <feComposite in="SourceGraphic"/>
    </filter>
    <filter id="Elipse_316-2" x="-7" y="-5" width="79" height="79" filterUnits="userSpaceOnUse">
      <feOffset dy="3" input="SourceAlpha"/>
      <feGaussianBlur stdDeviation="3" result="blur-2"/>
      <feFlood flood-opacity="0.161"/>
      <feComposite operator="in" in2="blur-2"/>
      <feComposite in="SourceGraphic"/>
    </filter>
    <clipPath id="clip-lista_referencia">
      <rect width="64" height="69"/>
    </clipPath>
  </defs>
  <g id="lista_referencia" data-name="lista referencia" clip-path="url(#clip-lista_referencia)">
    <g id="Grupo_9290" data-name="Grupo 9290" transform="translate(-621 -3303)">
      <g id="Grupo_9273" data-name="Grupo 9273" transform="translate(623 3304)">
        <g id="Grupo_4219" data-name="Grupo 4219" transform="translate(0 0)">
          <g id="Grupo_3947" data-name="Grupo 3947">
            <g transform="matrix(1, 0, 0, 1, -2, -1)" filter="url(#Elipse_316)">
              <circle id="Elipse_316-3" data-name="Elipse 316" cx="30.5" cy="30.5" r="30.5" transform="translate(2 1)" fill="#007aa4"/>
            </g>
          </g>
          <g id="Grupo_9296" data-name="Grupo 9296">
            <g transform="matrix(1, 0, 0, 1, -2, -1)" filter="url(#Elipse_316-2)">
              <circle id="Elipse_316-4" data-name="Elipse 316" cx="30.5" cy="30.5" r="30.5" transform="translate(2 1)" fill="#007aa4"/>
            </g>
          </g>
        </g>
        <g id="Grupo_4226" data-name="Grupo 4226" transform="translate(18.87 17.5)">
          <g id="Grupo_4221" data-name="Grupo 4221" transform="translate(0 4.441)">
            <path id="Trazado_2968" data-name="Trazado 2968" d="M1286.106,968.965h-17.624a1.388,1.388,0,0,1-1.388-1.388v-20.4a1.387,1.387,0,0,1,1.388-1.387h17.624a1.388,1.388,0,0,1,1.388,1.387v20.4A1.388,1.388,0,0,1,1286.106,968.965Zm-16.236-2.776h14.849V948.565H1269.87Z" transform="translate(-1267.095 -945.79)" fill="#fff"/>
          </g>
          <g id="Grupo_4222" data-name="Grupo 4222" transform="translate(3.886 0)">
            <path id="Trazado_2969" data-name="Trazado 2969" d="M1289.417,939.264v-2.22h-4.441v2.22h-.555a2.22,2.22,0,0,0-2.22,2.22h0a2.22,2.22,0,0,0,2.22,2.22h5a2.22,2.22,0,0,0,2.22-2.22h0a2.22,2.22,0,0,0-2.22-2.22Z" transform="translate(-1280.813 -935.656)" fill="#007aa4"/>
            <path id="Trazado_2970" data-name="Trazado 2970" d="M1286.83,942.5h-5a3.608,3.608,0,0,1-.833-7.119v-.93a1.388,1.388,0,0,1,1.388-1.388h4.441a1.388,1.388,0,0,1,1.388,1.388v1.11a3.608,3.608,0,0,1-1.388,6.939Zm-5-4.441a.833.833,0,1,0,0,1.665h5a.833.833,0,0,0,0-1.665,1.388,1.388,0,0,1-1.388-1.388v-.833h-2.131v.833c0,.766-.155,1.388-.922,1.388Z" transform="translate(-1278.226 -933.068)" fill="#fff"/>
          </g>
          <g id="Grupo_4225" data-name="Grupo 4225" transform="translate(4.857 15.544)">
            <g id="Grupo_4223" data-name="Grupo 4223" transform="translate(0 4.538)">
              <path id="Trazado_2971" data-name="Trazado 2971" d="M1290.168,993.392H1282.4a1.4,1.4,0,0,1,0-2.793h7.772a1.4,1.4,0,0,1,0,2.793Z" transform="translate(-1281.009 -990.599)" fill="#fff"/>
            </g>
            <g id="Grupo_4224" data-name="Grupo 4224" transform="translate(0 0)">
              <path id="Trazado_2972" data-name="Trazado 2972" d="M1290.168,980.392H1282.4a1.4,1.4,0,0,1,0-2.792h7.772a1.4,1.4,0,0,1,0,2.792Z" transform="translate(-1281.009 -977.599)" fill="#fff"/>
            </g>
          </g>
        </g>
      </g>
      <g id="Grupo_9277" data-name="Grupo 9277" transform="translate(660.387 3316.79)">
        <g id="Grupo_9278" data-name="Grupo 9278" transform="translate(1 0)">
          <rect id="Rect치ngulo_3266" data-name="Rect치ngulo 3266" width="3" height="11" rx="1.5" transform="translate(0.613 7.21) rotate(-90)" fill="#fff"/>
          <rect id="Rect치ngulo_3267" data-name="Rect치ngulo 3267" width="3" height="12" rx="1.5" transform="translate(7.613 12.21) rotate(180)" fill="#fff"/>
        </g>
      </g>
    </g>
  </g>
</svg>
