<svg xmlns="http://www.w3.org/2000/svg" xmlns:xlink="http://www.w3.org/1999/xlink" width="14" height="14" viewBox="0 0 14 14">
  <defs>
    <clipPath id="clip-compartir">
      <rect width="14" height="14"/>
    </clipPath>
  </defs>
  <g id="compartir" clip-path="url(#clip-compartir)">
    <g id="Grupo_9359" data-name="Grupo 9359" transform="translate(-1385.66 -1494.581)">
      <g id="Grupo_9286" data-name="Grupo 9286" transform="translate(1386.66 1499.923)">
        <path id="Trazado_5588" data-name="Trazado 5588" d="M1388.68,1508.052a2.019,2.019,0,1,1,2.019-2.019,2.022,2.022,0,0,1-2.019,2.019Zm0-3a.977.977,0,1,0,.977.977.978.978,0,0,0-.977-.977Z" transform="translate(-1386.66 -1504.013)" fill="#535353" stroke="#535353" stroke-width="0.3"/>
      </g>
      <g id="Grupo_9289" data-name="Grupo 9289" transform="translate(1394.955 1495.472)">
        <g id="Grupo_9287" data-name="Grupo 9287" transform="translate(0)">
          <path id="Trazado_5589" data-name="Trazado 5589" d="M1404.6,1499.511a2.019,2.019,0,1,1,2.019-2.019,2.022,2.022,0,0,1-2.019,2.019Zm0-3a.977.977,0,1,0,.977.977.979.979,0,0,0-.977-.977Z" transform="translate(-1402.576 -1495.472)" fill="#535353" stroke="#535353" stroke-width="0.3"/>
        </g>
        <g id="Grupo_9288" data-name="Grupo 9288" transform="translate(0 8.903)">
          <path id="Trazado_5590" data-name="Trazado 5590" d="M1404.6,1516.594a2.019,2.019,0,1,1,2.019-2.019,2.022,2.022,0,0,1-2.019,2.019Zm0-3a.977.977,0,1,0,.977.977.979.979,0,0,0-.977-.977Z" transform="translate(-1402.576 -1512.555)" fill="#535353" stroke="#535353" stroke-width="0.3"/>
        </g>
      </g>
      <g id="Grupo_9292" data-name="Grupo 9292" transform="translate(1389.592 1497.761)">
        <g id="Grupo_9290" data-name="Grupo 9290" transform="translate(0 4.249)">
          <path id="Trazado_5591" data-name="Trazado 5591" d="M1398.126,1512.131a.52.52,0,0,1-.261-.07l-5.319-3.071a.521.521,0,0,1,.521-.9l5.319,3.072a.521.521,0,0,1-.26.973Z" transform="translate(-1392.285 -1508.017)" fill="#535353" stroke="#535353" stroke-width="0.3"/>
        </g>
        <g id="Grupo_9291" data-name="Grupo 9291" transform="translate(0)">
          <path id="Trazado_5592" data-name="Trazado 5592" d="M1392.807,1503.978a.521.521,0,0,1-.262-.973l5.319-3.072a.521.521,0,1,1,.521.9l-5.319,3.072a.514.514,0,0,1-.26.07Z" transform="translate(-1392.285 -1499.864)" fill="#535353" stroke="#535353" stroke-width="0.3"/>
        </g>
      </g>
    </g>
  </g>
</svg>
