<svg xmlns="http://www.w3.org/2000/svg" xmlns:xlink="http://www.w3.org/1999/xlink" width="40" height="37" viewBox="0 0 40 37">
  <defs>
    <clipPath id="clip-pagar_mis_créditos">
      <rect width="40" height="37"/>
    </clipPath>
  </defs>
  <g id="pagar_mis_créditos" data-name="pagar mis créditos" clip-path="url(#clip-pagar_mis_créditos)">
    <g id="Grupo_9459" data-name="Grupo 9459" transform="translate(-53 -138.5)">
      <g id="Grupo_9128" data-name="Grupo 9128" transform="translate(-681 -253.661)">
        <g id="Grupo_9111" data-name="Grupo 9111" transform="translate(736 394)">
          <path id="Trazado_5458" data-name="Trazado 5458" d="M217,327.251l3.4-3.4s3.4.85,5.1-.85" transform="translate(-211.049 -297.494)" fill="none" stroke="#007aa4" stroke-linecap="round" stroke-linejoin="round" stroke-miterlimit="10" stroke-width="1.5"/>
          <path id="Trazado_5459" data-name="Trazado 5459" d="M224.453,303H221.9c-2.551,0-3.07.519-4.251,1.7l-3.4,3.4L210,312.352" transform="translate(-210 -294.498)" fill="none" stroke="#007aa4" stroke-linecap="round" stroke-linejoin="round" stroke-miterlimit="10" stroke-width="1.5"/>
          <path id="Trazado_5460" data-name="Trazado 5460" d="M220.551,309h8.5c2.214,0,1.27,4.771-1.7,5.1H224.8a4.565,4.565,0,0,1-6.8,1.7" transform="translate(-211.198 -295.397)" fill="none" stroke="#007aa4" stroke-linecap="round" stroke-linejoin="round" stroke-miterlimit="10" stroke-width="1.5"/>
          <path id="Trazado_5462" data-name="Trazado 5462" d="M224,293a2.55,2.55,0,0,1,2.551,2.551V304.9" transform="translate(-212.097 -293)" fill="none" stroke="#98bf11" stroke-linecap="round" stroke-linejoin="round" stroke-width="1.5"/>
          <path id="Trazado_5464" data-name="Trazado 5464" d="M226.7,313.4v10.2l1.7.85,1.7-1.7,2.551,2.551,2.551-2.551,2.551,2.551,2.551-2.551,2.551,2.551,2.551-2.551,1.7,1.7,1.7-.85V295.551A2.551,2.551,0,0,0,246.255,293H225" transform="translate(-212.247 -293)" fill="none" stroke="#98bf11" stroke-linecap="round" stroke-linejoin="round" stroke-width="1.5"/>
        </g>
      </g>
      <g id="Grupo_9502" data-name="Grupo 9502" transform="translate(-93 -120.664)">
        <g id="Grupo_9312" data-name="Grupo 9312" transform="translate(170.842 268.61)">
          <path id="Trazado_5527" data-name="Trazado 5527" d="M246.1,371.66v1.015a2.143,2.143,0,0,0,2.061,2.039h2.017a2.114,2.114,0,0,0,2.039-2.039v-.306a1.85,1.85,0,0,0-1.384-1.741l-3.334-1a1.868,1.868,0,0,1-1.4-1.747v-.306a2.115,2.115,0,0,1,2.039-2.04h2.039a2.114,2.114,0,0,1,2.039,2.04v1.02" transform="translate(-246.097 -362.484)" fill="none" stroke="#98bf11" stroke-linecap="round" stroke-linejoin="round" stroke-width="1.5"/>
          <line id="Línea_147" data-name="Línea 147" y1="3.058" transform="translate(3.06 0)" fill="none" stroke="#98bf11" stroke-linecap="round" stroke-linejoin="round" stroke-width="1.5"/>
          <line id="Línea_148" data-name="Línea 148" y2="3.058" transform="translate(3.06 12.235)" fill="none" stroke="#98bf11" stroke-linecap="round" stroke-linejoin="round" stroke-width="1.5"/>
        </g>
      </g>
    </g>
  </g>
</svg>
