<svg xmlns="http://www.w3.org/2000/svg" xmlns:xlink="http://www.w3.org/1999/xlink" width="37" height="37" viewBox="0 0 37 37">
  <defs>
    <clipPath id="clip-registro_con_sistecredito">
      <rect width="37" height="37"/>
    </clipPath>
  </defs>
  <g id="registro_con_sistecredito" data-name="registro con sistecredito" clip-path="url(#clip-registro_con_sistecredito)">
    <g id="Grupo_9431" data-name="Grupo 9431" transform="translate(7.466 6.105)">
      <g id="azul" transform="translate(-0.466 -0.106)">
        <circle id="Elipse_460" data-name="Elipse 460" cx="12.5" cy="12.5" r="12.5" fill="#05284d"/>
      </g>
      <g id="verde" transform="translate(2.437 3.058)">
        <path id="Trazado_5685" data-name="Trazado 5685" d="M50.569,44a9.569,9.569,0,1,0,9.569,9.569A9.569,9.569,0,0,0,50.569,44Zm0,14.8A5.226,5.226,0,1,1,55.8,53.569,5.226,5.226,0,0,1,50.569,58.8Z" transform="translate(-41 -44)" fill="#98bf11"/>
      </g>
      <g id="flecha" transform="translate(15.651 9.35)">
        <path id="Trazado_5686" data-name="Trazado 5686" d="M249.108,143.825l1.306-.031-3.875-3.47-3.245,3.638,1.416-.033Z" transform="translate(-243.294 -140.324)" fill="#05284d"/>
        <path id="Trazado_5687" data-name="Trazado 5687" d="M250.261,160.063l1.306-.031-3.875-3.47-3.245,3.638,1.416-.033Z" transform="translate(-244.372 -155.502)" fill="#98bf11"/>
      </g>
    </g>
  </g>
</svg>
