<svg xmlns="http://www.w3.org/2000/svg" xmlns:xlink="http://www.w3.org/1999/xlink" width="37" height="37" viewBox="0 0 37 37">
  <defs>
    <clipPath id="clip-cuenta_google">
      <rect width="37" height="37"/>
    </clipPath>
  </defs>
  <g id="cuenta_google" data-name="cuenta google" clip-path="url(#clip-cuenta_google)">
    <g id="Grupo_9420" data-name="Grupo 9420" transform="translate(-100 -491)">
      <circle id="Elipse_457" data-name="Elipse 457" cx="17.5" cy="17.5" r="17.5" transform="translate(101 492)" fill="#fff"/>
      <g id="buscar" transform="translate(108.159 499.159)">
        <path id="Trazado_5620" data-name="Trazado 5620" d="M4.5,145.048l-.706,2.636-2.581.055a10.16,10.16,0,0,1-.075-9.471h0l2.3.421,1.006,2.284a6.053,6.053,0,0,0,.057,4.075Z" transform="translate(0 -132.79)" fill="#fbbb00"/>
        <path id="Trazado_5621" data-name="Trazado 5621" d="M271.37,208.176a10.138,10.138,0,0,1-3.615,9.8h0l-2.894-.148-.41-2.557a6.045,6.045,0,0,0,2.6-3.087h-5.423v-4.012h9.742Z" transform="translate(-251.263 -199.929)" fill="#518ef8"/>
        <path id="Trazado_5622" data-name="Trazado 5622" d="M45.791,315.2h0a10.145,10.145,0,0,1-15.283-3.1l3.287-2.69a6.032,6.032,0,0,0,8.692,3.088Z" transform="translate(-29.3 -297.151)" fill="#28b446"/>
        <path id="Trazado_5623" data-name="Trazado 5623" d="M44.106,2.335,40.82,5.025a6.031,6.031,0,0,0-8.892,3.158l-3.3-2.7h0A10.144,10.144,0,0,1,44.106,2.335Z" transform="translate(-27.49)" fill="#f14336"/>
      </g>
    </g>
  </g>
</svg>
