<svg xmlns="http://www.w3.org/2000/svg" xmlns:xlink="http://www.w3.org/1999/xlink" width="64" height="69" viewBox="0 0 64 69">
  <defs>
    <filter id="Elipse_316" x="-7" y="-5" width="78" height="78" filterUnits="userSpaceOnUse">
      <feOffset dy="3" input="SourceAlpha"/>
      <feGaussianBlur stdDeviation="3" result="blur"/>
      <feFlood flood-opacity="0.161"/>
      <feComposite operator="in" in2="blur"/>
      <feComposite in="SourceGraphic"/>
    </filter>
    <clipPath id="clip-cámara">
      <rect width="64" height="69"/>
    </clipPath>
  </defs>
  <g id="cámara" clip-path="url(#clip-cámara)">
    <g id="Grupo_9288" data-name="Grupo 9288" transform="translate(-696 -487)">
      <g id="Grupo_5063" data-name="Grupo 5063" transform="translate(698 488)">
        <g id="Grupo_3947" data-name="Grupo 3947" transform="translate(0)">
          <g transform="matrix(1, 0, 0, 1, -2, -1)" filter="url(#Elipse_316)">
            <circle id="Elipse_316-2" data-name="Elipse 316" cx="30" cy="30" r="30" transform="translate(2 1)" fill="#007aa4"/>
          </g>
        </g>
      </g>
      <g id="Grupo_5064" data-name="Grupo 5064" transform="translate(714.49 507.188)">
        <g id="Grupo_4214" data-name="Grupo 4214" transform="translate(0 0)">
          <path id="Trazado_2966" data-name="Trazado 2966" d="M579.578,1144.594H559.244a3.592,3.592,0,0,1-3.588-3.588v-10.765a3.593,3.593,0,0,1,3.588-3.589h2.99a.6.6,0,0,0,.6-.6,3.592,3.592,0,0,1,3.588-3.588H572.4a3.592,3.592,0,0,1,3.588,3.588.6.6,0,0,0,.6.6h2.99a3.592,3.592,0,0,1,3.588,3.589v10.765A3.592,3.592,0,0,1,579.578,1144.594Zm-20.334-14.951a.6.6,0,0,0-.6.6v10.765a.6.6,0,0,0,.6.6h20.334a.6.6,0,0,0,.6-.6v-10.765a.6.6,0,0,0-.6-.6h-2.99a3.592,3.592,0,0,1-3.588-3.588.6.6,0,0,0-.6-.6h-5.981a.6.6,0,0,0-.6.6,3.592,3.592,0,0,1-3.588,3.588Z" transform="translate(-555.656 -1122.467)" fill="#fff"/>
        </g>
        <g id="Grupo_4215" data-name="Grupo 4215" transform="translate(7.775 6.279)">
          <path id="Trazado_2967" data-name="Trazado 2967" d="M582.309,1151.124a5.981,5.981,0,1,1,5.981-5.98A5.987,5.987,0,0,1,582.309,1151.124Zm0-8.97a2.99,2.99,0,1,0,2.99,2.99A2.994,2.994,0,0,0,582.309,1142.154Z" transform="translate(-576.328 -1139.163)" fill="#fff"/>
        </g>
      </g>
    </g>
  </g>
</svg>
