<svg xmlns="http://www.w3.org/2000/svg" xmlns:xlink="http://www.w3.org/1999/xlink" width="10" height="41" viewBox="0 0 10 41">
  <defs>
    <clipPath id="clip-Saldo_en_mora_icono_">
      <rect width="10" height="41"/>
    </clipPath>
  </defs>
  <g id="Saldo_en_mora_icono_" data-name="Saldo en mora icono " clip-path="url(#clip-Saldo_en_mora_icono_)">
    <g id="Grupo_9507" data-name="Grupo 9507" transform="translate(1.045 1)">
      <path id="Trazado_5456" data-name="Trazado 5456" d="M3.361,0A3.3,3.3,0,0,0,0,3.242c0,.015,0,.03,0,.046A3.1,3.1,0,0,0,1.057,5.738a3.511,3.511,0,0,0,2.334.853A3.447,3.447,0,0,0,5.719,5.72,3.109,3.109,0,0,0,6.752,3.284a3.158,3.158,0,0,0-1-2.338A3.369,3.369,0,0,0,3.361,0Z" transform="matrix(0.966, -0.259, 0.259, 0.966, 0, 34.083)" fill="#007aa4"/>
      <path id="Trazado_5457" data-name="Trazado 5457" d="M341.037,400.1a14.388,14.388,0,0,0,.73,3.934A2.766,2.766,0,0,0,344.422,406a2.824,2.824,0,0,0,2.663-1.965,12.753,12.753,0,0,0,.749-3.893l.906-12.368q.151-1.75.15-3.507a13.419,13.419,0,0,0-.727-4.928,3.466,3.466,0,0,0-3.489-2.287,4.077,4.077,0,0,0-3.284,1.616,6.724,6.724,0,0,0-1.229,4.21q0,1.561.189,5.145Z" transform="translate(-340.156 -377.029)" fill="#007aa4"/>
    </g>
  </g>
</svg>
