<svg xmlns="http://www.w3.org/2000/svg" xmlns:xlink="http://www.w3.org/1999/xlink" width="74" height="74" viewBox="0 0 74 74">
  <defs>
    <filter id="Elipse_316" x="-3" y="0" width="80.096" height="80.096" filterUnits="userSpaceOnUse">
      <feOffset dy="3" input="SourceAlpha"/>
      <feGaussianBlur stdDeviation="3" result="blur"/>
      <feFlood flood-opacity="0.161"/>
      <feComposite operator="in" in2="blur"/>
      <feComposite in="SourceGraphic"/>
    </filter>
    <clipPath id="clip-tomar_foto">
      <rect width="74" height="74"/>
    </clipPath>
  </defs>
  <g id="tomar_foto" data-name="tomar foto" clip-path="url(#clip-tomar_foto)">
    <g id="Grupo_5089" data-name="Grupo 5089" transform="translate(6 6)">
      <g id="Grupo_5063" data-name="Grupo 5063" transform="translate(0 0)" opacity="0.44">
        <g id="Grupo_3947" data-name="Grupo 3947" transform="translate(0)">
          <g transform="matrix(1, 0, 0, 1, -6, -6)" filter="url(#Elipse_316)">
            <circle id="Elipse_316-2" data-name="Elipse 316" cx="31.048" cy="31.048" r="31.048" transform="translate(6 6)" fill="#fff"/>
          </g>
        </g>
      </g>
      <g id="Grupo_5064" data-name="Grupo 5064" transform="translate(17.152 18.927)">
        <g id="Grupo_4214" data-name="Grupo 4214" transform="translate(0 0)">
          <path id="Trazado_2966" data-name="Trazado 2966" d="M580.264,1145.229H559.347a3.7,3.7,0,0,1-3.691-3.691v-11.073a3.7,3.7,0,0,1,3.691-3.691h3.076a.616.616,0,0,0,.615-.615,3.7,3.7,0,0,1,3.691-3.691h6.152a3.7,3.7,0,0,1,3.691,3.691.616.616,0,0,0,.615.615h3.076a3.7,3.7,0,0,1,3.691,3.691v11.073A3.7,3.7,0,0,1,580.264,1145.229Zm-20.917-15.38a.616.616,0,0,0-.615.615v11.073a.616.616,0,0,0,.615.615h20.917a.615.615,0,0,0,.615-.615v-11.073a.616.616,0,0,0-.615-.615h-3.076a3.7,3.7,0,0,1-3.691-3.691.616.616,0,0,0-.615-.616h-6.152a.616.616,0,0,0-.615.616,3.7,3.7,0,0,1-3.691,3.691Z" transform="translate(-555.656 -1122.467)" fill="#fff"/>
        </g>
        <g id="Grupo_4215" data-name="Grupo 4215" transform="translate(7.997 6.459)">
          <path id="Trazado_2967" data-name="Trazado 2967" d="M582.48,1151.467a6.152,6.152,0,1,1,6.152-6.152A6.159,6.159,0,0,1,582.48,1151.467Zm0-9.228a3.076,3.076,0,1,0,3.076,3.076A3.08,3.08,0,0,0,582.48,1142.239Z" transform="translate(-576.328 -1139.163)" fill="#fff"/>
        </g>
      </g>
    </g>
  </g>
</svg>
