<svg xmlns="http://www.w3.org/2000/svg" xmlns:xlink="http://www.w3.org/1999/xlink" width="36" height="36" viewBox="0 0 36 36">
  <defs>
    <clipPath id="clip-avatar_chat">
      <rect width="36" height="36"/>
    </clipPath>
  </defs>
  <g id="avatar_chat" data-name="avatar chat" clip-path="url(#clip-avatar_chat)">
    <g id="Grupo_9366" data-name="Grupo 9366" transform="translate(-4.953 3)">
      <g id="Grupo_4954" data-name="Grupo 4954" transform="translate(9.597 5.445)">
        <g id="Grupo_4952" data-name="Grupo 4952" transform="translate(0.163 0.163)">
          <path id="Trazado_3482" data-name="Trazado 3482" d="M1716.7,1282.851a11.782,11.782,0,1,0,11.782,11.782A11.782,11.782,0,0,0,1716.7,1282.851Z" transform="translate(-1704.916 -1282.851)" fill="#ffc3b2"/>
        </g>
        <g id="Grupo_4953" data-name="Grupo 4953" transform="translate(0)">
          <path id="Trazado_3483" data-name="Trazado 3483" d="M1705.713,1271.7a11.945,11.945,0,1,0,11.945,11.945A11.945,11.945,0,0,0,1705.713,1271.7Zm0,23.209a11.264,11.264,0,1,1,11.264-11.264A11.264,11.264,0,0,1,1705.713,1294.912Z" transform="translate(-1693.768 -1271.703)" fill="#071842"/>
        </g>
      </g>
      <g id="Grupo_4955" data-name="Grupo 4955" transform="translate(14.435 0.554)">
        <path id="Trazado_3484" data-name="Trazado 3484" d="M2024.547,943.015a8.34,8.34,0,0,1,1.48-2.862c.116-.146.24-.293.372-.438s.274-.289.425-.429a7.164,7.164,0,0,1,2.162-1.393,7.38,7.38,0,0,1,.765-.268q.284-.083.588-.146a8.972,8.972,0,0,1,1.841-.183,7.249,7.249,0,0,1,7.634,6.212l-7.286-2.044Z" transform="translate(-2024.547 -937.294)" fill="#c17e40"/>
      </g>
      <g id="Grupo_4962" data-name="Grupo 4962" transform="translate(13.811 0.219)">
        <g id="Grupo_4957" data-name="Grupo 4957" transform="translate(0 2.858)">
          <g id="Grupo_4956" data-name="Grupo 4956">
            <path id="Trazado_3485" data-name="Trazado 3485" d="M1982.285,1113.516a.42.42,0,0,1-.409-.52,8.721,8.721,0,0,1,1.558-3.023.42.42,0,1,1,.659.521,7.944,7.944,0,0,0-1.4,2.7A.421.421,0,0,1,1982.285,1113.516Z" transform="translate(-1981.865 -1109.813)" fill="#071842"/>
          </g>
        </g>
        <g id="Grupo_4959" data-name="Grupo 4959" transform="translate(2.277 0.597)">
          <g id="Grupo_4958" data-name="Grupo 4958">
            <path id="Trazado_3486" data-name="Trazado 3486" d="M2137.925,957.477a.42.42,0,0,1-.287-.727,7.6,7.6,0,0,1,2.288-1.475.42.42,0,0,1,.321.776,6.761,6.761,0,0,0-2.036,1.313A.419.419,0,0,1,2137.925,957.477Z" transform="translate(-2137.505 -955.243)" fill="#071842"/>
          </g>
        </g>
        <g id="Grupo_4961" data-name="Grupo 4961" transform="translate(5.791 0)">
          <g id="Grupo_4960" data-name="Grupo 4960">
            <path id="Trazado_3487" data-name="Trazado 3487" d="M2387.681,921.459a.42.42,0,0,1-.417-.372,7.417,7.417,0,0,0-1.168-2.947,6.828,6.828,0,0,0-6.049-2.892,8.61,8.61,0,0,0-1.755.174.42.42,0,0,1-.172-.823,9.449,9.449,0,0,1,1.927-.192,7.645,7.645,0,0,1,6.765,3.292,8.125,8.125,0,0,1,1.287,3.293.42.42,0,0,1-.37.465A.407.407,0,0,1,2387.681,921.459Z" transform="translate(-2377.786 -914.407)" fill="#071842"/>
          </g>
        </g>
      </g>
      <g id="Grupo_4964" data-name="Grupo 4964" transform="translate(9.254 3.92)">
        <g id="Grupo_4963" data-name="Grupo 4963" transform="translate(0 0)">
          <path id="Trazado_3488" data-name="Trazado 3488" d="M1671.261,1177.092a11.749,11.749,0,0,1,22.747,0h.914a12.636,12.636,0,0,0-24.575,0Z" transform="translate(-1670.347 -1167.404)" fill="#071842"/>
        </g>
      </g>
      <g id="Grupo_4966" data-name="Grupo 4966" transform="translate(11.001 5.529)">
        <g id="Grupo_4965" data-name="Grupo 4965" transform="translate(0 0)">
          <path id="Trazado_3489" data-name="Trazado 3489" d="M1790.525,1285.519a10.15,10.15,0,0,1,19.49,0h.8a10.916,10.916,0,0,0-21.082,0Z" transform="translate(-1789.729 -1277.44)" fill="#071842"/>
        </g>
      </g>
      <g id="Grupo_4968" data-name="Grupo 4968" transform="translate(10.168 4.807)">
        <g id="Grupo_4967" data-name="Grupo 4967" transform="translate(0 0)">
          <path id="Trazado_3490" data-name="Trazado 3490" d="M1744.205,1228.082a11.75,11.75,0,0,0-11.373,8.8h.832a10.916,10.916,0,0,1,21.082,0h.832A11.751,11.751,0,0,0,1744.205,1228.082Z" transform="translate(-1732.832 -1228.082)" fill="#93c01f"/>
        </g>
      </g>
      <g id="Grupo_4973" data-name="Grupo 4973" transform="translate(7.313 12.864)">
        <g id="Grupo_4970" data-name="Grupo 4970" transform="translate(0.197 0.457)">
          <g id="Grupo_4969" data-name="Grupo 4969">
            <path id="Trazado_3491" data-name="Trazado 3491" d="M1553.438,1819.83a2.213,2.213,0,0,1-1.694-.807,2.739,2.739,0,0,1-.646-1.756v-4.672a2.407,2.407,0,0,1,2.349-2.447,2.207,2.207,0,0,1,1.729.587l.089.107v8.218l-.059.094C1555.163,1819.222,1554.744,1819.83,1553.438,1819.83Z" transform="translate(-1551.098 -1810.148)" fill="#93c01f"/>
          </g>
        </g>
        <g id="Grupo_4972" data-name="Grupo 4972" transform="translate(0 0)">
          <g id="Grupo_4971" data-name="Grupo 4971">
            <path id="Trazado_3492" data-name="Trazado 3492" d="M1540.208,1789.491a2.422,2.422,0,0,1-1.854-.883,3,3,0,0,1-.707-1.922v-5.113a2.635,2.635,0,0,1,2.571-2.678,2.415,2.415,0,0,1,1.892.642l.1.117v8.994l-.064.1C1542.1,1788.825,1541.638,1789.491,1540.208,1789.491Zm.011-9.756a1.8,1.8,0,0,0-1.731,1.838v5.113a1.887,1.887,0,0,0,1.72,1.966,1.858,1.858,0,0,0,1.16-.293V1780A2.087,2.087,0,0,0,1540.219,1779.734Z" transform="translate(-1537.648 -1778.894)" fill="#071842"/>
          </g>
        </g>
      </g>
      <g id="Grupo_4978" data-name="Grupo 4978" transform="translate(31.27 12.864)">
        <g id="Grupo_4975" data-name="Grupo 4975" transform="translate(0.197 0.457)">
          <g id="Grupo_4974" data-name="Grupo 4974">
            <path id="Trazado_3493" data-name="Trazado 3493" d="M3188.987,1819.153l-.059-.094v-8.218l.089-.107a2.206,2.206,0,0,1,1.729-.587,2.407,2.407,0,0,1,2.349,2.447v4.672a2.739,2.739,0,0,1-.646,1.756,2.213,2.213,0,0,1-1.694.807C3189.45,1819.83,3189.031,1819.222,3188.987,1819.153Z" transform="translate(-3188.929 -1810.148)" fill="#93c01f"/>
          </g>
        </g>
        <g id="Grupo_4977" data-name="Grupo 4977" transform="translate(0 0)">
          <g id="Grupo_4976" data-name="Grupo 4976">
            <path id="Trazado_3494" data-name="Trazado 3494" d="M3175.543,1788.75l-.064-.1v-8.994l.1-.117a2.415,2.415,0,0,1,1.892-.642,2.635,2.635,0,0,1,2.571,2.678v5.113a3,3,0,0,1-.707,1.922,2.421,2.421,0,0,1-1.854.883C3176.05,1789.491,3175.591,1788.825,3175.543,1788.75Zm.776-8.749v8.356a1.858,1.858,0,0,0,1.16.293,1.888,1.888,0,0,0,1.72-1.966v-5.113a1.8,1.8,0,0,0-1.731-1.838A2.086,2.086,0,0,0,3176.319,1780Z" transform="translate(-3175.479 -1778.894)" fill="#071842"/>
          </g>
        </g>
      </g>
      <g id="Grupo_4983" data-name="Grupo 4983" transform="translate(11.078 5.445)">
        <g id="Grupo_4979" data-name="Grupo 4979" transform="translate(0.153 0.247)">
          <path id="Trazado_3495" data-name="Trazado 3495" d="M1826.746,1296.782a21.868,21.868,0,0,0-2.505-4.319c-1.41-1.869-4.491-3.876-9.076-3.876-4.283,0-7.094,3.5-7.222,3.649l-.2.242a8.276,8.276,0,0,0-2.215,6.094l.037.436.429-.086a18.816,18.816,0,0,0,6.45-3.158,32.708,32.708,0,0,0,4.389,1.475,21.844,21.844,0,0,0,5.425.847,24.362,24.362,0,0,0,2.67-.132,2.577,2.577,0,0,0,1.752-.858l.106-.141Z" transform="translate(-1805.498 -1288.587)" fill="#c17e40"/>
        </g>
        <g id="Grupo_4980" data-name="Grupo 4980" transform="translate(9.882 4.102)">
          <path id="Trazado_3496" data-name="Trazado 3496" d="M2479.254,1556.755c-.3,0-.639-.008-1.012-.03a20.429,20.429,0,0,1-2.873-.376,22.658,22.658,0,0,1-3.6-1.051.249.249,0,1,1,.178-.464,21.242,21.242,0,0,0,6.323,1.394c.582.033,1.077.034,1.47.021l-8.97-3.626a.249.249,0,0,1,.187-.461l9.948,4.021a.249.249,0,0,1-.054.476A10.982,10.982,0,0,1,2479.254,1556.755Z" transform="translate(-2470.614 -1552.144)" fill="#a5570a"/>
        </g>
        <g id="Grupo_4981" data-name="Grupo 4981" transform="translate(10.877 1.908)">
          <path id="Trazado_3497" data-name="Trazado 3497" d="M2547.818,1408.85a.249.249,0,0,1-.219-.13,11.712,11.712,0,0,0-5.54-5.181,10.559,10.559,0,0,0-3.212-.905.249.249,0,0,1,.034-.5,10.89,10.89,0,0,1,3.382.948,12.136,12.136,0,0,1,2.991,1.9,12.41,12.41,0,0,1,2.783,3.495.249.249,0,0,1-.219.367Z" transform="translate(-2538.615 -1402.137)" fill="#a5570a"/>
        </g>
        <g id="Grupo_4982" data-name="Grupo 4982" transform="translate(0)">
          <path id="Trazado_3498" data-name="Trazado 3498" d="M1816.86,1280.533a12.3,12.3,0,0,0-2.127-4.415,11.13,11.13,0,0,0-9.308-4.416c-4.615,0-7.915,3.771-8.053,3.932l-.222.258,0,0a9.009,9.009,0,0,0-2.115,6.567l.04.469.462-.093a20.272,20.272,0,0,0,6.95-3.4,35.238,35.238,0,0,0,4.73,1.59,23.536,23.536,0,0,0,5.846.912,9.468,9.468,0,0,0,1.756-.149,3.16,3.16,0,0,0,1.965-.917l.114-.152Zm-18.484-4.732c.951-.934,3.657-3.258,7.049-3.258a10.24,10.24,0,0,1,8.618,4.055,11.95,11.95,0,0,1,1.936,3.877c-.514.358-2.573,1.321-8.545-.261a35.009,35.009,0,0,1-4.172-1.371l-.884-.369-.782.564a19.947,19.947,0,0,1-5.748,2.868A8.221,8.221,0,0,1,1798.376,1275.8Z" transform="translate(-1795.005 -1271.703)" fill="#071842"/>
        </g>
      </g>
      <g id="Grupo_4984" data-name="Grupo 4984" transform="translate(18.974 1.596)">
        <path id="Trazado_3499" data-name="Trazado 3499" d="M2335.061,1009.524a.249.249,0,0,1-.135-.458,4.014,4.014,0,0,1,2.884-.464.249.249,0,0,1-.112.484,3.544,3.544,0,0,0-2.5.4A.249.249,0,0,1,2335.061,1009.524Z" transform="translate(-2334.812 -1008.507)" fill="#a5570a"/>
      </g>
      <g id="Grupo_4985" data-name="Grupo 4985" transform="translate(23.097 1.979)">
        <path id="Trazado_3500" data-name="Trazado 3500" d="M2620.01,1036.735a.249.249,0,0,1-.191-.089,4.7,4.7,0,0,0-2.859-1.429.249.249,0,1,1,.044-.5,5.367,5.367,0,0,1,1.148.265,4.589,4.589,0,0,1,2.049,1.34.249.249,0,0,1-.191.409Z" transform="translate(-2616.732 -1034.72)" fill="#a5570a"/>
      </g>
      <g id="Grupo_4986" data-name="Grupo 4986" transform="translate(11.095 22.162)">
        <path id="Trazado_3501" data-name="Trazado 3501" d="M1802.334,2415.688a.847.847,0,0,0-.756.465,10.307,10.307,0,0,1-4.726-1.553.42.42,0,1,0-.48.69,11.113,11.113,0,0,0,5.251,1.709.848.848,0,1,0,.71-1.311Z" transform="translate(-1796.193 -2414.524)" fill="#071842"/>
      </g>
      <g id="Grupo_4987" data-name="Grupo 4987" transform="translate(26.4 19.946)" opacity="0.4">
        <circle id="Elipse_418" data-name="Elipse 418" cx="1.337" cy="1.337" r="1.337" transform="translate(0 0)" fill="#fa9"/>
      </g>
      <g id="Grupo_4988" data-name="Grupo 4988" transform="translate(13.634 19.946)" opacity="0.4">
        <circle id="Elipse_419" data-name="Elipse 419" cx="1.337" cy="1.337" r="1.337" transform="translate(0 0)" fill="#fa9"/>
      </g>
      <g id="Grupo_5001" data-name="Grupo 5001" transform="translate(31.579 5.913)">
        <g id="Grupo_4991" data-name="Grupo 4991" transform="translate(1.092 0)">
          <g id="Grupo_4990" data-name="Grupo 4990">
            <g id="Grupo_4989" data-name="Grupo 4989">
              <path id="Trazado_3502" data-name="Trazado 3502" d="M3271.973,1303.683a.154.154,0,0,0-.218,0l-.473.474a.154.154,0,0,0,.219.218l.473-.473A.155.155,0,0,0,3271.973,1303.683Z" transform="translate(-3271.236 -1303.638)" fill="#9fbe37"/>
            </g>
          </g>
        </g>
        <g id="Grupo_4994" data-name="Grupo 4994" transform="translate(0 1.092)">
          <g id="Grupo_4993" data-name="Grupo 4993">
            <g id="Grupo_4992" data-name="Grupo 4992">
              <path id="Trazado_3503" data-name="Trazado 3503" d="M3197.3,1378.36a.155.155,0,0,0-.219,0l-.473.473a.155.155,0,0,0,.219.219l.473-.474A.155.155,0,0,0,3197.3,1378.36Z" transform="translate(-3196.56 -1378.315)" fill="#9fbe37"/>
            </g>
          </g>
        </g>
        <g id="Grupo_4997" data-name="Grupo 4997" transform="translate(1.092 1.092)">
          <g id="Grupo_4996" data-name="Grupo 4996">
            <g id="Grupo_4995" data-name="Grupo 4995">
              <path id="Trazado_3504" data-name="Trazado 3504" d="M3271.973,1378.832l-.473-.473a.155.155,0,0,0-.219.219l.473.473a.154.154,0,1,0,.218-.219Z" transform="translate(-3271.236 -1378.313)" fill="#9fbe37"/>
            </g>
          </g>
        </g>
        <g id="Grupo_5000" data-name="Grupo 5000" transform="translate(0 0)">
          <g id="Grupo_4999" data-name="Grupo 4999">
            <g id="Grupo_4998" data-name="Grupo 4998">
              <path id="Trazado_3505" data-name="Trazado 3505" d="M3197.3,1304.155l-.473-.473a.155.155,0,0,0-.219.219l.473.473a.154.154,0,0,0,.219-.218Z" transform="translate(-3196.56 -1303.636)" fill="#9fbe37"/>
            </g>
          </g>
        </g>
      </g>
      <g id="Grupo_5004" data-name="Grupo 5004" transform="translate(29.765 1.404)">
        <g id="Grupo_5003" data-name="Grupo 5003" transform="translate(0 0)">
          <g id="Grupo_5002" data-name="Grupo 5002">
            <path id="Trazado_3506" data-name="Trazado 3506" d="M3072.9,995.584a.153.153,0,1,1-.153-.153A.153.153,0,0,1,3072.9,995.584Z" transform="translate(-3072.59 -995.431)" fill="#4173fa"/>
          </g>
        </g>
      </g>
      <g id="Grupo_5008" data-name="Grupo 5008" transform="translate(32.596 2.427)">
        <g id="Grupo_5007" data-name="Grupo 5007">
          <g id="Grupo_5006" data-name="Grupo 5006">
            <g id="Grupo_5005" data-name="Grupo 5005">
              <path id="Trazado_3507" data-name="Trazado 3507" d="M3267.362,1067.8a1.233,1.233,0,1,1,1.233-1.233A1.234,1.234,0,0,1,3267.362,1067.8Zm0-1.981a.748.748,0,1,0,.748.748A.749.749,0,0,0,3267.362,1065.821Z" transform="translate(-3266.129 -1065.336)" fill="#151e43"/>
            </g>
          </g>
        </g>
      </g>
      <g id="Grupo_5011" data-name="Grupo 5011" transform="translate(10.537 0)">
        <g id="Grupo_5010" data-name="Grupo 5010" transform="translate(0)">
          <g id="Grupo_5009" data-name="Grupo 5009">
            <path id="Trazado_3508" data-name="Trazado 3508" d="M1759.136,901.586l-.952.253.378-.909-.535-.827.981.079.621-.764.229.958.918.355-.84.513-.054.983Z" transform="translate(-1758.028 -899.418)" fill="#151e43"/>
          </g>
        </g>
      </g>
      <g id="Grupo_5015" data-name="Grupo 5015" transform="translate(5.084 6.623)">
        <g id="Grupo_5014" data-name="Grupo 5014" transform="translate(0 0)">
          <g id="Grupo_5013" data-name="Grupo 5013">
            <g id="Grupo_5012" data-name="Grupo 5012">
              <path id="Trazado_3509" data-name="Trazado 3509" d="M1386.456,1354.651a1.233,1.233,0,1,1,1.233-1.233A1.235,1.235,0,0,1,1386.456,1354.651Zm0-1.981a.748.748,0,1,0,.747.748A.748.748,0,0,0,1386.456,1352.67Z" transform="translate(-1385.223 -1352.185)" fill="#213b8c"/>
            </g>
          </g>
        </g>
      </g>
      <g id="Grupo_5032" data-name="Grupo 5032" transform="translate(37.624 16.766)">
        <g id="Grupo_5019" data-name="Grupo 5019" transform="translate(1.188 0)">
          <g id="Grupo_5018" data-name="Grupo 5018">
            <g id="Grupo_5017" data-name="Grupo 5017">
              <g id="Grupo_5016" data-name="Grupo 5016">
                <rect id="Rectángulo_1013" data-name="Rectángulo 1013" width="0.364" height="0.902" fill="#4173fa"/>
              </g>
            </g>
          </g>
        </g>
        <g id="Grupo_5023" data-name="Grupo 5023" transform="translate(1.188 1.826)">
          <g id="Grupo_5022" data-name="Grupo 5022">
            <g id="Grupo_5021" data-name="Grupo 5021">
              <g id="Grupo_5020" data-name="Grupo 5020">
                <rect id="Rectángulo_1014" data-name="Rectángulo 1014" width="0.364" height="0.902" fill="#4173fa"/>
              </g>
            </g>
          </g>
        </g>
        <g id="Grupo_5027" data-name="Grupo 5027" transform="translate(0 1.176)">
          <g id="Grupo_5026" data-name="Grupo 5026">
            <g id="Grupo_5025" data-name="Grupo 5025">
              <g id="Grupo_5024" data-name="Grupo 5024">
                <rect id="Rectángulo_1015" data-name="Rectángulo 1015" width="0.902" height="0.364" fill="#4173fa"/>
              </g>
            </g>
          </g>
        </g>
        <g id="Grupo_5031" data-name="Grupo 5031" transform="translate(1.826 1.176)">
          <g id="Grupo_5030" data-name="Grupo 5030">
            <g id="Grupo_5029" data-name="Grupo 5029">
              <g id="Grupo_5028" data-name="Grupo 5028">
                <rect id="Rectángulo_1016" data-name="Rectángulo 1016" width="0.902" height="0.364" fill="#4173fa"/>
              </g>
            </g>
          </g>
        </g>
      </g>
      <g id="Grupo_5049" data-name="Grupo 5049" transform="translate(4.953 1.445)">
        <g id="Grupo_5036" data-name="Grupo 5036" transform="translate(1.188 0)">
          <g id="Grupo_5035" data-name="Grupo 5035">
            <g id="Grupo_5034" data-name="Grupo 5034">
              <g id="Grupo_5033" data-name="Grupo 5033">
                <rect id="Rectángulo_1017" data-name="Rectángulo 1017" width="0.364" height="0.902" fill="#9fbe37"/>
              </g>
            </g>
          </g>
        </g>
        <g id="Grupo_5040" data-name="Grupo 5040" transform="translate(1.188 1.826)">
          <g id="Grupo_5039" data-name="Grupo 5039">
            <g id="Grupo_5038" data-name="Grupo 5038">
              <g id="Grupo_5037" data-name="Grupo 5037">
                <rect id="Rectángulo_1018" data-name="Rectángulo 1018" width="0.364" height="0.902" fill="#9fbe37"/>
              </g>
            </g>
          </g>
        </g>
        <g id="Grupo_5044" data-name="Grupo 5044" transform="translate(0 1.176)">
          <g id="Grupo_5043" data-name="Grupo 5043">
            <g id="Grupo_5042" data-name="Grupo 5042">
              <g id="Grupo_5041" data-name="Grupo 5041">
                <rect id="Rectángulo_1019" data-name="Rectángulo 1019" width="0.902" height="0.364" fill="#9fbe37"/>
              </g>
            </g>
          </g>
        </g>
        <g id="Grupo_5048" data-name="Grupo 5048" transform="translate(1.826 1.176)">
          <g id="Grupo_5047" data-name="Grupo 5047">
            <g id="Grupo_5046" data-name="Grupo 5046">
              <g id="Grupo_5045" data-name="Grupo 5045">
                <rect id="Rectángulo_1020" data-name="Rectángulo 1020" width="0.902" height="0.364" fill="#9fbe37"/>
              </g>
            </g>
          </g>
        </g>
      </g>
      <g id="Grupo_5050" data-name="Grupo 5050" transform="translate(18.88 22.478)">
        <path id="Trazado_3510" data-name="Trazado 3510" d="M2333.773,2436.835a1.822,1.822,0,0,0-.041-.409.329.329,0,1,0-.639.159s0,0,0,0h0v0a1.2,1.2,0,0,1,.025.287,1.128,1.128,0,0,1-.228.663,2.972,2.972,0,0,1-3.552,0,1.129,1.129,0,0,1-.227-.663,1.259,1.259,0,0,1,.025-.287v0h0v0a.329.329,0,1,0-.638-.159,1.925,1.925,0,0,0,.316,1.516,2.752,2.752,0,0,0,2.295.841h.019a2.752,2.752,0,0,0,2.3-.841A1.779,1.779,0,0,0,2333.773,2436.835Z" transform="translate(-2328.45 -2436.177)" fill="#ea534b"/>
      </g>
      <g id="Grupo_5051" data-name="Grupo 5051" transform="translate(23.83 18.611)">
        <circle id="Elipse_420" data-name="Elipse 420" cx="1.057" cy="1.057" r="1.057" transform="translate(0 0)" fill="#071842"/>
      </g>
      <g id="Grupo_5052" data-name="Grupo 5052" transform="translate(16.649 18.611)">
        <circle id="Elipse_421" data-name="Elipse 421" cx="1.057" cy="1.057" r="1.057" transform="translate(0 0)" fill="#071842"/>
      </g>
    </g>
  </g>
</svg>
