<svg xmlns="http://www.w3.org/2000/svg" xmlns:xlink="http://www.w3.org/1999/xlink" width="64" height="69" viewBox="0 0 64 69">
  <defs>
    <filter id="Elipse_316" x="-8" y="-5" width="79" height="79" filterUnits="userSpaceOnUse">
      <feOffset dy="3" input="SourceAlpha"/>
      <feGaussianBlur stdDeviation="3" result="blur"/>
      <feFlood flood-opacity="0.161"/>
      <feComposite operator="in" in2="blur"/>
      <feComposite in="SourceGraphic"/>
    </filter>
    <clipPath id="clip-calendario">
      <rect width="64" height="69"/>
    </clipPath>
  </defs>
  <g id="calendario" clip-path="url(#clip-calendario)">
    <g id="Grupo_9289" data-name="Grupo 9289" transform="translate(783 -1227.667)">
      <g transform="matrix(1, 0, 0, 1, -783, 1227.67)" filter="url(#Elipse_316)">
        <circle id="Elipse_316-2" data-name="Elipse 316" cx="30.5" cy="30.5" r="30.5" transform="translate(1 1)" fill="#007aa4"/>
      </g>
      <g id="Grupo_4218" data-name="Grupo 4218" transform="translate(-765.335 1246.801)">
        <g id="Grupo_3946" data-name="Grupo 3946" transform="translate(0)">
          <g id="Grupo_3941" data-name="Grupo 3941" transform="translate(0 2.072)">
            <path id="Trazado_2772" data-name="Trazado 2772" d="M1680.509,1370.334h-25.516a1.243,1.243,0,0,1-1.243-1.243v-20.3a1.243,1.243,0,0,1,1.243-1.243h25.516a1.243,1.243,0,0,1,1.243,1.243v20.3a1.243,1.243,0,0,1-1.243,1.243Zm-24.273-2.486h23.03v-17.815h-23.03v17.815Z" transform="translate(-1653.75 -1347.547)" fill="#f1f4f8"/>
          </g>
          <g id="Grupo_3944" data-name="Grupo 3944" transform="translate(4.834)">
            <g id="Grupo_3942" data-name="Grupo 3942" transform="translate(15.848)">
              <path id="Trazado_2773" data-name="Trazado 2773" d="M1714.707,1348.194a1.243,1.243,0,0,1-1.243-1.243v-4.143a1.243,1.243,0,1,1,2.486,0v4.143a1.243,1.243,0,0,1-1.243,1.243Z" transform="translate(-1713.464 -1341.565)" fill="#f1f4f8"/>
            </g>
            <g id="Grupo_3943" data-name="Grupo 3943">
              <path id="Trazado_2774" data-name="Trazado 2774" d="M1668.949,1348.194a1.243,1.243,0,0,1-1.243-1.243v-4.143a1.243,1.243,0,1,1,2.486,0v4.143a1.243,1.243,0,0,1-1.243,1.243Z" transform="translate(-1667.706 -1341.565)" fill="#f1f4f8"/>
            </g>
          </g>
          <g id="Grupo_3945" data-name="Grupo 3945" transform="translate(0.743 9.409)">
            <path id="Trazado_2775" data-name="Trazado 2775" d="M1681.79,1369.973h-25.273a.622.622,0,1,1,0-1.243h25.273a.622.622,0,0,1,0,1.243Z" transform="translate(-1655.895 -1368.73)" fill="#f1f4f8"/>
          </g>
        </g>
        <g id="Grupo_3948" data-name="Grupo 3948" transform="translate(8.635 12.429)">
          <path id="Trazado_2776" data-name="Trazado 2776" d="M1682.854,1385.2a1.189,1.189,0,0,1-.843-.349l-2.982-2.981a1.192,1.192,0,0,1,1.686-1.687l2.138,2.138,4.523-4.523a1.192,1.192,0,0,1,1.687,1.686l-5.366,5.367A1.191,1.191,0,0,1,1682.854,1385.2Z" transform="translate(-1678.68 -1377.451)" fill="#f1f4f8"/>
        </g>
      </g>
    </g>
  </g>
</svg>
