<svg xmlns="http://www.w3.org/2000/svg" xmlns:xlink="http://www.w3.org/1999/xlink" width="36" height="40" viewBox="0 0 36 40">
  <defs>
    <clipPath id="clip-icono_tips">
      <rect width="36" height="40"/>
    </clipPath>
  </defs>
  <g id="icono_tips" data-name="icono tips" clip-path="url(#clip-icono_tips)">
    <g id="Grupo_9329" data-name="Grupo 9329" transform="translate(-402.194 -441.118)">
      <g id="Grupo_9324" data-name="Grupo 9324" transform="translate(410.582 452.041)">
        <path id="Trazado_5614" data-name="Trazado 5614" d="M418.39,449.236h-.2c-4.961.005-9.389,3.991-9.4,9a10.022,10.022,0,0,0,2.117,5.927,23.14,23.14,0,0,1,2.232,3.017,16.314,16.314,0,0,1,.277,1.635,1.552,1.552,0,0,0,1.144,1.245,24.871,24.871,0,0,0,7.458,0,1.553,1.553,0,0,0,1.149-1.245,15.046,15.046,0,0,1,.276-1.635,23.253,23.253,0,0,1,2.235-3.017,10.039,10.039,0,0,0,2.115-5.927A9.346,9.346,0,0,0,418.39,449.236Z" transform="translate(-408.791 -449.236)" fill="none" stroke="#007aa4" stroke-miterlimit="10" stroke-width="1.5"/>
      </g>
      <g id="Grupo_2229" data-name="Grupo 2229" transform="translate(408.235 445.331)">
        <path id="Trazado_1581" data-name="Trazado 1581" d="M411.677,447.587l-2.948-3.041a.98.98,0,0,0-1.406,1.364l2.948,3.041a.979.979,0,0,0,1.406-1.363Z" transform="translate(-407.047 -444.249)" fill="#98bf11"/>
      </g>
      <g id="Grupo_2229-2" data-name="Grupo 2229" transform="translate(427.372 445.331)">
        <path id="Trazado_1581-2" data-name="Trazado 1581" d="M421.546,447.589a.979.979,0,1,0,1.406,1.363l2.948-3.041a.98.98,0,0,0-1.406-1.364l-2.948,3.041Z" transform="translate(-421.27 -444.249)" fill="#98bf11"/>
      </g>
      <g id="Grupo_2229-3" data-name="Grupo 2229" transform="translate(402.694 453.596)">
        <path id="Trazado_1581-3" data-name="Trazado 1581" d="M408.915,452.33l-3.815-1.841a.979.979,0,0,0-.852,1.764l3.816,1.841a.979.979,0,0,0,.85-1.763Z" transform="translate(-403.694 -450.392)" fill="#98bf11"/>
      </g>
      <g id="Grupo_2229-4" data-name="Grupo 2229" transform="translate(431.524 453.496)">
        <path id="Trazado_1581-4" data-name="Trazado 1581" d="M424.1,452.481a.979.979,0,0,0,.945,1.716l3.712-2.041a.98.98,0,1,0-.945-1.717l-3.711,2.041Z" transform="translate(-423.589 -450.317)" fill="#98bf11"/>
      </g>
      <g id="Grupo_2229-5" data-name="Grupo 2229" transform="translate(419.196 441.118)">
        <path id="Trazado_1581-5" data-name="Trazado 1581" d="M417.152,446.337l.019-4.236a.98.98,0,0,0-1.959-.008l-.019,4.236a.979.979,0,0,0,1.958.009Z" transform="translate(-415.193 -441.118)" fill="#98bf11"/>
      </g>
      <line id="Línea_181" data-name="Línea 181" x2="7.679" transform="translate(416.128 475.514)" fill="none" stroke="#007aa4" stroke-linecap="round" stroke-linejoin="round" stroke-width="1.5"/>
      <line id="Línea_182" data-name="Línea 182" x2="7.679" transform="translate(416.128 477.6)" fill="none" stroke="#007aa4" stroke-linecap="round" stroke-linejoin="round" stroke-width="1.5"/>
      <line id="Línea_183" data-name="Línea 183" x2="5.74" transform="translate(417.097 479.648)" fill="none" stroke="#007aa4" stroke-linecap="round" stroke-linejoin="round" stroke-width="1.5"/>
    </g>
  </g>
</svg>
