<svg xmlns="http://www.w3.org/2000/svg" xmlns:xlink="http://www.w3.org/1999/xlink" width="18" height="17" viewBox="0 0 18 17">
  <defs>
    <clipPath id="clip-telefono">
      <rect width="18" height="17"/>
    </clipPath>
  </defs>
  <g id="telefono" clip-path="url(#clip-telefono)">
    <g id="Grupo_8744" data-name="Grupo 8744" transform="translate(0.85 0)">
      <path id="Trazado_2973" data-name="Trazado 2973" d="M970.821,1327.093a12.962,12.962,0,0,1-8.973-4l-.051-.054h0a12.863,12.863,0,0,1-3.993-9.207l.005-.237.147-.185a8.8,8.8,0,0,1,.687-.78,8.675,8.675,0,0,1,3.012-1.961,1.287,1.287,0,0,1,.464-.081c.383,0,1.243.195,1.463.8.387,1.077.877,2.482,1.234,3.826a1.7,1.7,0,0,1-.526,1.621l-1.255.8a.939.939,0,0,0,.169.43,17.81,17.81,0,0,0,1.677,1.965,17.524,17.524,0,0,0,1.951,1.661.706.706,0,0,0,.392.149l.435-.607.4-.63a1.693,1.693,0,0,1,1.317-.556,1.219,1.219,0,0,1,.276.028,17.83,17.83,0,0,1,3.9,1.259,1.689,1.689,0,0,1,.665,1.909,8.628,8.628,0,0,1-1.956,3.008,8.807,8.807,0,0,1-.784.69l-.185.146-.475.008Zm-11.6-12.986a11.679,11.679,0,0,0,3.58,7.936l.068.07a11.537,11.537,0,0,0,7.919,3.56c.165-.138.323-.281.472-.428a7.243,7.243,0,0,0,1.636-2.517c-.007-.006-.035-.092-.065-.162a16.637,16.637,0,0,0-3.488-1.105,1.389,1.389,0,0,0-.167.035l-.714,1.126a1.742,1.742,0,0,1-2.467.215,18.862,18.862,0,0,1-2.118-1.8,19.3,19.3,0,0,1-1.82-2.131,2.011,2.011,0,0,1-.39-1.554,1.369,1.369,0,0,1,.613-.918l1.122-.713a.74.74,0,0,0,.029-.2c-.312-1.162-.754-2.446-1.12-3.467a.646.646,0,0,0-.193-.04,7.259,7.259,0,0,0-2.47,1.625c-.144.145-.286.3-.427.47Z" transform="translate(-957.803 -1310.591)" fill="#007aa4"/>
    </g>
  </g>
</svg>
