<svg xmlns="http://www.w3.org/2000/svg" xmlns:xlink="http://www.w3.org/1999/xlink" width="30" height="41" viewBox="0 0 30 41">
  <defs>
    <clipPath id="clip-actualizar_celular">
      <rect width="30" height="41"/>
    </clipPath>
  </defs>
  <g id="actualizar_celular" data-name="actualizar celular" clip-path="url(#clip-actualizar_celular)">
    <g id="Grupo_9434" data-name="Grupo 9434" transform="translate(-1036.089 -375.266)">
      <g id="Grupo_9447" data-name="Grupo 9447">
        <g id="Rectángulo_3259" data-name="Rectángulo 3259">
          <path id="Trazado_5690" data-name="Trazado 5690" d="M1058.589,405.277v7.239a2.25,2.25,0,0,1-2.25,2.25h-17a2.251,2.251,0,0,1-2.25-2.25v-34a2.25,2.25,0,0,1,2.25-2.25h17a2.25,2.25,0,0,1,2.25,2.25v6.119" fill="none" stroke="#007aa4" stroke-linecap="round" stroke-width="1.5"/>
          <line id="Línea_213" data-name="Línea 213" y2="0.495" transform="translate(1058.589 384.635)" fill="none" stroke="#007aa4" stroke-linecap="round" stroke-width="1.5"/>
        </g>
        <rect id="Rectángulo_3258" data-name="Rectángulo 3258" width="4.539" height="1.741" rx="0.87" transform="translate(1047.026 378.462)" fill="#007aa4"/>
        <ellipse id="Elipse_462" data-name="Elipse 462" cx="0.933" cy="0.87" rx="0.933" ry="0.87" transform="translate(1044.544 378.462)" fill="#007aa4"/>
        <path id="Rectángulo_3255" data-name="Rectángulo 3255" d="M1046.238,410.649h3.569a1.114,1.114,0,0,1,1.114,1.114h0a1.114,1.114,0,0,1-1.114,1.114h-3.569a1.114,1.114,0,0,1-1.114-1.114h0A1.114,1.114,0,0,1,1046.238,410.649Z" fill="#007aa4"/>
      </g>
      <g id="Grupo_9451" data-name="Grupo 9451">
        <path id="Trazado_5697" data-name="Trazado 5697" d="M1059.427,391.052l2.283-1.134-1.008-2.339" fill="none" stroke="#98bf11" stroke-linecap="round" stroke-linejoin="round" stroke-width="1.5"/>
        <path id="Trazado_5698" data-name="Trazado 5698" d="M1057.316,399.527l-2.489,1.06.926,2.543" fill="none" stroke="#98bf11" stroke-linecap="round" stroke-linejoin="round" stroke-width="1.501"/>
        <path id="Trazado_5699" data-name="Trazado 5699" d="M1053.083,398.491a6.286,6.286,0,0,1,7.852-8.886" fill="none" stroke="#98bf11" stroke-linecap="round" stroke-linejoin="round" stroke-width="1.5"/>
        <path id="Trazado_5700" data-name="Trazado 5700" d="M1063.854,391.715A6.284,6.284,0,0,1,1055.7,401" fill="none" stroke="#98bf11" stroke-linecap="round" stroke-linejoin="round" stroke-width="1.5"/>
        <path id="Trazado_5701" data-name="Trazado 5701" d="M1054.44,400.143" fill="none" stroke="#98bf11" stroke-linecap="round" stroke-linejoin="round" stroke-width="1.5"/>
        <path id="Trazado_5702" data-name="Trazado 5702" d="M1054.44,400.143" fill="none" stroke="#98bf11" stroke-linecap="round" stroke-linejoin="round" stroke-width="1.5"/>
      </g>
    </g>
  </g>
</svg>
