<svg xmlns="http://www.w3.org/2000/svg" xmlns:xlink="http://www.w3.org/1999/xlink" width="16" height="23" viewBox="0 0 16 23">
  <defs>
    <clipPath id="clip-icono_ver_certificado_de_estado">
      <rect width="16" height="23"/>
    </clipPath>
  </defs>
  <g id="icono_ver_certificado_de_estado" data-name="icono ver certificado de estado" clip-path="url(#clip-icono_ver_certificado_de_estado)">
    <g id="Grupo_9208" data-name="Grupo 9208" transform="translate(-535.056 -397.291)">
      <path id="Trazado_5467" data-name="Trazado 5467" d="M539.981,398.291h9.2a1.254,1.254,0,0,1,1.255,1.255v18.821a1.254,1.254,0,0,1-1.255,1.255H537.311a1.254,1.254,0,0,1-1.255-1.255v-16.15" fill="none" stroke="#007aa4" stroke-miterlimit="10" stroke-width="1"/>
      <path id="Trazado_5468" data-name="Trazado 5468" d="M536.056,402.248l4.054-3.957v2.9s-.29,1.062-1.158,1.062Z" fill="none" stroke="#007aa4" stroke-linecap="round" stroke-linejoin="round" stroke-width="1"/>
      <line id="Línea_154" data-name="Línea 154" x2="6.563" transform="translate(539.965 413.501)" fill="none" stroke="#007aa4" stroke-linecap="round" stroke-linejoin="round" stroke-width="1"/>
      <line id="Línea_155" data-name="Línea 155" x2="6.563" transform="translate(539.965 415.881)" fill="none" stroke="#007aa4" stroke-linecap="round" stroke-linejoin="round" stroke-width="1"/>
      <circle id="Elipse_427" data-name="Elipse 427" cx="3.792" cy="3.792" r="3.792" transform="translate(539.361 404.082)" fill="none" stroke="#007aa4" stroke-miterlimit="10" stroke-width="1"/>
      <path id="Trazado_5469" data-name="Trazado 5469" d="M542.1,409.846l1.271.867,2.334-3.051" transform="translate(-0.745 -1.156)" fill="none" stroke="#007aa4" stroke-linecap="round" stroke-linejoin="round" stroke-width="1"/>
    </g>
  </g>
</svg>
