<svg xmlns="http://www.w3.org/2000/svg" xmlns:xlink="http://www.w3.org/1999/xlink" width="90" height="90" viewBox="0 0 90 90">
  <defs>
    <filter id="Rectángulo_3288" x="0" y="3" width="91" height="91" filterUnits="userSpaceOnUse">
      <feOffset dy="3" input="SourceAlpha"/>
      <feGaussianBlur stdDeviation="3" result="blur"/>
      <feFlood flood-opacity="0.18"/>
      <feComposite operator="in" in2="blur"/>
      <feComposite in="SourceGraphic"/>
    </filter>
    <clipPath id="clip-icono_app">
      <rect width="90" height="90"/>
    </clipPath>
  </defs>
  <g id="icono_app" data-name="icono app" clip-path="url(#clip-icono_app)">
    <g id="Grupo_9379" data-name="Grupo 9379" transform="translate(-591 -517)">
      <g transform="matrix(1, 0, 0, 1, 591, 517)" filter="url(#Rectángulo_3288)">
        <rect id="Rectángulo_3288-2" data-name="Rectángulo 3288" width="73" height="73" rx="15" transform="translate(9 9)" fill="#fff"/>
      </g>
      <g id="Grupo_9354" data-name="Grupo 9354" transform="translate(610.735 534.758)">
        <g id="Grupo_9353" data-name="Grupo 9353" transform="translate(3.221 0)">
          <g id="Grupo_9262" data-name="Grupo 9262" transform="translate(0 0)">
            <path id="Image-2" d="M82.08,57.817h0a22.292,22.292,0,0,1,22.531,22.045v.971A22.292,22.292,0,0,1,82.08,102.879h0A22.292,22.292,0,0,1,59.549,80.833v-.971A22.292,22.292,0,0,1,82.08,57.817Z" transform="translate(-59.549 -57.817)" fill="#05284d"/>
          </g>
          <path id="Trazado_5533" data-name="Trazado 5533" d="M153.866,134.3l-7.318-5.141-2.444,3.289-2.466,3.32,2.607-.313a8.746,8.746,0,0,1-17.458-.988v-.055a8.776,8.776,0,0,1,8.758-9.053,8.634,8.634,0,0,1,8.17,5.724l2.585-3.48,4.658,3.271a15.226,15.226,0,0,0-15.412-12.068,15.38,15.38,0,0,0-15.835,15.606v.055c0,7.636,5.536,15.66,15.835,15.66,10.241,0,15.766-7.933,15.829-15.529l2.493-.3Z" transform="translate(-112.932 -111.937)" fill="#98bf11"/>
        </g>
        <text id="Sistecrédito" transform="translate(48.265 55.242)" fill="#05284d" font-size="8" font-family="Montserrat-SemiBold, Montserrat" font-weight="600" letter-spacing="-0.007em"><tspan x="-48.192" y="0">Sistecrédito</tspan></text>
      </g>
    </g>
  </g>
</svg>
