<svg xmlns="http://www.w3.org/2000/svg" xmlns:xlink="http://www.w3.org/1999/xlink" width="38" height="40" viewBox="0 0 38 40">
  <defs>
    <clipPath id="clip-promociones">
      <rect width="38" height="40"/>
    </clipPath>
  </defs>
  <g id="promociones" clip-path="url(#clip-promociones)">
    <g id="Grupo_9286" data-name="Grupo 9286" transform="translate(-117.869 -328.172)">
      <path id="Trazado_5598" data-name="Trazado 5598" d="M136.722,339.807,125.5,351.029a1.256,1.256,0,0,0,0,1.766l8.968,8.969a1.256,1.256,0,0,0,1.767,0l11.221-11.222a2.848,2.848,0,0,0,.653-1.3v-7.091c0-.589-2.409-2.994-2.994-2.994l-7.09,0a2.862,2.862,0,0,0-1.3.653Zm7.519,3.216a2.15,2.15,0,1,0,0,3.04,2.149,2.149,0,0,0,0-3.04Z" transform="translate(-0.324)" fill="none" stroke="#007aa4" stroke-miterlimit="22.926" stroke-width="1"/>
      <path id="Trazado_5599" data-name="Trazado 5599" d="M129.216,347.61c-3.006-.5-5.1-1.6-5.1-2.874,0-1.743,3.89-3.156,8.688-3.156s8.688,1.413,8.688,3.156a1.453,1.453,0,0,1-.4.954" transform="translate(0 -0.773)" fill="none" stroke="#007aa4" stroke-linecap="round" stroke-linejoin="round" stroke-width="1"/>
      <path id="Trazado_5527" data-name="Trazado 5527" d="M136.7,355.372l-.531.547a1.609,1.609,0,0,0,.046,2.176l1.087,1.054a1.587,1.587,0,0,0,2.164-.034l.159-.165a1.388,1.388,0,0,0,.164-1.661l-1.275-2.28a1.4,1.4,0,0,1,.158-1.673l.16-.165a1.588,1.588,0,0,1,2.164-.034l1.1,1.066a1.586,1.586,0,0,1,.034,2.164l-.533.549" transform="translate(-3.711 -4.324)" fill="none" stroke="#98bf11" stroke-linecap="round" stroke-linejoin="round" stroke-width="1"/>
      <line id="Línea_147" data-name="Línea 147" y1="1.648" x2="1.598" transform="translate(137.835 347.701)" fill="none" stroke="#98bf11" stroke-linecap="round" stroke-linejoin="round" stroke-width="1"/>
      <line id="Línea_148" data-name="Línea 148" x1="1.598" y2="1.648" transform="translate(131.444 354.294)" fill="none" stroke="#98bf11" stroke-linecap="round" stroke-linejoin="round" stroke-width="1"/>
    </g>
  </g>
</svg>
