<svg xmlns="http://www.w3.org/2000/svg" xmlns:xlink="http://www.w3.org/1999/xlink" width="26" height="26" viewBox="0 0 26 26">
  <defs>
    <clipPath id="clip-promociones_azul">
      <rect width="26" height="26"/>
    </clipPath>
  </defs>
  <g id="promociones_azul" data-name="promociones  azul" clip-path="url(#clip-promociones_azul)">
    <g id="Grupo_9222" data-name="Grupo 9222">
      <g id="Grupo_9220" data-name="Grupo 9220">
        <g id="Grupo_8949" data-name="Grupo 8949" transform="translate(0 0.429)">
          <g id="Grupo_8948" data-name="Grupo 8948">
            <path id="Trazado_5397" data-name="Trazado 5397" d="M386.526,52.057l-7.179,0a3.5,3.5,0,0,0-1.833.873l-.9.9c-.729-.067-1.474-.1-2.219-.1-4.732,0-9.523,1.346-9.523,3.92,0,1.475,1.676,2.7,4.545,3.381L366.151,64.3a1.993,1.993,0,0,0,0,2.814l9.082,9.082a1.978,1.978,0,0,0,1.406.581h0a1.973,1.973,0,0,0,1.406-.581l11.363-11.362a3.438,3.438,0,0,0,.873-1.834V55.813C390.283,54.831,387.51,52.057,386.526,52.057Zm-20.209,5.6c0-1.008,3.145-2.471,8.074-2.471.292,0,.578.006.858.016L370.644,59.8C367.839,59.3,366.317,58.333,366.317,57.652ZM388.385,63.8,377.022,75.165a.535.535,0,0,1-.382.157h0a.534.534,0,0,1-.382-.156l-9.082-9.082a.549.549,0,0,1,0-.765l9.974-9.973a11.564,11.564,0,0,1,4.509,1.336,2.9,2.9,0,0,0,4.495,3.609,2.9,2.9,0,0,0,0-4.1h0a2.9,2.9,0,0,0-3.395-.5,10.486,10.486,0,0,0-4.338-1.608l.119-.119a2.793,2.793,0,0,1,.808-.449l7.1,0a9.126,9.126,0,0,1,2.383,2.383l0,7.078A2.6,2.6,0,0,1,388.385,63.8Zm-4.651-6.962a1.473,1.473,0,0,1,.367-.053,1.451,1.451,0,0,1,1.027,2.478,1.487,1.487,0,0,1-2.046.007.712.712,0,0,0,.242-.178,2.172,2.172,0,0,0,.588-1.443A2,2,0,0,0,383.734,56.842Z" transform="translate(-364.868 -52.057)" fill="#004195"/>
          </g>
        </g>
      </g>
      <text id="_" data-name="$" transform="translate(6 15) rotate(45)" fill="#004195" font-size="15" font-family="BloggerSans, Blogger Sans"><tspan x="0" y="0">$</tspan></text>
    </g>
  </g>
</svg>
