<svg xmlns="http://www.w3.org/2000/svg" xmlns:xlink="http://www.w3.org/1999/xlink" width="37" height="37" viewBox="0 0 37 37">
  <defs>
    <clipPath id="clip-registro_con_facebook">
      <rect width="37" height="37"/>
    </clipPath>
  </defs>
  <g id="registro_con_facebook" data-name="registro con facebook" clip-path="url(#clip-registro_con_facebook)">
    <path id="Trazado_5689" data-name="Trazado 5689" d="M17.5,0A17.611,17.611,0,0,1,31.719,7.3,17.2,17.2,0,0,1,35,17.5,17.5,17.5,0,1,1,17.5,0Z" transform="translate(1 1)" fill="#fff"/>
    <g id="Grupo_9427" data-name="Grupo 9427" transform="translate(-208 -486)">
      <g id="Grupo_9426" data-name="Grupo 9426" transform="translate(214 492)">
        <circle id="Elipse_457" data-name="Elipse 457" cx="12.5" cy="12.5" r="12.5" fill="#3b5998"/>
      </g>
      <path id="pequeno-logotipo-de-facebook" d="M86.262,0h-.876a4.421,4.421,0,0,0-4.416,4.417V6.28h-1.5a.279.279,0,0,0-.279.279V8.793a.279.279,0,0,0,.279.279h1.5v6.839a.279.279,0,0,0,.279.279h2.233a.279.279,0,0,0,.279-.279V9.072h2.221a.279.279,0,0,0,.279-.279V6.56a.279.279,0,0,0-.279-.279H83.76V4.417a1.627,1.627,0,0,1,1.625-1.625h.876a.279.279,0,0,0,.279-.279V.279A.279.279,0,0,0,86.262,0Z" transform="translate(144.378 496.286)" fill="#fff"/>
    </g>
  </g>
</svg>
