<svg xmlns="http://www.w3.org/2000/svg" xmlns:xlink="http://www.w3.org/1999/xlink" width="38" height="40" viewBox="0 0 38 40">
  <defs>
    <clipPath id="clip-solicitud_créditos">
      <rect width="38" height="40"/>
    </clipPath>
  </defs>
  <g id="solicitud_créditos" data-name="solicitud créditos" clip-path="url(#clip-solicitud_créditos)">
    <g id="Grupo_9282" data-name="Grupo 9282" transform="translate(-5726 -967)">
      <path id="Trazado_5593" data-name="Trazado 5593" d="M229.2,269.632c-4.784,0-8.662,3.438-8.662,7.679s3.878,7.679,8.662,7.679a9.654,9.654,0,0,0,2.733-.39,12.163,12.163,0,0,0,3.808,2.357l-.522-4.123a7.265,7.265,0,0,0,2.643-5.522c0-4.241-3.878-7.679-8.662-7.679Z" transform="translate(5523.334 698.631)" fill="none" stroke="#a7bf30" stroke-linecap="round" stroke-linejoin="round" stroke-width="1"/>
      <g id="Grupo_9281" data-name="Grupo 9281" transform="translate(5747.221 975.043)">
        <ellipse id="Elipse_430" data-name="Elipse 430" cx="1.378" cy="1.334" rx="1.378" ry="1.334" transform="translate(4.135)" fill="#a7bf30"/>
        <ellipse id="Elipse_431" data-name="Elipse 431" cx="1.378" cy="1.334" rx="1.378" ry="1.334" transform="translate(8.271)" fill="#a7bf30"/>
        <ellipse id="Elipse_432" data-name="Elipse 432" cx="1.378" cy="1.334" rx="1.378" ry="1.334" fill="#a7bf30"/>
      </g>
      <path id="Trazado_5594" data-name="Trazado 5594" d="M215.113,310.583h12.123c1.927,0,9.591-2.469,10.352-3.008a75.266,75.266,0,0,0,5.478-6.079,1.436,1.436,0,0,0-.728-2.311,3.773,3.773,0,0,0-1.3-.065c-1.393.162-3.065,2.276-3.748,3.2a1.431,1.431,0,0,1-.84.546l-4.506,1.018a1.436,1.436,0,0,1-.733-.025c-.673-.2-2.134-.65-3.537-1.013-.632-.164-1.658-1.57-1.658-1.679,0-.663.238-.639,1.363-1.225.74-.385,3.054-.8,3.866-2.659.741-1.7.263-3.351-2.762-2.149-1.228.487-6.41,1.976-8.8,2.919a1.412,1.412,0,0,0-.272.139,14.4,14.4,0,0,0-2.239,2.232,1.432,1.432,0,0,1-1.061.463h-1" transform="translate(5519.925 692.987)" fill="none" stroke="#007aa4" stroke-linecap="round" stroke-linejoin="round" stroke-width="1"/>
      <rect id="Rectángulo_3265" data-name="Rectángulo 3265" width="7" height="14" rx="1.789" transform="translate(5727.038 991.569)" stroke-width="1" stroke="#007aa4" stroke-linecap="round" stroke-linejoin="round" fill="none"/>
      <line id="Línea_177" data-name="Línea 177" y2="2.144" transform="translate(5731.038 994.569)" fill="none" stroke="#007aa4" stroke-linecap="round" stroke-linejoin="round" stroke-width="1"/>
    </g>
  </g>
</svg>
