<svg xmlns="http://www.w3.org/2000/svg" xmlns:xlink="http://www.w3.org/1999/xlink" width="150" height="96" viewBox="0 0 150 96">
  <defs>
    <clipPath id="clip-icono_comenzar_solicitud">
      <rect width="150" height="96"/>
    </clipPath>
  </defs>
  <g id="icono_comenzar_solicitud" data-name="icono comenzar solicitud" clip-path="url(#clip-icono_comenzar_solicitud)">
    <g id="Grupo_9324" data-name="Grupo 9324" transform="translate(-5968 -1085.799)">
      <g id="Grupo_9320" data-name="Grupo 9320" transform="translate(6008.467 1112.115)">
        <g id="Grupo_9303" data-name="Grupo 9303" transform="translate(0 0)">
          <g id="Grupo_9259" data-name="Grupo 9259">
            <path id="Trazado_5531" data-name="Trazado 5531" d="M236.063,269.632c-8.573,0-15.522,6.161-15.522,13.761s6.949,13.761,15.522,13.761a17.3,17.3,0,0,0,4.9-.7,21.8,21.8,0,0,0,6.824,4.223l-.935-7.389a13.02,13.02,0,0,0,4.736-9.9c0-7.6-6.949-13.761-15.522-13.761Z" transform="translate(-190.369 -269.632)" fill="none" stroke="#98bf11" stroke-linecap="round" stroke-linejoin="round" stroke-width="2"/>
            <g id="Grupo_9258" data-name="Grupo 9258" transform="translate(36.168 12.15)">
              <ellipse id="Elipse_430" data-name="Elipse 430" cx="2.47" cy="2.391" rx="2.47" ry="2.391" transform="translate(7.411)" fill="#98bf11"/>
              <ellipse id="Elipse_431" data-name="Elipse 431" cx="2.47" cy="2.391" rx="2.47" ry="2.391" transform="translate(14.821)" fill="#98bf11"/>
              <ellipse id="Elipse_432" data-name="Elipse 432" cx="2.47" cy="2.391" rx="2.47" ry="2.391" fill="#98bf11"/>
            </g>
            <path id="Trazado_5532" data-name="Trazado 5532" d="M215.113,323.146h21.725c3.453,0,17.187-4.425,18.552-5.391,1.076-.763,6.719-7.119,9.817-10.893a2.573,2.573,0,0,0-1.3-4.142,6.758,6.758,0,0,0-2.333-.117c-2.5.29-5.492,4.078-6.716,5.734a2.564,2.564,0,0,1-1.5.978l-8.074,1.823a2.572,2.572,0,0,1-1.314-.045c-1.206-.363-3.824-1.164-6.338-1.816-1.133-.294-2.971-2.814-2.971-3.01,0-1.188.426-1.146,2.442-2.2,1.327-.691,5.473-1.437,6.927-4.765,1.328-3.043.472-6-4.95-3.851-2.2.873-11.487,3.541-15.765,5.231a2.528,2.528,0,0,0-.487.249,25.8,25.8,0,0,0-4.012,4,2.565,2.565,0,0,1-1.9.83h-1.792" transform="translate(-200.777 -259.878)" fill="none" stroke="#007aa4" stroke-linecap="round" stroke-linejoin="round" stroke-width="1.92"/>
            <rect id="Rectángulo_3233" data-name="Rectángulo 3233" width="12.544" height="25.088" rx="1.789" transform="translate(0 41.764)" stroke-width="1.92" stroke="#007aa4" stroke-linecap="round" stroke-linejoin="round" fill="none"/>
            <line id="Línea_164" data-name="Línea 164" y2="3.842" transform="translate(7.168 47.14)" fill="none" stroke="#007aa4" stroke-linecap="round" stroke-linejoin="round" stroke-width="1.92"/>
          </g>
        </g>
      </g>
      <g id="Grupo_9321" data-name="Grupo 9321" transform="translate(5969 1086.959)">
        <g id="Grupo_2165" data-name="Grupo 2165" transform="translate(131.799 43.649)">
          <g id="Grupo_2143" data-name="Grupo 2143" transform="translate(2.17 2.269)">
            <g id="Grupo_2141" data-name="Grupo 2141" transform="translate(0.823 0.824)">
              <path id="Trazado_1518" data-name="Trazado 1518" d="M658.194,1531.989l2.523,2.524Z" transform="translate(-658.194 -1531.989)" fill="#0074ff"/>
            </g>
            <g id="Grupo_2142" data-name="Grupo 2142">
              <path id="Trazado_1519" data-name="Trazado 1519" d="M660.957,1535.577a.82.82,0,0,1-.582-.242l-2.523-2.523a.824.824,0,0,1,1.164-1.165l2.524,2.524a.824.824,0,0,1-.583,1.406Z" transform="translate(-657.611 -1531.406)" fill="#0074ff"/>
            </g>
          </g>
          <g id="Grupo_2146" data-name="Grupo 2146" transform="translate(0 7.649)">
            <g id="Grupo_2144" data-name="Grupo 2144" transform="translate(0.824 0.824)">
              <path id="Trazado_1520" data-name="Trazado 1520" d="M656.658,1535.8h0Z" transform="translate(-656.658 -1535.798)" fill="#0074ff"/>
            </g>
            <g id="Grupo_2145" data-name="Grupo 2145">
              <path id="Trazado_1521" data-name="Trazado 1521" d="M660.467,1536.862H656.9a.824.824,0,1,1,0-1.647h3.568a.824.824,0,0,1,0,1.647Z" transform="translate(-656.075 -1535.215)" fill="#0074ff"/>
            </g>
          </g>
          <g id="Grupo_2149" data-name="Grupo 2149" transform="translate(2.27 10.463)">
            <g id="Grupo_2147" data-name="Grupo 2147" transform="translate(0.824 0.824)">
              <path id="Trazado_1522" data-name="Trazado 1522" d="M658.265,1540.314l2.523-2.524Z" transform="translate(-658.265 -1537.79)" fill="#0074ff"/>
            </g>
            <g id="Grupo_2148" data-name="Grupo 2148">
              <path id="Trazado_1523" data-name="Trazado 1523" d="M658.506,1541.378a.824.824,0,0,1-.582-1.407l2.523-2.523a.823.823,0,0,1,1.165,1.164l-2.524,2.524A.821.821,0,0,1,658.506,1541.378Z" transform="translate(-657.682 -1537.207)" fill="#0074ff"/>
            </g>
          </g>
          <g id="Grupo_2152" data-name="Grupo 2152" transform="translate(7.649 11.587)">
            <g id="Grupo_2150" data-name="Grupo 2150" transform="translate(0.824 0.824)">
              <path id="Trazado_1524" data-name="Trazado 1524" d="M662.073,1542.156v0Z" transform="translate(-662.073 -1538.586)" fill="#0074ff"/>
            </g>
            <g id="Grupo_2151" data-name="Grupo 2151">
              <path id="Trazado_1525" data-name="Trazado 1525" d="M662.313,1543.22a.824.824,0,0,1-.823-.824v-3.569a.824.824,0,1,1,1.647,0v3.569A.824.824,0,0,1,662.313,1543.22Z" transform="translate(-661.49 -1538.003)" fill="#0074ff"/>
            </g>
          </g>
          <g id="Grupo_2155" data-name="Grupo 2155" transform="translate(10.464 10.363)">
            <g id="Grupo_2153" data-name="Grupo 2153" transform="translate(0.824 0.822)">
              <path id="Trazado_1526" data-name="Trazado 1526" d="M666.589,1540.243l-2.523-2.524Z" transform="translate(-664.066 -1537.719)" fill="#0074ff"/>
            </g>
            <g id="Grupo_2154" data-name="Grupo 2154">
              <path id="Trazado_1527" data-name="Trazado 1527" d="M666.83,1541.307a.82.82,0,0,1-.582-.241l-2.524-2.523a.824.824,0,1,1,1.165-1.165l2.523,2.524a.823.823,0,0,1-.582,1.405Z" transform="translate(-663.483 -1537.137)" fill="#0074ff"/>
            </g>
          </g>
          <g id="Grupo_2158" data-name="Grupo 2158" transform="translate(11.589 7.508)">
            <g id="Grupo_2156" data-name="Grupo 2156" transform="translate(0.824 0.824)">
              <path id="Trazado_1528" data-name="Trazado 1528" d="M668.43,1535.7h0Z" transform="translate(-664.862 -1535.698)" fill="#0074ff"/>
            </g>
            <g id="Grupo_2157" data-name="Grupo 2157">
              <path id="Trazado_1529" data-name="Trazado 1529" d="M668.671,1536.762H665.1a.824.824,0,1,1,0-1.647h3.568a.824.824,0,0,1,0,1.647Z" transform="translate(-664.279 -1535.115)" fill="#0074ff"/>
            </g>
          </g>
          <g id="Grupo_2161" data-name="Grupo 2161" transform="translate(10.364 2.169)">
            <g id="Grupo_2159" data-name="Grupo 2159" transform="translate(0.824 0.824)">
              <path id="Trazado_1530" data-name="Trazado 1530" d="M666.518,1531.919,664,1534.442Z" transform="translate(-663.995 -1531.919)" fill="#0074ff"/>
            </g>
            <g id="Grupo_2160" data-name="Grupo 2160">
              <path id="Trazado_1531" data-name="Trazado 1531" d="M664.236,1535.506a.823.823,0,0,1-.582-1.405l2.523-2.524a.823.823,0,0,1,1.164,1.165l-2.523,2.523A.821.821,0,0,1,664.236,1535.506Z" transform="translate(-663.412 -1531.336)" fill="#0074ff"/>
            </g>
          </g>
          <g id="Grupo_2164" data-name="Grupo 2164" transform="translate(7.508)">
            <g id="Grupo_2162" data-name="Grupo 2162" transform="translate(0.824 0.824)">
              <path id="Trazado_1532" data-name="Trazado 1532" d="M661.973,1530.383v0Z" transform="translate(-661.973 -1530.383)" fill="#0074ff"/>
            </g>
            <g id="Grupo_2163" data-name="Grupo 2163">
              <path id="Trazado_1533" data-name="Trazado 1533" d="M662.214,1535.015a.823.823,0,0,1-.824-.824v-3.568a.824.824,0,0,1,1.647,0v3.568A.823.823,0,0,1,662.214,1535.015Z" transform="translate(-661.39 -1529.8)" fill="#0074ff"/>
            </g>
          </g>
        </g>
        <g id="Grupo_2170" data-name="Grupo 2170" transform="translate(0 30.773)">
          <g id="Grupo_2166" data-name="Grupo 2166" transform="translate(8.162)">
            <path id="Trazado_1534" data-name="Trazado 1534" d="M585.436,1515.711a1.154,1.154,0,0,0-1.632,0l-3.537,3.537a1.154,1.154,0,0,0,1.633,1.632l3.536-3.536A1.155,1.155,0,0,0,585.436,1515.711Z" transform="translate(-579.93 -1515.373)" fill="#cdfc00"/>
          </g>
          <g id="Grupo_2167" data-name="Grupo 2167" transform="translate(0 8.162)">
            <path id="Trazado_1535" data-name="Trazado 1535" d="M579.66,1521.489a1.155,1.155,0,0,0-1.633,0l-3.537,3.535a1.155,1.155,0,0,0,1.633,1.633l3.537-3.537A1.154,1.154,0,0,0,579.66,1521.489Z" transform="translate(-574.152 -1521.151)" fill="#cdfc00"/>
          </g>
          <g id="Grupo_2168" data-name="Grupo 2168" transform="translate(8.162 8.162)">
            <path id="Trazado_1536" data-name="Trazado 1536" d="M585.436,1525.024l-3.536-3.535a1.154,1.154,0,0,0-1.633,1.631l3.537,3.537a1.154,1.154,0,0,0,1.632-1.633Z" transform="translate(-579.93 -1521.151)" fill="#cdfc00"/>
          </g>
          <g id="Grupo_2169" data-name="Grupo 2169">
            <path id="Trazado_1537" data-name="Trazado 1537" d="M579.66,1519.248l-3.537-3.537a1.155,1.155,0,0,0-1.633,1.633l3.537,3.536a1.154,1.154,0,1,0,1.633-1.632Z" transform="translate(-574.152 -1515.373)" fill="#cdfc00"/>
          </g>
        </g>
        <g id="Grupo_2172" data-name="Grupo 2172" transform="translate(34.895 0)">
          <g id="Grupo_2171" data-name="Grupo 2171">
            <path id="Trazado_1538" data-name="Trazado 1538" d="M594.177,1512.306a6.7,6.7,0,1,1,6.7-6.7A6.711,6.711,0,0,1,594.177,1512.306Zm0-11.417a4.712,4.712,0,1,0,4.712,4.713A4.718,4.718,0,0,0,594.177,1500.889Z" transform="translate(-587.473 -1498.899)" fill="#071842"/>
          </g>
        </g>
        <g id="Grupo_2173" data-name="Grupo 2173" transform="translate(21.992 1.819)">
          <path id="Trazado_1539" data-name="Trazado 1539" d="M581.458,1501.746a1.559,1.559,0,1,1-1.56-1.56A1.56,1.56,0,0,1,581.458,1501.746Z" transform="translate(-578.339 -1500.187)" fill="#0074ff"/>
        </g>
        <g id="Grupo_2174" data-name="Grupo 2174" transform="translate(100.595 15.027)">
          <path id="Trazado_1540" data-name="Trazado 1540" d="M650.523,1517.267h-6.652v-6.652a1.079,1.079,0,0,0-2.157,0v6.652h-6.65a1.078,1.078,0,1,0,0,2.157h6.65v6.652a1.079,1.079,0,0,0,2.157,0v-6.652h6.652a1.078,1.078,0,1,0,0-2.157Z" transform="translate(-633.985 -1509.537)" fill="#003891"/>
        </g>
      </g>
    </g>
  </g>
</svg>
