<svg xmlns="http://www.w3.org/2000/svg" xmlns:xlink="http://www.w3.org/1999/xlink" width="18" height="26" viewBox="0 0 18 26">
  <defs>
    <clipPath id="clip-donde_comprar_verde">
      <rect width="18" height="26"/>
    </clipPath>
  </defs>
  <g id="donde_comprar_verde" data-name="donde comprar verde" clip-path="url(#clip-donde_comprar_verde)">
    <g id="Grupo_8928" data-name="Grupo 8928">
      <path id="Trazado_5388" data-name="Trazado 5388" d="M425.927,52.684a9.486,9.486,0,0,0-5.533-1.777,10.175,10.175,0,0,0-5.7,1.806,7.778,7.778,0,0,0-3.264,6.561c.018,2.539,1.386,6.1,4.185,10.9,1.805,3.077,3.611,5.6,4.121,6.3a.787.787,0,0,0,.642.322h.015a.814.814,0,0,0,.679-.365c.486-.69,2.2-3.179,3.916-6.239,2.673-4.774,3.979-8.346,4-10.922A7.748,7.748,0,0,0,425.927,52.684Zm1.446,6.585c.023,2.991-2.368,7.665-3.8,10.187-.77,1.376-1.66,2.841-2.648,4.358-.2.312-.39.593-.551.831-.17-.242-.369-.528-.585-.855a70.249,70.249,0,0,1-4.256-7.049c-1.145-2.212-2.507-5.3-2.494-7.468a6.164,6.164,0,0,1,2.609-5.323,8.562,8.562,0,0,1,4.743-1.5,7.793,7.793,0,0,1,4.541,1.447A6.289,6.289,0,0,1,427.373,59.269Z" transform="translate(-411.432 -50.907)" fill="#71a000"/>
      <path id="Trazado_5389" data-name="Trazado 5389" d="M417.985,59.756a3.366,3.366,0,1,0,3.361-3.179A3.277,3.277,0,0,0,417.985,59.756Zm3.361,1.726a1.729,1.729,0,1,1,1.833-1.726A1.784,1.784,0,0,1,421.346,61.482Z" transform="translate(-412.508 -51.838)" fill="#71a000"/>
    </g>
  </g>
</svg>
